<svg xmlns="http://www.w3.org/2000/svg" viewBox="-1130.4239795756366 -219.44715879262773 1905.717656657167 1000.3809401988831" style="background-color:transparent">

    <defs>
        <pattern id="checkers" x="0" y="0" width="6" height="6" patternUnits="userSpaceOnUse">
            <rect x="0" y="0" width="3" height="3" fill="black" />
            <rect x="3" y="3" width="3" height="3" fill="black" />
        </pattern>
    </defs>
    
<polyline points="-189.52,685.70 -188.02,685.99 -186.51,686.27 -185.01,686.55 -183.51,686.82 -182.00,687.10 -180.50,687.36 -179.00,687.63 -177.49,687.89 -175.99,688.14 -174.49,688.39 -172.99,688.64 -171.50,688.88 -170.00,689.11 -168.49,689.35 -166.99,689.58 -165.48,689.80 -163.78,690.05 -162.07,690.29 -160.35,690.52 -158.63,690.76 -156.90,690.99 -155.16,691.22 -153.42,691.44 -151.67,691.66 -149.91,691.88 -148.14,692.10 -146.37,692.31 -144.59,692.53 -142.81,692.74 -141.02,692.94 -139.22,693.15 -137.42,693.35 -135.61,693.55 -133.99,693.72 -132.36,693.90 -130.73,694.06 -129.11,694.23 -127.48,694.39 -125.85,694.55 -124.23,694.71 -122.60,694.86 -120.98,695.01 -119.35,695.16 -117.73,695.30 -116.10,695.44 -114.48,695.57 -112.85,695.70 -111.23,695.83 -109.60,695.95 -107.97,696.06 -106.35,696.17 -104.72,696.28 -103.09,696.38 -101.45,696.48 -99.82,696.57 -98.18,696.66 -96.54,696.74 -94.90,696.82 -93.26,696.90 -91.62,696.96 -89.97,697.03 -88.32,697.08 -86.67,697.14 -85.02,697.18 -83.37,697.22 -81.71,697.26 -80.05,697.29 -78.40,697.31 -76.73,697.33 -75.07,697.34 -73.41,697.35 -71.74,697.35 -70.08,697.34 -68.41,697.33 -66.74,697.32 -65.06,697.29 -63.39,697.27 -61.72,697.23 -60.04,697.19 -58.36,697.15 -56.68,697.10 -55.00,697.05 -53.32,696.99 -51.63,696.93 -49.95,696.86 -48.26,696.79 -46.57,696.71 -44.88,696.63 -43.19,696.55 -41.49,696.46 -39.80,696.37 -38.10,696.28 -36.41,696.18 -34.72,696.09 -33.04,695.99 -31.38,695.89 -29.72,695.79 -28.08,695.69 -26.45,695.58 -24.83,695.48 -23.22,695.38 -21.62,695.28 -20.04,695.17 -18.46,695.07 -16.90,694.97 -15.34,694.87 -13.80,694.76 -12.27,694.66 -10.75,694.56 -9.25,694.46 -7.74,694.35 -6.23,694.25 -4.72,694.14 -3.21,694.04 -1.69,693.93 -0.18,693.83 1.34,693.72 2.85,693.61 4.37,693.50 5.89,693.39 7.41,693.28 8.93,693.16 10.45,693.05 11.97,692.93 13.49,692.82 15.02,692.70 16.54,692.58 18.07,692.46 19.60,692.34 21.13,692.22 22.66,692.09 24.19,691.97 25.72,691.84 27.25,691.72 28.79,691.59 30.32,691.46 31.86,691.33 33.39,691.20 34.93,691.07 36.47,690.94 38.01,690.80 39.55,690.67 41.09,690.54 42.64,690.40 44.18,690.27 45.73,690.13 47.27,690.00 48.82,689.86 50.37,689.72 51.92,689.59 53.47,689.45 55.02,689.31 56.57,689.18 58.12,689.04 59.68,688.90 61.23,688.76 62.79,688.63 64.34,688.49 65.90,688.35 67.46,688.21 69.02,688.07 70.58,687.93 72.14,687.80 73.71,687.66 75.27,687.52 76.84,687.38 78.40,687.24 79.97,687.10 81.54,686.96 83.10,686.82 84.67,686.68 86.24,686.54 87.82,686.40 89.39,686.25 90.96,686.11 92.54,685.97 94.11,685.83 95.69,685.68 97.26,685.54 98.84,685.39 100.42,685.24 102.00,685.10 103.58,684.95 105.16,684.80 106.74,684.65 108.32,684.50 109.90,684.35 111.49,684.20 113.07,684.04 114.66,683.89 116.24,683.73 117.83,683.57 119.41,683.41 121.00,683.26 122.58,683.10 124.16,682.93 125.75,682.77 127.33,682.61 128.91,682.44 130.49,682.28 132.06,682.11 133.64,681.95 135.22,681.78 136.79,681.61 138.36,681.43 139.93,681.26 141.50,681.09 143.07,680.91 144.64,680.73 146.20,680.55 147.77,680.37 149.33,680.18 150.90,680.00 152.47,679.81 154.03,679.61 155.60,679.42 157.16,679.22 158.73,679.02 160.30,678.82 161.86,678.61 163.43,678.40 165.00,678.18 166.56,677.96 168.13,677.74 169.70,677.51 171.26,677.28 172.83,677.04 174.40,676.80 175.96,676.55 177.53,676.30 179.09,676.04 180.65,675.77 182.22,675.50 183.78,675.22 185.34,674.94 186.91,674.65 188.47,674.35 190.03,674.05 191.58,673.73 193.14,673.41 194.70,673.08 196.25,672.75 197.80,672.40 199.36,672.05 200.91,671.69 202.46,671.32 204.00,670.94 205.55,670.56 207.09,670.16 208.63,669.76 210.17,669.34 211.71,668.92 213.24,668.49 214.78,668.05 216.31,667.60 217.83,667.14 219.36,666.68 220.88,666.20 222.40,665.71 223.92,665.22 225.43,664.71 226.94,664.20 228.45,663.67 229.96,663.14 231.46,662.59 232.96,662.04 234.45,661.47 235.94,660.90 237.43,660.31 238.91,659.72 240.39,659.12 241.86,658.50 243.33,657.88 244.80,657.24 246.26,656.60 247.72,655.94 249.18,655.28 250.63,654.61 252.07,653.92 253.52,653.23 254.95,652.53 256.39,651.82 257.82,651.10 259.24,650.38 260.67,649.64 262.08,648.90 263.50,648.15 264.91,647.39 266.32,646.62 267.72,645.85 269.12,645.06 270.51,644.28 271.91,643.48 273.30,642.68 274.68,641.87 276.07,641.06 277.45,640.23 278.82,639.41 280.20,638.57 281.57,637.74 282.94,636.89 284.30,636.04 285.66,635.19 287.02,634.33 288.38,633.46 289.74,632.59 291.09,631.72 292.44,630.84 293.78,629.95 295.13,629.06 296.47,628.16 297.81,627.26 299.14,626.36 300.48,625.45 301.81,624.53 303.13,623.61 304.46,622.69 305.78,621.76 307.10,620.82 308.41,619.88 309.72,618.93 311.03,617.98 312.34,617.03 313.64,616.07 314.94,615.10 316.24,614.13 317.53,613.15 318.82,612.17 320.11,611.19 321.39,610.20 322.67,609.21 323.95,608.21 325.23,607.20 326.50,606.19 327.77,605.18 329.03,604.16 330.29,603.14 331.55,602.11 332.81,601.08 334.06,600.04 335.31,599.00 336.55,597.95 337.79,596.90 339.03,595.85 340.26,594.78 341.49,593.72 342.72,592.64 343.94,591.57 345.16,590.48 346.37,589.40 347.58,588.30 348.78,587.20 349.98,586.10 351.17,584.98 352.36,583.87 353.54,582.75 354.72,581.62 355.89,580.48 357.06,579.34 358.23,578.20 359.38,577.05 360.54,575.89 361.68,574.73 362.83,573.56 363.96,572.39 365.10,571.21 366.22,570.03 367.35,568.84 368.47,567.65 369.58,566.45 370.69,565.24 371.79,564.04 372.89,562.82 373.99,561.61 375.08,560.39 376.16,559.16 377.24,557.93 378.32,556.69 379.39,555.45 380.46,554.21 381.52,552.96 382.57,551.71 383.63,550.45 384.67,549.18 385.71,547.92 386.75,546.64 387.78,545.37 388.80,544.08 389.82,542.80 390.83,541.50 391.84,540.21 392.84,538.91 393.84,537.60 394.83,536.29 395.81,534.97 396.78,533.65 397.75,532.32 398.72,530.99 399.67,529.65 400.62,528.31 401.57,526.96 402.51,525.61 403.44,524.26 404.36,522.90 405.28,521.53 406.19,520.16 407.10,518.79 408.00,517.41 408.89,516.03 409.78,514.64 410.67,513.25 411.54,511.85 412.42,510.46 413.28,509.05 414.14,507.65 415.00,506.24 415.85,504.82 416.69,503.41 417.53,501.99 418.36,500.56 419.19,499.13 420.02,497.70 420.83,496.27 421.64,494.83 422.45,493.39 423.25,491.94 424.04,490.49 424.83,489.04 425.61,487.58 426.39,486.12 427.15,484.66 427.92,483.19 428.67,481.72 429.42,480.25 430.16,478.77 430.90,477.29 431.63,475.80 432.35,474.31 433.06,472.82 433.77,471.32 434.47,469.82 435.16,468.32 435.85,466.81 436.53,465.30 437.20,463.79 437.86,462.27 438.51,460.75 439.16,459.22 439.80,457.69 440.44,456.16 441.06,454.63 441.68,453.09 442.29,451.55 442.89,450.00 443.48,448.46 444.07,446.91 444.65,445.35 445.22,443.79 445.78,442.23 446.34,440.67 446.88,439.11 447.43,437.54 447.96,435.97 448.49,434.39 449.01,432.82 449.52,431.24 450.03,429.66 450.53,428.07 451.03,426.49 451.52,424.90 452.01,423.31 452.49,421.72 452.96,420.13 453.44,418.53 453.91,416.94 454.37,415.34 454.83,413.74 455.29,412.14 455.75,410.54 456.20,408.94 456.66,407.33 457.11,405.73 457.56,404.12 458.01,402.52 458.46,400.91 458.91,399.30 459.36,397.70 459.81,396.09 460.26,394.48 460.70,392.87 461.15,391.26 461.60,389.65 462.05,388.04 462.50,386.43 462.95,384.82 463.40,383.21 463.85,381.60 464.30,379.99 464.75,378.38 465.20,376.77 465.65,375.15 466.10,373.54 466.56,371.93 467.01,370.32 467.46,368.70 467.91,367.09 468.37,365.47 468.82,363.86 469.27,362.24 469.73,360.63 470.18,359.01 470.64,357.40 471.09,355.78 471.55,354.17 472.00,352.55 472.46,350.93 472.91,349.31 473.37,347.70 473.83,346.08 474.29,344.46 474.75,342.84 475.20,341.22 475.66,339.61 476.12,337.99 476.58,336.37 477.05,334.75 477.51,333.13 477.97,331.51 478.43,329.89 478.90,328.27 479.36,326.65 479.83,325.03 480.30,323.41 480.76,321.79 481.23,320.17 481.70,318.55 482.17,316.93 482.65,315.31 483.12,313.69 483.60,312.07 484.07,310.45 484.55,308.83 485.03,307.21 485.51,305.59 485.99,303.97 486.48,302.35 486.96,300.73 487.45,299.11 487.94,297.49 488.43,295.87 488.92,294.25 489.41,292.63 489.90,291.01 490.39,289.39 490.88,287.77 491.38,286.15 491.87,284.53 492.37,282.91 492.86,281.29 493.36,279.66 493.86,278.04 494.35,276.42 494.85,274.80 495.35,273.18 495.85,271.56 496.34,269.94 496.84,268.31 497.34,266.69 497.84,265.07 498.34,263.44 498.84,261.82 499.34,260.20 499.84,258.57 500.34,256.95 500.84,255.33 501.34,253.70 501.84,252.08 502.34,250.45 502.84,248.83 503.34,247.20 503.85,245.57 504.35,243.95 504.85,242.32 505.35,240.70 505.85,239.07 506.35,237.44 506.85,235.81 507.36,234.19 507.86,232.56 508.36,230.93 508.86,229.30 509.36,227.67 509.87,226.04 510.37,224.42 510.87,222.79 511.37,221.16 511.87,219.53 512.38,217.90 512.88,216.27 513.38,214.63 513.88,213.00 514.38,211.37 514.89,209.74 515.39,208.11 515.89,206.48 516.39,204.85 516.90,203.21 517.40,201.58 517.90,199.95 518.40,198.32 518.91,196.68 519.41,195.05 519.91,193.42 520.42,191.78 520.92,190.15 521.42,188.51 521.93,186.88 522.43,185.25 522.93,183.61 523.44,181.98 523.94,180.34 524.45,178.71 524.95,177.07 525.46,175.43 525.96,173.80 526.47,172.16 526.97,170.53 527.48,168.89 527.98,167.25 528.49,165.62 529.00,163.98 529.50,162.34 530.01,160.71 530.52,159.07 531.03,157.43 531.53,155.80 532.04,154.16 532.55,152.52 533.06,150.88 533.57,149.25 534.08,147.61 534.59,145.97 535.10,144.33 535.61,142.69 536.12,141.05 536.63,139.42 537.14,137.78 537.66,136.14 538.17,134.50 538.68,132.86 539.20,131.22 539.71,129.59 540.23,127.95 540.75,126.31 541.27,124.67 541.79,123.03 542.31,121.40 542.84,119.76 543.36,118.13 543.89,116.49 544.42,114.85 544.96,113.22 545.49,111.59 546.03,109.95 546.57,108.32 547.12,106.69 547.67,105.06 548.22,103.43 548.77,101.80 549.33,100.17 549.89,98.55 550.45,96.92 551.02,95.30 551.59,93.67 552.16,92.05 552.74,90.43 553.32,88.81 553.90,87.19 554.49,85.57 555.08,83.95 555.67,82.34 556.27,80.72 556.87,79.11 557.48,77.50 558.09,75.89 558.71,74.28 559.33,72.68 559.96,71.07 560.59,69.47 561.23,67.87 561.87,66.27 562.52,64.68 563.18,63.09 563.84,61.50 564.52,59.92 565.20,58.34 565.89,56.76 566.58,55.19 567.29,53.63 568.01,52.06 568.73,50.50 569.47,48.95 570.21,47.40 570.97,45.86 571.73,44.32 572.51,42.79 573.29,41.26 574.08,39.74 574.89,38.23 575.70,36.72 576.52,35.21 577.35,33.71 578.19,32.22 579.04,30.73 579.90,29.25 580.77,27.77 581.64,26.30 582.53,24.83 583.42,23.37 584.32,21.91 585.23,20.46 586.15,19.01 587.07,17.57 588.01,16.14 588.95,14.71 589.90,13.28 590.85,11.86 591.82,10.45 592.79,9.04 593.77,7.64 594.75,6.24 595.75,4.85 596.75,3.47 597.76,2.09 598.78,0.71 599.80,-0.66 600.84,-2.02 601.88,-3.37 602.93,-4.72 603.98,-6.06 605.05,-7.40 606.12,-8.72 607.21,-10.04 608.30,-11.36 609.39,-12.66 610.50,-13.96 611.61,-15.26 612.74,-16.54 613.87,-17.82 615.01,-19.08 616.15,-20.35 617.31,-21.60 618.47,-22.85 619.64,-24.09 620.82,-25.32 622.00,-26.54 623.19,-27.76 624.39,-28.97 625.59,-30.18 626.81,-31.37 628.02,-32.57 629.25,-33.75 630.47,-34.93 631.71,-36.10 632.95,-37.27 634.19,-38.43 635.44,-39.59 636.70,-40.74 637.96,-41.89 639.22,-43.03 640.49,-44.17 641.76,-45.30 643.04,-46.43 644.32,-47.55 645.60,-48.67 646.89,-49.79 648.17,-50.90 649.47,-52.01 650.76,-53.12 652.06,-54.22 653.36,-55.32 654.66,-56.42 655.97,-57.51 657.27,-58.60 658.58,-59.68 659.88,-60.76 661.18,-61.83 662.47,-62.90 663.77,-63.96 665.06,-65.01 666.34,-66.06 667.62,-67.10 668.89,-68.14 670.15,-69.16 671.41,-70.18 672.67,-71.20 673.92,-72.22 675.18,-73.24 676.43,-74.25 677.68,-75.26 678.93,-76.28 680.18,-77.29 681.42,-78.30 682.66,-79.30 683.90,-80.31 685.13,-81.31 686.36,-82.31 687.60,-83.31 688.84,-84.32 690.08,-85.33 691.33,-86.34 692.58,-87.36 693.82,-88.38 695.06,-89.39 696.29,-90.39 697.51,-91.39 698.73,-92.40 699.96,-93.40 701.18,-94.41 702.41,-95.42 703.63,-96.43 704.85,-97.44 706.07,-98.45 707.30,-99.47 708.52,-100.49 709.74,-101.51 710.96,-102.52 712.17,-103.54 713.37,-104.56 714.58,-105.57 715.78,-106.60 716.98,-107.62 718.18,-108.65 719.38,-109.68 720.57,-110.71 721.75,-111.74 722.93,-112.78 724.10,-113.82 725.26,-114.87 726.42,-115.93 727.57,-116.99 728.71,-118.06 729.83,-119.14 730.94,-120.23 732.04,-121.34 733.12,-122.46 734.19,-123.59 735.24,-124.74 736.26,-125.90 737.27,-127.08 738.25,-128.28 739.21,-129.49 740.15,-130.73 741.05,-131.98 741.93,-133.25 742.77,-134.54 743.59,-135.85 744.37,-137.18 745.11,-138.52 745.82,-139.89 746.49,-141.27 747.11,-142.66 747.69,-144.07 748.23,-145.50 748.71,-146.94 749.14,-148.40 749.52,-149.86 749.85,-151.34 750.11,-152.83 750.32,-154.33 750.46,-155.82 750.53,-157.32 750.54,-158.81 750.49,-160.30 750.36,-161.78 750.17,-163.25 749.91,-164.71 749.58,-166.16 749.18,-167.58 748.71,-168.98 748.18,-170.35 747.57,-171.70 746.91,-173.02 746.18,-174.30 745.39,-175.54 744.53,-176.75 743.62,-177.91 742.65,-179.04 741.64,-180.11 740.57,-181.15 739.45,-182.14 738.29,-183.08 737.09,-183.97 735.85,-184.82 734.57,-185.62 733.27,-186.37 731.92,-187.08 730.56,-187.75 729.17,-188.37 727.76,-188.94 726.33,-189.48 724.88,-189.98 723.42,-190.43 721.95,-190.85 720.47,-191.24 718.98,-191.59 717.48,-191.91 715.98,-192.20 714.47,-192.46 712.95,-192.69 711.43,-192.89 709.90,-193.07 708.36,-193.23 706.83,-193.36 705.29,-193.47 703.75,-193.55 702.21,-193.62 700.66,-193.66 699.11,-193.69 697.56,-193.70 696.01,-193.69 694.46,-193.67 692.90,-193.63 691.35,-193.57 689.79,-193.50 688.23,-193.42 686.68,-193.32 685.13,-193.22 683.58,-193.10 682.03,-192.97 680.48,-192.83 678.94,-192.68 677.38,-192.52 675.83,-192.35 674.28,-192.17 672.73,-191.99 671.18,-191.80 669.64,-191.61 668.09,-191.41 666.55,-191.21 665.00,-191.00 663.46,-190.79 661.92,-190.58 660.37,-190.37 658.81,-190.15 657.25,-189.93 655.69,-189.72 654.13,-189.50 652.57,-189.28 651.02,-189.06 649.47,-188.84 647.93,-188.62 646.38,-188.40 644.84,-188.18 643.28,-187.96 641.73,-187.73 640.18,-187.51 638.62,-187.28 637.06,-187.06 635.50,-186.83 633.94,-186.60 632.37,-186.38 630.81,-186.15 629.25,-185.92 627.69,-185.69 626.13,-185.47 624.58,-185.24 623.02,-185.01 621.46,-184.78 619.90,-184.55 618.35,-184.33 616.79,-184.10 615.24,-183.87 613.69,-183.65 612.14,-183.42 610.59,-183.20 609.04,-182.97 607.49,-182.75 605.94,-182.53 604.40,-182.30 602.85,-182.08 601.29,-181.86 599.73,-181.63 598.16,-181.40 596.58,-181.18 594.99,-180.95 593.40,-180.72 591.81,-180.50 590.23,-180.27 588.65,-180.05 587.07,-179.82 585.49,-179.60 583.92,-179.37 582.35,-179.15 580.79,-178.93 579.23,-178.71 577.67,-178.48 576.12,-178.26 574.57,-178.04 573.03,-177.83 571.49,-177.61 569.95,-177.39 568.42,-177.17 566.90,-176.96 565.37,-176.74 563.83,-176.52 562.30,-176.30 560.76,-176.09 559.22,-175.87 557.67,-175.65 556.13,-175.43 554.58,-175.21 553.04,-174.99 551.49,-174.77 549.94,-174.55 548.39,-174.33 546.83,-174.12 545.28,-173.90 543.72,-173.68 542.17,-173.46 540.61,-173.24 539.05,-173.02 537.49,-172.80 535.93,-172.58 534.36,-172.36 532.79,-172.14 531.22,-171.92 529.64,-171.70 528.06,-171.48 526.47,-171.26 524.88,-171.04 523.29,-170.82 521.69,-170.60 520.09,-170.37 518.49,-170.15 516.88,-169.93 515.27,-169.71 513.65,-169.49 512.03,-169.26 510.41,-169.04 508.78,-168.82 507.15,-168.60 505.51,-168.38 503.87,-168.15 502.23,-167.93 500.60,-167.71 498.97,-167.49 497.35,-167.27 495.73,-167.06 494.13,-166.84 492.53,-166.63 490.94,-166.42 489.36,-166.21 487.78,-166.00 486.21,-165.79 484.65,-165.59 483.10,-165.38 481.56,-165.18 480.02,-164.98 478.50,-164.78 476.98,-164.58 475.47,-164.39 473.95,-164.19 472.44,-164.00 470.92,-163.80 469.40,-163.61 467.87,-163.42 466.35,-163.22 464.82,-163.03 463.29,-162.84 461.75,-162.65 460.22,-162.46 458.68,-162.27 457.13,-162.08 455.59,-161.89 454.04,-161.70 452.49,-161.52 450.94,-161.33 449.39,-161.15 447.83,-160.97 446.27,-160.79 444.71,-160.61 443.14,-160.44 441.57,-160.26 440.00,-160.09 438.43,-159.92 436.85,-159.76 435.27,-159.59 433.69,-159.43 432.11,-159.27 430.53,-159.11 428.94,-158.96 427.35,-158.80 425.75,-158.65 424.16,-158.51 422.56,-158.36 420.96,-158.22 419.36,-158.08 417.75,-157.95 416.14,-157.82 414.53,-157.69 412.92,-157.57 411.31,-157.46 409.69,-157.34 408.08,-157.23 406.46,-157.13 404.84,-157.03 403.22,-156.94 401.61,-156.86 399.99,-156.78 398.37,-156.70 396.76,-156.63 395.14,-156.57 393.53,-156.52 391.91,-156.47 390.30,-156.43 388.68,-156.40 387.07,-156.37 385.46,-156.35 383.84,-156.34 382.23,-156.33 380.62,-156.34 379.00,-156.35 377.39,-156.37 375.77,-156.39 374.15,-156.42 372.53,-156.46 370.91,-156.51 369.29,-156.56 367.66,-156.62 366.04,-156.69 364.41,-156.76 362.78,-156.84 361.15,-156.92 359.52,-157.02 357.89,-157.12 356.26,-157.22 354.63,-157.33 352.99,-157.45 351.35,-157.58 349.72,-157.71 348.08,-157.84 346.44,-157.98 344.80,-158.13 343.15,-158.28 341.51,-158.44 339.87,-158.61 338.22,-158.78 336.57,-158.95 334.92,-159.13 333.28,-159.31 331.62,-159.50 329.97,-159.70 328.32,-159.90 326.66,-160.10 325.01,-160.31 323.35,-160.53 321.69,-160.75 320.03,-160.97 318.37,-161.20 316.71,-161.43 315.05,-161.66 313.38,-161.90 311.71,-162.15 310.05,-162.39 308.38,-162.65 306.71,-162.90 305.04,-163.16 303.36,-163.42 301.69,-163.68 300.01,-163.95 298.34,-164.22 296.67,-164.49 295.01,-164.76 293.37,-165.03 291.74,-165.30 290.11,-165.57 288.50,-165.84 286.90,-166.12 285.32,-166.39 283.74,-166.66 282.17,-166.94 280.62,-167.21 279.08,-167.49 277.54,-167.77 276.02,-168.04 274.52,-168.32 273.02,-168.60 271.53,-168.88 270.02,-169.16 268.51,-169.45 266.98,-169.74 265.45,-170.04 263.91,-170.33 262.36,-170.63 260.81,-170.94 259.26,-171.24 257.70,-171.55 256.13,-171.86 254.57,-172.17 253.00,-172.47 251.43,-172.78 249.86,-173.09 248.29,-173.40 246.70,-173.72 245.12,-174.03 243.53,-174.34 241.96,-174.65 240.39,-174.95 238.82,-175.26 237.26,-175.56 235.70,-175.86 234.15,-176.16 232.60,-176.45 231.05,-176.74 229.49,-177.04 227.93,-177.33 226.36,-177.62 224.79,-177.91 223.21,-178.19 221.64,-178.48 220.08,-178.76 218.52,-179.04 216.97,-179.31 215.42,-179.58 213.88,-179.84 212.33,-180.10 210.78,-180.36 209.23,-180.62 207.66,-180.86 206.10,-181.11 204.54,-181.34 202.98,-181.56 201.43,-181.78 199.88,-181.98 198.33,-182.17 196.79,-182.35 195.24,-182.51 193.69,-182.66 192.13,-182.79 190.57,-182.90 189.00,-183.00 187.43,-183.07 185.86,-183.12 184.29,-183.15 182.73,-183.16 181.17,-183.14 179.61,-183.10 178.06,-183.03 176.51,-182.93 174.96,-182.81 173.42,-182.66 171.87,-182.48 170.34,-182.28 168.81,-182.04 167.30,-181.78 165.79,-181.49 164.29,-181.16 162.79,-180.80 161.30,-180.41 159.81,-179.99 158.33,-179.53 156.86,-179.04 155.39,-178.52 153.93,-177.97 152.48,-177.39 151.05,-176.78 149.62,-176.15 148.21,-175.48 146.81,-174.79 145.43,-174.08 144.05,-173.34 142.68,-172.57 141.33,-171.78 140.00,-170.97 138.68,-170.13 137.38,-169.28 136.10,-168.40 134.83,-167.51 133.58,-166.59 132.34,-165.66 131.12,-164.70 129.91,-163.73 128.71,-162.73 127.52,-161.71 126.34,-160.67 125.18,-159.61 124.04,-158.54 122.92,-157.45 121.81,-156.34 120.72,-155.22 119.65,-154.08 118.60,-152.93 117.56,-151.77 116.54,-150.59 115.54,-149.39 114.56,-148.18 113.60,-146.96 112.65,-145.73 111.72,-144.48 110.81,-143.22 109.92,-141.95 109.04,-140.67 108.17,-139.37 107.31,-138.05 106.46,-136.72 105.62,-135.37 104.80,-134.01 103.99,-132.65 103.19,-131.28 102.41,-129.91 101.64,-128.53 100.88,-127.15 100.14,-125.76 99.41,-124.37 98.69,-122.97 97.99,-121.57 97.30,-120.16 96.63,-118.75 95.97,-117.33 95.32,-115.92 94.68,-114.49 94.06,-113.07 93.45,-111.64 92.84,-110.21 92.25,-108.76 91.66,-107.30 91.09,-105.84 90.52,-104.36 89.96,-102.87 89.41,-101.38 88.86,-99.87 88.33,-98.36 87.80,-96.83 87.28,-95.31 86.77,-93.79 86.28,-92.27 85.79,-90.74 85.32,-89.22 84.86,-87.70 84.41,-86.19 83.97,-84.67 83.54,-83.15 83.13,-81.64 82.72,-80.13 82.33,-78.61 81.95,-77.10 81.59,-75.60 81.23,-74.09 80.89,-72.59 80.56,-71.09 80.25,-69.58 79.94,-68.07 79.64,-66.55 79.35,-65.02 79.07,-63.49 78.80,-61.95 78.55,-60.41 78.30,-58.86 78.06,-57.31 77.84,-55.74 77.62,-54.18 77.42,-52.60 77.23,-51.03 77.04,-49.44 76.87,-47.85 76.71,-46.26 76.57,-44.66 76.43,-43.06 76.30,-41.45 76.19,-39.83 76.09,-38.22 76.00,-36.59 75.92,-34.96 75.85,-33.33 75.79,-31.70 75.75,-30.05 75.72,-28.41 75.69,-26.76 75.68,-25.10 75.69,-23.46 75.70,-21.82 75.72,-20.18 75.75,-18.56 75.80,-16.94 75.85,-15.33 75.91,-13.73 75.98,-12.14 76.06,-10.55 76.15,-8.97 76.25,-7.40 76.36,-5.84 76.47,-4.29 76.60,-2.74 76.73,-1.20 76.86,0.32 77.01,1.84 77.16,3.36 77.32,4.89 77.49,6.41 77.66,7.94 77.85,9.47 78.04,11.00 78.24,12.54 78.44,14.07 78.66,15.61 78.88,17.15 79.11,18.69 79.35,20.23 79.60,21.78 79.86,23.33 80.12,24.88 80.39,26.43 80.67,27.98 80.96,29.53 81.25,31.09 81.55,32.65 81.85,34.21 82.16,35.77 82.48,37.33 82.80,38.90 83.12,40.47 83.45,42.04 83.78,43.61 84.11,45.19 84.45,46.77 84.79,48.35 85.13,49.93 85.47,51.51 85.82,53.10 86.17,54.69 86.52,56.28 86.87,57.88 87.22,59.48 87.58,61.08 87.94,62.68 88.30,64.28 88.67,65.89 89.03,67.50 89.40,69.11 89.78,70.72 90.15,72.33 90.53,73.95 90.91,75.56 91.30,77.18 91.68,78.80 92.07,80.41 92.46,82.02 92.86,83.63 93.25,85.24 93.65,86.84 94.04,88.43 94.44,90.02 94.83,91.59 95.23,93.16 95.62,94.73 96.02,96.30 96.41,97.86 96.81,99.42 97.20,100.98 97.59,102.53 97.99,104.08 98.38,105.62 98.76,107.15 99.15,108.68 99.53,110.21 99.92,111.74 100.30,113.27 100.69,114.81 101.07,116.35 101.45,117.89 101.84,119.43 102.22,120.96 102.60,122.50 102.98,124.03 103.35,125.56 103.73,127.09 104.10,128.61 104.47,130.14 104.84,131.67 105.21,133.21 105.58,134.74 105.94,136.27 106.31,137.80 106.67,139.33 107.03,140.85 107.38,142.38 107.74,143.90 108.09,145.43 108.44,146.96 108.79,148.48 109.13,150.01 109.47,151.53 109.81,153.06 110.15,154.59 110.48,156.11 110.81,157.63 111.13,159.16 111.45,160.68 111.77,162.21 112.07,163.74 112.37,165.26 112.66,166.79 112.94,168.32 113.21,169.85 113.46,171.38 113.70,172.92 113.92,174.45 114.12,175.98 114.29,177.51 114.45,179.04 114.57,180.58 114.68,182.11 114.75,183.64 114.78,185.18 114.78,186.71 114.74,188.24 114.65,189.77 114.52,191.29 114.34,192.80 114.12,194.30 113.84,195.78 113.50,197.25 113.12,198.70 112.68,200.14 112.20,201.56 111.67,202.96 111.09,204.35 110.48,205.72 109.84,207.09 109.18,208.44 108.49,209.79 107.80,211.13 107.10,212.47 106.41,213.82 105.72,215.17 105.06,216.52 104.43,217.89 103.83,219.27 103.26,220.66 102.74,222.07 102.27,223.50 101.85,224.95 101.48,226.41 101.15,227.89 100.88,229.38 100.65,230.88 100.46,232.40 100.32,233.92 100.22,235.45 100.14,236.99 100.10,238.52 100.08,240.07 100.07,241.61 100.08,243.16 100.09,244.70 100.11,246.25 100.13,247.79 100.14,249.34 100.13,250.88 100.12,252.42 100.08,253.97 100.01,255.52 99.93,257.06 99.81,258.59 99.66,260.12 99.47,261.65 99.25,263.17 98.99,264.69 98.69,266.20 98.35,267.71 97.98,269.21 97.56,270.70 97.10,272.18 96.61,273.65 96.07,275.11 95.49,276.56 94.88,277.99 94.22,279.40 93.53,280.79 92.81,282.17 92.05,283.52 91.26,284.86 90.43,286.18 89.58,287.47 88.69,288.75 87.77,290.00 86.82,291.22 85.84,292.42 84.84,293.60 83.81,294.75 82.76,295.87 81.68,296.97 80.59,298.04 79.47,299.09 78.33,300.12 77.16,301.12 75.97,302.10 74.76,303.05 73.53,303.98 72.28,304.88 71.01,305.76 69.72,306.60 68.41,307.42 67.09,308.20 65.75,308.96 64.38,309.68 63.00,310.38 61.59,311.04 60.17,311.68 58.73,312.27 57.27,312.84 55.80,313.37 54.32,313.86 52.82,314.32 51.32,314.74 49.82,315.13 48.30,315.48 46.78,315.79 45.25,316.07 43.72,316.31 42.19,316.52 40.65,316.70 39.11,316.83 37.57,316.94 36.02,317.01 34.48,317.05 32.93,317.05 31.39,317.03 29.84,316.97 28.29,316.88 26.75,316.76 25.20,316.61 23.66,316.43 22.12,316.23 20.58,316.00 19.05,315.74 17.51,315.46 15.99,315.15 14.46,314.82 12.94,314.47 11.42,314.09 9.90,313.70 8.38,313.28 6.88,312.84 5.38,312.39 3.90,311.93 2.42,311.45 0.94,310.97 -0.53,310.47 -2.01,309.96 -3.48,309.44 -4.95,308.91 -6.42,308.38 -7.90,307.84 -9.37,307.29 -10.84,306.74 -12.31,306.18 -13.78,305.63 -15.25,305.07 -16.72,304.51 -18.19,303.95 -19.67,303.39 -21.14,302.82 -22.61,302.26 -24.08,301.70 -25.54,301.14 -27.01,300.58 -28.48,300.02 -29.95,299.47 -31.41,298.91 -32.88,298.36 -34.34,297.81 -35.81,297.26 -37.27,296.71 -38.73,296.17 -40.19,295.63 -41.65,295.10 -43.12,294.56 -44.60,294.03 -46.08,293.49 -47.57,292.96 -49.07,292.43 -50.57,291.91 -52.08,291.38 -53.61,290.87 -55.14,290.35 -56.66,289.84 -58.19,289.35 -59.72,288.85 -61.24,288.37 -62.76,287.90 -64.28,287.44 -65.80,286.99 -67.32,286.55 -68.84,286.12 -70.36,285.70 -71.87,285.30 -73.38,284.90 -74.89,284.52 -76.39,284.16 -77.89,283.80 -79.39,283.46 -80.88,283.14 -82.37,282.82 -83.87,282.52 -85.37,282.23 -86.87,281.95 -88.38,281.68 -89.89,281.42 -91.40,281.17 -92.92,280.93 -94.44,280.70 -95.96,280.49 -97.48,280.28 -99.01,280.09 -100.54,279.90 -102.07,279.73 -103.61,279.56 -105.15,279.41 -106.70,279.26 -108.25,279.12 -109.80,278.99 -111.36,278.86 -112.93,278.75 -114.50,278.64 -116.07,278.54 -117.65,278.45 -119.23,278.36 -120.81,278.28 -122.40,278.21 -124.00,278.14 -125.60,278.08 -127.20,278.02 -128.80,277.97 -130.42,277.92 -132.03,277.88 -133.65,277.85 -135.27,277.81 -136.90,277.79 -138.53,277.76 -140.16,277.74 -141.80,277.73 -143.44,277.71 -145.09,277.70 -146.74,277.70 -148.39,277.70 -150.04,277.70 -151.68,277.70 -153.31,277.70 -154.93,277.71 -156.55,277.72 -158.16,277.73 -159.76,277.74 -161.36,277.76 -162.94,277.78 -164.52,277.79 -166.09,277.81 -167.65,277.83 -169.21,277.85 -170.76,277.87 -172.29,277.89 -173.82,277.91 -175.35,277.93 -176.87,277.95 -178.40,277.98 -179.93,278.00 -181.47,278.02 -183.00,278.05 -184.54,278.07 -186.09,278.10 -187.63,278.12 -189.18,278.15 -190.73,278.17 -192.28,278.20 -193.84,278.22 -195.40,278.25 -196.96,278.28 -198.52,278.31 -200.09,278.34 -201.66,278.37 -203.23,278.40 -204.81,278.43 -206.38,278.46 -207.96,278.49 -209.55,278.52 -211.13,278.55 -212.72,278.59 -214.31,278.62 -215.90,278.65 -217.50,278.69 -219.09,278.73 -220.69,278.76 -222.30,278.80 -223.90,278.84 -225.51,278.87 -227.12,278.91 -228.73,278.95 -230.34,278.99 -231.96,279.03 -233.58,279.07 -235.20,279.11 -236.82,279.15 -238.45,279.19 -240.08,279.23 -241.70,279.27 -243.33,279.31 -244.97,279.35 -246.60,279.39 -248.23,279.43 -249.86,279.48 -251.49,279.52 -253.12,279.56 -254.75,279.60 -256.38,279.64 -258.01,279.69 -259.64,279.73 -261.26,279.77 -262.89,279.81 -264.52,279.86 -266.15,279.90 -267.77,279.94 -269.40,279.99 -271.03,280.03 -272.66,280.08 -274.29,280.12 -275.92,280.17 -277.55,280.21 -279.18,280.26 -280.82,280.31 -282.46,280.35 -284.10,280.40 -285.74,280.45 -287.39,280.50 -289.03,280.54 -290.68,280.59 -292.33,280.64 -293.98,280.69 -295.63,280.74 -297.29,280.79 -298.95,280.84 -300.60,280.89 -302.26,280.94 -303.93,280.99 -305.59,281.03 -307.26,281.08 -308.93,281.13 -310.60,281.18 -312.27,281.22 -313.94,281.27 -315.62,281.31 -317.29,281.36 -318.97,281.40 -320.65,281.45 -322.33,281.49 -324.01,281.53 -325.68,281.57 -327.36,281.61 -329.03,281.64 -330.69,281.68 -332.35,281.72 -334.01,281.75 -335.65,281.79 -337.29,281.82 -338.92,281.86 -340.54,281.89 -342.16,281.92 -343.77,281.95 -345.39,281.98 -347.00,282.01 -348.60,282.04 -350.21,282.07 -351.80,282.10 -353.40,282.13 -354.98,282.15 -356.56,282.18 -358.15,282.21 -359.73,282.23 -361.32,282.26 -362.91,282.29 -364.51,282.31 -366.10,282.34 -367.70,282.36 -369.28,282.39 -370.86,282.41 -372.44,282.43 -374.02,282.45 -375.59,282.48 -377.16,282.50 -378.73,282.52 -380.30,282.54 -381.87,282.56 -383.45,282.58 -385.02,282.59 -386.59,282.61 -388.16,282.62 -389.72,282.64 -391.28,282.65 -392.84,282.67 -394.41,282.68 -395.98,282.69 -397.54,282.70 -399.10,282.71 -400.66,282.72 -402.22,282.73 -403.78,282.73 -405.34,282.74 -406.89,282.75 -408.45,282.75 -410.00,282.75 -411.56,282.74 -413.11,282.72 -414.65,282.69 -416.20,282.64 -417.75,282.58 -419.30,282.50 -420.84,282.39 -422.37,282.26 -423.90,282.10 -425.43,281.91 -426.94,281.68 -428.45,281.41 -429.95,281.09 -431.43,280.74 -432.90,280.33 -434.34,279.88 -435.77,279.37 -437.18,278.82 -438.57,278.21 -439.94,277.55 -441.29,276.85 -442.62,276.10 -443.93,275.32 -445.23,274.51 -446.52,273.68 -447.80,272.83 -449.07,271.97 -450.34,271.10 -451.61,270.25 -452.89,269.40 -454.18,268.57 -455.48,267.76 -456.80,266.98 -458.14,266.24 -459.49,265.55 -460.86,264.91 -462.26,264.32 -463.67,263.79 -465.10,263.32 -466.55,262.91 -468.02,262.55 -469.51,262.25 -471.00,262.00 -472.51,261.81 -474.03,261.67 -475.56,261.58 -477.08,261.53 -478.61,261.53 -480.15,261.57 -481.68,261.65 -483.21,261.76 -484.74,261.90 -486.26,262.07 -487.79,262.27 -489.32,262.49 -490.84,262.73 -492.36,262.99 -493.88,263.28 -495.40,263.58 -496.91,263.89 -498.41,264.22 -499.92,264.56 -501.42,264.92 -502.92,265.29 -504.42,265.67 -505.91,266.07 -507.40,266.47 -508.89,266.89 -510.38,267.32 -511.86,267.76 -513.35,268.20 -514.83,268.66 -516.32,269.12 -517.80,269.59 -519.28,270.06 -520.75,270.54 -522.23,271.02 -523.70,271.51 -525.18,272.00 -526.66,272.50 -528.14,273.00 -529.62,273.50 -531.09,274.01 -532.57,274.52 -534.04,275.03 -535.51,275.54 -536.98,276.05 -538.45,276.56 -539.92,277.08 -541.39,277.60 -542.87,278.12 -544.35,278.64 -545.83,279.17 -547.31,279.70 -548.78,280.22 -550.25,280.75 -551.72,281.27 -553.18,281.80 -554.65,282.33 -556.11,282.85 -557.58,283.39 -559.06,283.92 -560.53,284.45 -562.01,284.99 -563.49,285.53 -564.97,286.07 -566.45,286.61 -567.94,287.16 -569.41,287.70 -570.89,288.25 -572.37,288.80 -573.84,289.34 -575.32,289.90 -576.79,290.45 -578.27,291.01 -579.74,291.56 -581.21,292.13 -582.68,292.69 -584.15,293.26 -585.62,293.82 -587.08,294.40 -588.54,294.97 -590.00,295.55 -591.46,296.13 -592.91,296.71 -594.37,297.30 -595.84,297.89 -597.31,298.49 -598.78,299.10 -600.26,299.71 -601.75,300.33 -603.23,300.95 -604.71,301.58 -606.18,302.21 -607.65,302.84 -609.11,303.47 -610.57,304.10 -612.02,304.74 -613.47,305.38 -614.91,306.03 -616.35,306.68 -617.78,307.33 -619.20,307.98 -620.62,308.64 -622.03,309.30 -623.43,309.96 -624.82,310.62 -626.20,311.29 -627.58,311.96 -628.96,312.64 -630.34,313.33 -631.71,314.02 -633.09,314.72 -634.46,315.42 -635.83,316.13 -637.20,316.85 -638.57,317.58 -639.94,318.31 -641.31,319.05 -642.67,319.79 -644.03,320.54 -645.40,321.30 -646.76,322.07 -648.12,322.84 -649.48,323.62 -650.85,324.41 -652.21,325.21 -653.58,326.01 -654.94,326.82 -656.31,327.63 -657.68,328.46 -659.05,329.29 -660.42,330.12 -661.79,330.97 -663.16,331.82 -664.53,332.67 -665.90,333.54 -667.27,334.41 -668.64,335.28 -670.02,336.16 -671.39,337.05 -672.77,337.95 -674.14,338.85 -675.52,339.76 -676.89,340.68 -678.26,341.59 -679.61,342.51 -680.96,343.43 -682.30,344.35 -683.63,345.27 -684.95,346.18 -686.26,347.10 -687.57,348.02 -688.86,348.93 -690.15,349.85 -691.43,350.76 -692.70,351.67 -693.97,352.58 -695.22,353.49 -696.47,354.39 -697.71,355.29 -698.95,356.19 -700.18,357.09 -701.42,357.99 -702.66,358.89 -703.90,359.80 -705.15,360.71 -706.39,361.62 -707.64,362.53 -708.89,363.45 -710.14,364.37 -711.40,365.29 -712.65,366.22 -713.91,367.15 -715.16,368.08 -716.42,369.02 -717.68,369.96 -718.93,370.90 -720.19,371.85 -721.45,372.81 -722.71,373.77 -723.97,374.73 -725.23,375.70 -726.49,376.67 -727.74,377.65 -729.00,378.63 -730.26,379.62 -731.51,380.61 -732.77,381.61 -734.02,382.61 -735.27,383.61 -736.53,384.62 -737.77,385.64 -739.02,386.66 -740.26,387.68 -741.50,388.70 -742.74,389.73 -743.98,390.77 -745.21,391.80 -746.44,392.84 -747.66,393.88 -748.89,394.93 -750.11,395.98 -751.33,397.03 -752.54,398.08 -753.75,399.14 -754.96,400.21 -756.16,401.27 -757.37,402.35 -758.57,403.42 -759.77,404.50 -760.97,405.58 -762.16,406.67 -763.36,407.77 -764.55,408.86 -765.75,409.96 -766.94,411.07 -768.13,412.18 -769.32,413.29 -770.51,414.41 -771.70,415.53 -772.89,416.66 -774.08,417.79 -775.26,418.92 -776.45,420.06 -777.63,421.20 -778.82,422.34 -780.00,423.49 -781.19,424.64 -782.37,425.79 -783.56,426.95 -784.74,428.11 -785.92,429.27 -787.11,430.43 -788.29,431.60 -789.48,432.77 -790.66,433.94 -791.85,435.12 -793.04,436.29 -794.22,437.47 -795.41,438.66 -796.60,439.84 -797.79,441.03 -798.98,442.21 -800.17,443.40 -801.36,444.59 -802.55,445.79 -803.75,446.98 -804.94,448.18 -806.14,449.38 -807.34,450.58 -808.53,451.78 -809.72,452.98 -810.91,454.17 -812.08,455.35 -813.25,456.52 -814.40,457.69 -815.55,458.85 -816.70,460.00 -817.83,461.15 -818.96,462.29 -820.07,463.42 -821.18,464.54 -822.28,465.66 -823.38,466.76 -824.46,467.87 -825.54,468.96 -826.61,470.04 -827.67,471.12 -828.74,472.20 -829.80,473.28 -830.86,474.36 -831.93,475.44 -832.99,476.52 -834.06,477.61 -835.13,478.69 -836.20,479.78 -837.27,480.87 -838.34,481.96 -839.41,483.05 -840.48,484.14 -841.56,485.23 -842.63,486.32 -843.71,487.41 -844.78,488.51 -845.86,489.61 -846.94,490.70 -848.02,491.80 -849.10,492.90 -850.18,494.00 -851.27,495.09 -852.35,496.19 -853.44,497.29 -854.53,498.39 -855.62,499.49 -856.71,500.59 -857.81,501.69 -858.91,502.79 -860.01,503.89 -861.11,504.99 -862.21,506.08 -863.32,507.18 -864.43,508.27 -865.55,509.36 -866.67,510.45 -867.79,511.53 -868.92,512.62 -870.05,513.70 -871.18,514.78 -872.32,515.85 -873.46,516.92 -874.61,517.99 -875.77,519.05 -876.93,520.11 -878.09,521.17 -879.26,522.22 -880.43,523.27 -881.61,524.31 -882.79,525.35 -883.98,526.39 -885.18,527.42 -886.38,528.45 -887.58,529.47 -888.79,530.49 -890.00,531.50 -891.22,532.51 -892.45,533.51 -893.68,534.51 -894.91,535.50 -896.15,536.49 -897.40,537.47 -898.65,538.44 -899.90,539.41 -901.16,540.37 -902.43,541.32 -903.69,542.26 -904.97,543.19 -906.24,544.12 -907.53,545.04 -908.81,545.95 -910.10,546.85 -911.40,547.74 -912.70,548.62 -914.00,549.49 -915.31,550.35 -916.63,551.20 -917.95,552.05 -919.27,552.88 -920.60,553.71 -921.94,554.53 -923.28,555.34 -924.62,556.14 -925.97,556.94 -927.33,557.73 -928.68,558.51 -930.05,559.28 -931.42,560.05 -932.79,560.81 -934.17,561.56 -935.55,562.31 -936.94,563.05 -938.33,563.78 -939.73,564.51 -941.13,565.23 -942.54,565.94 -943.95,566.65 -945.36,567.34 -946.78,568.03 -948.20,568.72 -949.63,569.39 -951.06,570.06 -952.50,570.72 -953.94,571.38 -955.38,572.02 -956.83,572.66 -958.28,573.29 -959.74,573.91 -961.20,574.53 -962.67,575.13 -964.14,575.73 -965.61,576.33 -967.08,576.91 -968.56,577.49 -970.04,578.06 -971.53,578.63 -973.01,579.19 -974.50,579.75 -975.99,580.30 -977.48,580.84 -978.96,581.38 -980.45,581.92 -981.93,582.45 -983.41,582.98 -984.89,583.51 -986.38,584.04 -987.88,584.57 -989.38,585.10 -990.88,585.63 -992.38,586.16 -993.89,586.69 -995.39,587.22 -996.90,587.75 -998.40,588.28 -999.90,588.81 -1001.40,589.34 -1002.89,589.86 -1004.39,590.39 -1005.90,590.92 -1007.41,591.45 -1008.93,591.98 -1010.44,592.51 -1011.95,593.04 -1013.44,593.57 -1014.93,594.09 -1016.42,594.61 -1017.91,595.13 -1019.40,595.65 -1020.90,596.18 -1022.39,596.70 -1023.88,597.22 -1025.37,597.75 -1026.86,598.27 -1028.36,598.79 -1029.86,599.32 -1031.35,599.84 -1032.84,600.36 -1034.32,600.88 -1035.80,601.40 -1037.29,601.92 -1038.77,602.44 -1040.26,602.96 -1041.75,603.48 -1043.22,603.99 -1044.70,604.51 -1046.17,605.03 -1047.65,605.54 -1049.12,606.06 -1050.59,606.57 -1052.07,607.09 -1053.54,607.60 -1055.01,608.11 -1056.48,608.63 -1057.95,609.14 -1059.41,609.65 -1060.88,610.17 -1062.35,610.68 -1063.81,611.19 -1065.27,611.70 -1066.73,612.21 -1068.20,612.72 -1069.65,613.24 -1071.10,613.76 -1072.55,614.28 -1074.00,614.81 -1075.44,615.36 -1076.88,615.91 -1078.32,616.47 -1079.74,617.05 -1081.15,617.65 -1082.56,618.27 -1083.95,618.91 -1085.32,619.57 -1086.68,620.26 -1088.02,620.99 -1089.35,621.74 -1090.64,622.54 -1091.91,623.37 -1093.16,624.24 -1094.36,625.15 -1095.53,626.10 -1096.65,627.09 -1097.73,628.13 -1098.76,629.21 -1099.73,630.32 -1100.65,631.48 -1101.51,632.68 -1102.31,633.92 -1103.04,635.19 -1103.70,636.50 -1104.30,637.85 -1104.82,639.22 -1105.27,640.62 -1105.65,642.04 -1105.96,643.48 -1106.20,644.94 -1106.38,646.41 -1106.50,647.89 -1106.55,649.39 -1106.55,650.89 -1106.50,652.40 -1106.40,653.91 -1106.25,655.42 -1106.06,656.94 -1105.84,658.45 -1105.58,659.97 -1105.30,661.48 -1104.98,662.98 -1104.64,664.49 -1104.29,665.99 -1103.91,667.49 -1103.52,668.98 -1103.11,670.47 -1102.68,671.96 -1102.25,673.44 -1101.80,674.92 -1101.34,676.40 -1100.87,677.88 -1100.40,679.36 -1099.91,680.83 -1099.42,682.30 -1098.92,683.76 -1098.41,685.23 -1097.90,686.70 -1097.38,688.17 -1096.86,689.63 -1096.34,691.09 -1095.81,692.56 -1095.28,694.02 -1094.74,695.48 -1094.21,696.95 -1093.66,698.42 -1093.12,699.88 -1092.57,701.34 -1092.02,702.79 -1091.47,704.24 -1090.90,705.69 -1090.33,707.14 -1089.75,708.58 -1089.15,710.00 -1088.55,711.42 -1087.93,712.84 -1087.29,714.25 -1086.63,715.65 -1085.95,717.04 -1085.25,718.43 -1084.53,719.79 -1083.78,721.15 -1083.01,722.48 -1082.21,723.81 -1081.39,725.12 -1080.54,726.40 -1079.66,727.67 -1078.75,728.92 -1077.82,730.15 -1076.86,731.36 -1075.87,732.54 -1074.86,733.70 -1073.82,734.83 -1072.76,735.94 -1071.68,737.01 -1070.57,738.06 -1069.44,739.07 -1068.29,740.06 -1067.12,741.01 -1065.92,741.94 -1064.71,742.84 -1063.47,743.71 -1062.22,744.56 -1060.94,745.37 -1059.65,746.16 -1058.33,746.91 -1056.99,747.64 -1055.64,748.35 -1054.26,749.02 -1052.87,749.66 -1051.46,750.28 -1050.04,750.87 -1048.61,751.43 -1047.16,751.96 -1045.71,752.46 -1044.24,752.93 -1042.76,753.37 -1041.27,753.79 -1039.78,754.17 -1038.27,754.52 -1036.75,754.85 -1035.23,755.15 -1033.70,755.41 -1032.16,755.65 -1030.62,755.86 -1029.07,756.04 -1027.53,756.19 -1025.99,756.32 -1024.44,756.42 -1022.89,756.49 -1021.33,756.54 -1019.77,756.56 -1018.21,756.56 -1016.65,756.54 -1015.09,756.48 -1013.52,756.41 -1011.96,756.31 -1010.39,756.18 -1008.83,756.03 -1007.27,755.86 -1005.72,755.66 -1004.17,755.45 -1002.63,755.21 -1001.10,754.95 -999.56,754.67 -998.03,754.37 -996.50,754.05 -994.97,753.71 -993.45,753.34 -991.93,752.96 -990.42,752.56 -988.91,752.14 -987.40,751.71 -985.90,751.26 -984.40,750.80 -982.90,750.33 -981.40,749.86 -979.90,749.37 -978.40,748.88 -976.91,748.38 -975.42,747.87 -973.93,747.37 -972.44,746.85 -970.96,746.34 -969.47,745.82 -967.99,745.31 -966.51,744.79 -965.03,744.26 -963.56,743.74 -962.08,743.21 -960.61,742.67 -959.14,742.14 -957.68,741.59 -956.22,741.04 -954.76,740.49 -953.29,739.92 -951.82,739.34 -950.34,738.75 -948.87,738.16 -947.39,737.55 -945.90,736.93 -944.42,736.31 -942.95,735.68 -941.49,735.04 -940.03,734.40 -938.57,733.76 -937.12,733.11 -935.68,732.46 -934.24,731.80 -932.81,731.14 -931.39,730.48 -929.97,729.82 -928.55,729.15 -927.14,728.49 -925.74,727.83 -924.34,727.16 -922.95,726.50 -921.56,725.85 -920.18,725.19 -918.79,724.53 -917.40,723.87 -916.01,723.21 -914.62,722.55 -913.22,721.88 -911.83,721.22 -910.43,720.56 -909.03,719.90 -907.63,719.24 -906.23,718.58 -904.82,717.91 -903.42,717.25 -902.01,716.59 -900.60,715.93 -899.18,715.27 -897.76,714.61 -896.34,713.94 -894.91,713.28 -893.48,712.62 -892.04,711.96 -890.60,711.30 -889.16,710.64 -887.71,709.98 -886.25,709.32 -884.79,708.66 -883.33,708.00 -881.86,707.35 -880.38,706.69 -878.91,706.04 -877.42,705.39 -875.93,704.74 -874.44,704.09 -872.94,703.44 -871.44,702.80 -869.93,702.15 -868.42,701.51 -866.90,700.87 -865.38,700.23 -863.85,699.59 -862.33,698.95 -860.82,698.32 -859.31,697.70 -857.81,697.08 -856.31,696.47 -854.82,695.86 -853.33,695.25 -851.85,694.65 -850.38,694.06 -848.92,693.47 -847.46,692.88 -846.01,692.30 -844.56,691.72 -843.13,691.14 -841.70,690.57 -840.27,690.01 -838.86,689.44 -837.44,688.88 -836.02,688.31 -834.59,687.74 -833.17,687.18 -831.74,686.61 -830.31,686.04 -828.87,685.47 -827.44,684.90 -826.00,684.32 -824.56,683.75 -823.11,683.18 -821.67,682.60 -820.22,682.02 -818.77,681.44 -817.31,680.86 -815.86,680.28 -814.40,679.70 -812.94,679.11 -811.47,678.53 -810.01,677.94 -808.54,677.36 -807.07,676.77 -805.60,676.18 -804.12,675.59 -802.65,675.00 -801.17,674.41 -799.69,673.82 -798.21,673.23 -796.72,672.63 -795.24,672.04 -793.76,671.45 -792.28,670.86 -790.81,670.28 -789.34,669.69 -787.87,669.11 -786.40,668.52 -784.93,667.94 -783.45,667.35 -781.98,666.77 -780.50,666.18 -779.02,665.60 -777.55,665.03 -776.07,664.45 -774.60,663.88 -773.13,663.32 -771.66,662.76 -770.19,662.21 -768.72,661.67 -767.25,661.13 -765.76,660.61 -764.27,660.09 -762.77,659.58 -761.26,659.08 -759.75,658.60 -758.24,658.13 -756.72,657.68 -755.20,657.25 -753.67,656.83 -752.13,656.44 -750.59,656.06 -749.04,655.70 -747.49,655.36 -745.93,655.04 -744.36,654.73 -742.79,654.45 -741.21,654.19 -739.63,653.95 -738.06,653.73 -736.49,653.53 -734.92,653.36 -733.36,653.21 -731.80,653.08 -730.24,652.97 -728.69,652.88 -727.15,652.81 -725.61,652.77 -724.06,652.75 -722.51,652.75 -720.96,652.77 -719.41,652.82 -717.85,652.89 -716.29,652.99 -714.73,653.11 -713.17,653.26 -711.60,653.43 -710.04,653.62 -708.47,653.84 -706.91,654.09 -705.34,654.36 -703.77,654.66 -702.19,654.98 -700.62,655.32 -699.04,655.69 -697.46,656.07 -695.89,656.46 -694.34,656.87 -692.79,657.29 -691.26,657.71 -689.73,658.14 -688.20,658.58 -686.69,659.01 -685.17,659.44 -683.66,659.87 -682.15,660.30 -680.65,660.71 -679.14,661.12 -677.64,661.52 -676.14,661.90 -674.64,662.28 -673.14,662.64 -671.64,662.98 -670.13,663.31 -668.61,663.64 -667.09,663.95 -665.56,664.24 -664.02,664.53 -662.47,664.80 -660.92,665.07 -659.35,665.32 -657.79,665.55 -656.21,665.78 -654.63,666.00 -653.04,666.20 -651.44,666.39 -649.84,666.57 -648.22,666.74 -646.62,666.90 -645.01,667.05 -643.41,667.18 -641.81,667.31 -640.22,667.43 -638.63,667.53 -637.05,667.63 -635.46,667.72 -633.89,667.80 -632.31,667.88 -630.75,667.94 -629.18,668.00 -627.62,668.06 -626.07,668.11 -624.52,668.15 -622.98,668.20 -621.44,668.23 -619.89,668.27 -618.35,668.30 -616.79,668.33 -615.24,668.35 -613.68,668.38 -612.11,668.40 -610.54,668.42 -608.97,668.43 -607.39,668.45 -605.81,668.46 -604.22,668.47 -602.63,668.48 -601.04,668.48 -599.44,668.48 -597.84,668.48 -596.23,668.48 -594.62,668.47 -593.01,668.46 -591.40,668.45 -589.79,668.44 -588.18,668.43 -586.58,668.41 -584.98,668.39 -583.38,668.37 -581.77,668.35 -580.17,668.33 -578.57,668.31 -576.97,668.28 -575.37,668.26 -573.79,668.23 -572.20,668.21 -570.61,668.18 -569.02,668.15 -567.44,668.13 -565.86,668.10 -564.28,668.07 -562.71,668.03 -561.13,668.00 -559.55,667.97 -557.97,667.94 -556.39,667.90 -554.83,667.87 -553.26,667.84 -551.69,667.80 -550.12,667.76 -548.56,667.73 -546.99,667.69 -545.42,667.65 -543.86,667.61 -542.30,667.57 -540.75,667.53 -539.19,667.49 -537.63,667.45 -536.07,667.40 -534.51,667.35 -532.96,667.30 -531.40,667.25 -529.85,667.19 -528.29,667.13 -526.73,667.06 -525.18,666.98 -523.64,666.90 -522.09,666.80 -520.54,666.69 -518.99,666.57 -517.46,666.43 -515.92,666.26 -514.39,666.08 -512.87,665.87 -511.35,665.63 -509.84,665.36 -508.35,665.05 -506.86,664.70 -505.39,664.31 -503.94,663.87 -502.51,663.39 -501.10,662.85 -499.72,662.26 -498.37,661.61 -497.06,660.90 -495.78,660.13 -494.54,659.31 -493.33,658.43 -492.17,657.49 -491.05,656.51 -489.96,655.48 -488.91,654.41 -487.88,653.30 -486.88,652.17 -485.89,651.01 -484.92,649.83 -483.95,648.65 -482.98,647.47 -482.01,646.29 -481.03,645.12 -480.02,643.98 -479.00,642.86 -477.95,641.78 -476.86,640.74 -475.74,639.74 -474.59,638.78 -473.39,637.88 -472.16,637.02 -470.89,636.21 -469.58,635.46 -468.25,634.76 -466.88,634.11 -465.50,633.51 -464.08,632.96 -462.65,632.47 -461.20,632.01 -459.74,631.60 -458.26,631.24 -456.76,630.91 -455.26,630.63 -453.75,630.38 -452.24,630.17 -450.71,630.00 -449.18,629.85 -447.65,629.75 -446.11,629.67 -444.57,629.62 -443.03,629.61 -441.48,629.62 -439.94,629.66 -438.40,629.72 -436.86,629.81 -435.32,629.92 -433.77,630.06 -432.23,630.22 -430.69,630.40 -429.16,630.60 -427.62,630.82 -426.09,631.06 -424.55,631.31 -423.03,631.58 -421.49,631.87 -419.96,632.17 -418.44,632.48 -416.92,632.80 -415.41,633.13 -413.89,633.47 -412.38,633.82 -410.86,634.18 -409.34,634.55 -407.83,634.93 -406.32,635.31 -404.81,635.70 -403.31,636.09 -401.81,636.49 -400.30,636.89 -398.80,637.29 -397.31,637.70 -395.81,638.10 -394.31,638.51 -392.80,638.92 -391.29,639.33 -389.77,639.74 -388.26,640.15 -386.75,640.55 -385.24,640.96 -383.74,641.36 -382.24,641.76 -380.73,642.15 -379.22,642.55 -377.71,642.94 -376.20,643.33 -374.68,643.73 -373.16,644.12 -371.64,644.51 -370.12,644.90 -368.59,645.29 -367.06,645.67 -365.53,646.06 -364.01,646.45 -362.49,646.83 -360.96,647.21 -359.44,647.60 -357.91,647.98 -356.39,648.36 -354.87,648.73 -353.34,649.11 -351.82,649.49 -350.29,649.86 -348.77,650.23 -347.25,650.60 -345.73,650.97 -344.21,651.34 -342.69,651.70 -341.17,652.06 -339.65,652.43 -338.13,652.79 -336.60,653.15 -335.06,653.52 -333.52,653.88 -331.96,654.24 -330.41,654.61 -328.84,654.97 -327.27,655.34 -325.70,655.71 -324.13,656.07 -322.57,656.43 -321.01,656.79 -319.45,657.15 -317.90,657.50 -316.35,657.86 -314.80,658.21 -313.26,658.56 -311.72,658.91 -310.19,659.26 -308.65,659.61 -307.13,659.95 -305.61,660.29 -304.09,660.63 -302.57,660.97 -301.06,661.30 -299.55,661.64 -298.04,661.97 -296.52,662.31 -295.00,662.65 -293.47,662.98 -291.95,663.32 -290.42,663.66 -288.89,663.99 -287.36,664.33 -285.83,664.67 -284.30,665.00 -282.77,665.34 -281.24,665.68 -279.70,666.02 -278.17,666.36 -276.63,666.70 -275.10,667.04 -273.56,667.38 -272.01,667.72 -270.47,668.06 -268.92,668.40 -267.37,668.74 -265.82,669.09 -264.26,669.43 -262.70,669.78 -261.14,670.12 -259.57,670.47 -258.00,670.82 -256.42,671.17 -254.84,671.52 -253.26,671.87 -251.67,672.23 -250.08,672.58 -248.49,672.94 -246.89,673.30 -245.29,673.65 -243.68,674.01 -242.08,674.37 -240.46,674.74 -238.85,675.10 -237.24,675.46 -235.65,675.82 -234.06,676.18 -232.49,676.53 -230.92,676.88 -229.37,677.23 -227.83,677.58 -226.29,677.92 -224.77,678.26 -223.26,678.60 -221.76,678.93 -220.27,679.26 -218.80,679.59 -217.33,679.91 -215.88,680.23 -214.43,680.55 -213.00,680.86 -211.57,681.17 -210.13,681.48 -208.70,681.79 -207.25,682.10 -205.81,682.41 -204.35,682.71 -202.89,683.02 -201.42,683.32 -199.95,683.63 -198.47,683.93 -196.98,684.23 -195.49,684.53 -194.00,684.83 -192.51,685.12 -191.01,685.41" fill="none" stroke="black" stroke-width="35" stroke-linecap="round" stroke-linejoin="round" />
<polyline points="-189.52,685.70 -188.02,685.99 -186.51,686.27 -185.01,686.55 -183.51,686.82 -182.00,687.10 -180.50,687.36 -179.00,687.63 -177.49,687.89 -175.99,688.14 -174.49,688.39 -172.99,688.64 -171.50,688.88 -170.00,689.11 -168.49,689.35 -166.99,689.58 -165.48,689.80 -163.78,690.05 -162.07,690.29 -160.35,690.52 -158.63,690.76 -156.90,690.99 -155.16,691.22 -153.42,691.44 -151.67,691.66 -149.91,691.88 -148.14,692.10 -146.37,692.31 -144.59,692.53 -142.81,692.74 -141.02,692.94 -139.22,693.15 -137.42,693.35 -135.61,693.55 -133.99,693.72 -132.36,693.90 -130.73,694.06 -129.11,694.23 -127.48,694.39 -125.85,694.55 -124.23,694.71 -122.60,694.86 -120.98,695.01 -119.35,695.16 -117.73,695.30 -116.10,695.44 -114.48,695.57 -112.85,695.70 -111.23,695.83 -109.60,695.95 -107.97,696.06 -106.35,696.17 -104.72,696.28 -103.09,696.38 -101.45,696.48 -99.82,696.57 -98.18,696.66 -96.54,696.74 -94.90,696.82 -93.26,696.90 -91.62,696.96 -89.97,697.03 -88.32,697.08 -86.67,697.14 -85.02,697.18 -83.37,697.22 -81.71,697.26 -80.05,697.29 -78.40,697.31 -76.73,697.33 -75.07,697.34 -73.41,697.35 -71.74,697.35 -70.08,697.34 -68.41,697.33 -66.74,697.32 -65.06,697.29 -63.39,697.27 -61.72,697.23 -60.04,697.19 -58.36,697.15 -56.68,697.10 -55.00,697.05 -53.32,696.99 -51.63,696.93 -49.95,696.86 -48.26,696.79 -46.57,696.71 -44.88,696.63 -43.19,696.55 -41.49,696.46 -39.80,696.37 -38.10,696.28 -36.41,696.18 -34.72,696.09 -33.04,695.99 -31.38,695.89 -29.72,695.79 -28.08,695.69 -26.45,695.58 -24.83,695.48 -23.22,695.38 -21.62,695.28 -20.04,695.17 -18.46,695.07 -16.90,694.97 -15.34,694.87 -13.80,694.76 -12.27,694.66 -10.75,694.56 -9.25,694.46 -7.74,694.35 -6.23,694.25 -4.72,694.14 -3.21,694.04 -1.69,693.93 -0.18,693.83 1.34,693.72 2.85,693.61 4.37,693.50 5.89,693.39 7.41,693.28 8.93,693.16 10.45,693.05 11.97,692.93 13.49,692.82 15.02,692.70 16.54,692.58 18.07,692.46 19.60,692.34 21.13,692.22 22.66,692.09 24.19,691.97 25.72,691.84 27.25,691.72 28.79,691.59 30.32,691.46 31.86,691.33 33.39,691.20 34.93,691.07 36.47,690.94 38.01,690.80 39.55,690.67 41.09,690.54 42.64,690.40 44.18,690.27 45.73,690.13 47.27,690.00 48.82,689.86 50.37,689.72 51.92,689.59 53.47,689.45 55.02,689.31 56.57,689.18 58.12,689.04 59.68,688.90 61.23,688.76 62.79,688.63 64.34,688.49 65.90,688.35 67.46,688.21 69.02,688.07 70.58,687.93 72.14,687.80 73.71,687.66 75.27,687.52 76.84,687.38 78.40,687.24 79.97,687.10 81.54,686.96 83.10,686.82 84.67,686.68 86.24,686.54 87.82,686.40 89.39,686.25 90.96,686.11 92.54,685.97 94.11,685.83 95.69,685.68 97.26,685.54 98.84,685.39 100.42,685.24 102.00,685.10 103.58,684.95 105.16,684.80 106.74,684.65 108.32,684.50 109.90,684.35 111.49,684.20 113.07,684.04 114.66,683.89 116.24,683.73 117.83,683.57 119.41,683.41 121.00,683.26 122.58,683.10 124.16,682.93 125.75,682.77 127.33,682.61 128.91,682.44 130.49,682.28 132.06,682.11 133.64,681.95 135.22,681.78 136.79,681.61 138.36,681.43 139.93,681.26 141.50,681.09 143.07,680.91 144.64,680.73 146.20,680.55 147.77,680.37 149.33,680.18 150.90,680.00 152.47,679.81 154.03,679.61 155.60,679.42 157.16,679.22 158.73,679.02 160.30,678.82 161.86,678.61 163.43,678.40 165.00,678.18 166.56,677.96 168.13,677.74 169.70,677.51 171.26,677.28 172.83,677.04 174.40,676.80 175.96,676.55 177.53,676.30 179.09,676.04 180.65,675.77 182.22,675.50 183.78,675.22 185.34,674.94 186.91,674.65 188.47,674.35 190.03,674.05 191.58,673.73 193.14,673.41 194.70,673.08 196.25,672.75 197.80,672.40 199.36,672.05 200.91,671.69 202.46,671.32 204.00,670.94 205.55,670.56 207.09,670.16 208.63,669.76 210.17,669.34 211.71,668.92 213.24,668.49 214.78,668.05 216.31,667.60 217.83,667.14 219.36,666.68 220.88,666.20 222.40,665.71 223.92,665.22 225.43,664.71 226.94,664.20 228.45,663.67 229.96,663.14 231.46,662.59 232.96,662.04 234.45,661.47 235.94,660.90 237.43,660.31 238.91,659.72 240.39,659.12 241.86,658.50 243.33,657.88 244.80,657.24 246.26,656.60 247.72,655.94 249.18,655.28 250.63,654.61 252.07,653.92 253.52,653.23 254.95,652.53 256.39,651.82 257.82,651.10 259.24,650.38 260.67,649.64 262.08,648.90 263.50,648.15 264.91,647.39 266.32,646.62 267.72,645.85 269.12,645.06 270.51,644.28 271.91,643.48 273.30,642.68 274.68,641.87 276.07,641.06 277.45,640.23 278.82,639.41 280.20,638.57 281.57,637.74 282.94,636.89 284.30,636.04 285.66,635.19 287.02,634.33 288.38,633.46 289.74,632.59 291.09,631.72 292.44,630.84 293.78,629.95 295.13,629.06 296.47,628.16 297.81,627.26 299.14,626.36 300.48,625.45 301.81,624.53 303.13,623.61 304.46,622.69 305.78,621.76 307.10,620.82 308.41,619.88 309.72,618.93 311.03,617.98 312.34,617.03 313.64,616.07 314.94,615.10 316.24,614.13 317.53,613.15 318.82,612.17 320.11,611.19 321.39,610.20 322.67,609.21 323.95,608.21 325.23,607.20 326.50,606.19 327.77,605.18 329.03,604.16 330.29,603.14 331.55,602.11 332.81,601.08 334.06,600.04 335.31,599.00 336.55,597.95 337.79,596.90 339.03,595.85 340.26,594.78 341.49,593.72 342.72,592.64 343.94,591.57 345.16,590.48 346.37,589.40 347.58,588.30 348.78,587.20 349.98,586.10 351.17,584.98 352.36,583.87 353.54,582.75 354.72,581.62 355.89,580.48 357.06,579.34 358.23,578.20 359.38,577.05 360.54,575.89 361.68,574.73 362.83,573.56 363.96,572.39 365.10,571.21 366.22,570.03 367.35,568.84 368.47,567.65 369.58,566.45 370.69,565.24 371.79,564.04 372.89,562.82 373.99,561.61 375.08,560.39 376.16,559.16 377.24,557.93 378.32,556.69 379.39,555.45 380.46,554.21 381.52,552.96 382.57,551.71 383.63,550.45 384.67,549.18 385.71,547.92 386.75,546.64 387.78,545.37 388.80,544.08 389.82,542.80 390.83,541.50 391.84,540.21 392.84,538.91 393.84,537.60 394.83,536.29 395.81,534.97 396.78,533.65 397.75,532.32 398.72,530.99 399.67,529.65 400.62,528.31 401.57,526.96 402.51,525.61 403.44,524.26 404.36,522.90 405.28,521.53 406.19,520.16 407.10,518.79 408.00,517.41 408.89,516.03 409.78,514.64 410.67,513.25 411.54,511.85 412.42,510.46 413.28,509.05 414.14,507.65 415.00,506.24 415.85,504.82 416.69,503.41 417.53,501.99 418.36,500.56 419.19,499.13 420.02,497.70 420.83,496.27 421.64,494.83 422.45,493.39 423.25,491.94 424.04,490.49 424.83,489.04 425.61,487.58 426.39,486.12 427.15,484.66 427.92,483.19 428.67,481.72 429.42,480.25 430.16,478.77 430.90,477.29 431.63,475.80 432.35,474.31 433.06,472.82 433.77,471.32 434.47,469.82 435.16,468.32 435.85,466.81 436.53,465.30 437.20,463.79 437.86,462.27 438.51,460.75 439.16,459.22 439.80,457.69 440.44,456.16 441.06,454.63 441.68,453.09 442.29,451.55 442.89,450.00 443.48,448.46 444.07,446.91 444.65,445.35 445.22,443.79 445.78,442.23 446.34,440.67 446.88,439.11 447.43,437.54 447.96,435.97 448.49,434.39 449.01,432.82 449.52,431.24 450.03,429.66 450.53,428.07 451.03,426.49 451.52,424.90 452.01,423.31 452.49,421.72 452.96,420.13 453.44,418.53 453.91,416.94 454.37,415.34 454.83,413.74 455.29,412.14 455.75,410.54 456.20,408.94 456.66,407.33 457.11,405.73 457.56,404.12 458.01,402.52 458.46,400.91 458.91,399.30 459.36,397.70 459.81,396.09 460.26,394.48 460.70,392.87 461.15,391.26 461.60,389.65 462.05,388.04 462.50,386.43 462.95,384.82 463.40,383.21 463.85,381.60 464.30,379.99 464.75,378.38 465.20,376.77 465.65,375.15 466.10,373.54 466.56,371.93 467.01,370.32 467.46,368.70 467.91,367.09 468.37,365.47 468.82,363.86 469.27,362.24 469.73,360.63 470.18,359.01 470.64,357.40 471.09,355.78 471.55,354.17 472.00,352.55 472.46,350.93 472.91,349.31 473.37,347.70 473.83,346.08 474.29,344.46 474.75,342.84 475.20,341.22 475.66,339.61 476.12,337.99 476.58,336.37 477.05,334.75 477.51,333.13 477.97,331.51 478.43,329.89 478.90,328.27 479.36,326.65 479.83,325.03 480.30,323.41 480.76,321.79 481.23,320.17 481.70,318.55 482.17,316.93 482.65,315.31 483.12,313.69 483.60,312.07 484.07,310.45 484.55,308.83 485.03,307.21 485.51,305.59 485.99,303.97 486.48,302.35 486.96,300.73 487.45,299.11 487.94,297.49 488.43,295.87 488.92,294.25 489.41,292.63 489.90,291.01 490.39,289.39 490.88,287.77 491.38,286.15 491.87,284.53 492.37,282.91 492.86,281.29 493.36,279.66 493.86,278.04 494.35,276.42 494.85,274.80 495.35,273.18 495.85,271.56 496.34,269.94 496.84,268.31 497.34,266.69 497.84,265.07 498.34,263.44 498.84,261.82 499.34,260.20 499.84,258.57 500.34,256.95 500.84,255.33 501.34,253.70 501.84,252.08 502.34,250.45 502.84,248.83 503.34,247.20 503.85,245.57 504.35,243.95 504.85,242.32 505.35,240.70 505.85,239.07 506.35,237.44 506.85,235.81 507.36,234.19 507.86,232.56 508.36,230.93 508.86,229.30 509.36,227.67 509.87,226.04 510.37,224.42 510.87,222.79 511.37,221.16 511.87,219.53 512.38,217.90 512.88,216.27 513.38,214.63 513.88,213.00 514.38,211.37 514.89,209.74 515.39,208.11 515.89,206.48 516.39,204.85 516.90,203.21 517.40,201.58 517.90,199.95 518.40,198.32 518.91,196.68 519.41,195.05 519.91,193.42 520.42,191.78 520.92,190.15 521.42,188.51 521.93,186.88 522.43,185.25 522.93,183.61 523.44,181.98 523.94,180.34 524.45,178.71 524.95,177.07 525.46,175.43 525.96,173.80 526.47,172.16 526.97,170.53 527.48,168.89 527.98,167.25 528.49,165.62 529.00,163.98 529.50,162.34 530.01,160.71 530.52,159.07 531.03,157.43 531.53,155.80 532.04,154.16 532.55,152.52 533.06,150.88 533.57,149.25 534.08,147.61 534.59,145.97 535.10,144.33 535.61,142.69 536.12,141.05 536.63,139.42 537.14,137.78 537.66,136.14 538.17,134.50 538.68,132.86 539.20,131.22 539.71,129.59 540.23,127.95 540.75,126.31 541.27,124.67 541.79,123.03 542.31,121.40 542.84,119.76 543.36,118.13 543.89,116.49 544.42,114.85 544.96,113.22 545.49,111.59 546.03,109.95 546.57,108.32 547.12,106.69 547.67,105.06 548.22,103.43 548.77,101.80 549.33,100.17 549.89,98.55 550.45,96.92 551.02,95.30 551.59,93.67 552.16,92.05 552.74,90.43 553.32,88.81 553.90,87.19 554.49,85.57 555.08,83.95 555.67,82.34 556.27,80.72 556.87,79.11 557.48,77.50 558.09,75.89 558.71,74.28 559.33,72.68 559.96,71.07 560.59,69.47 561.23,67.87 561.87,66.27 562.52,64.68 563.18,63.09 563.84,61.50 564.52,59.92 565.20,58.34 565.89,56.76 566.58,55.19 567.29,53.63 568.01,52.06 568.73,50.50 569.47,48.95 570.21,47.40 570.97,45.86 571.73,44.32 572.51,42.79 573.29,41.26 574.08,39.74 574.89,38.23 575.70,36.72 576.52,35.21 577.35,33.71 578.19,32.22 579.04,30.73 579.90,29.25 580.77,27.77 581.64,26.30 582.53,24.83 583.42,23.37 584.32,21.91 585.23,20.46 586.15,19.01 587.07,17.57 588.01,16.14 588.95,14.71 589.90,13.28 590.85,11.86 591.82,10.45 592.79,9.04 593.77,7.64 594.75,6.24 595.75,4.85 596.75,3.47 597.76,2.09 598.78,0.71 599.80,-0.66 600.84,-2.02 601.88,-3.37 602.93,-4.72 603.98,-6.06 605.05,-7.40 606.12,-8.72 607.21,-10.04 608.30,-11.36 609.39,-12.66 610.50,-13.96 611.61,-15.26 612.74,-16.54 613.87,-17.82 615.01,-19.08 616.15,-20.35 617.31,-21.60 618.47,-22.85 619.64,-24.09 620.82,-25.32 622.00,-26.54 623.19,-27.76 624.39,-28.97 625.59,-30.18 626.81,-31.37 628.02,-32.57 629.25,-33.75 630.47,-34.93 631.71,-36.10 632.95,-37.27 634.19,-38.43 635.44,-39.59 636.70,-40.74 637.96,-41.89 639.22,-43.03 640.49,-44.17 641.76,-45.30 643.04,-46.43 644.32,-47.55 645.60,-48.67 646.89,-49.79 648.17,-50.90 649.47,-52.01 650.76,-53.12 652.06,-54.22 653.36,-55.32 654.66,-56.42 655.97,-57.51 657.27,-58.60 658.58,-59.68 659.88,-60.76 661.18,-61.83 662.47,-62.90 663.77,-63.96 665.06,-65.01 666.34,-66.06 667.62,-67.10 668.89,-68.14 670.15,-69.16 671.41,-70.18 672.67,-71.20 673.92,-72.22 675.18,-73.24 676.43,-74.25 677.68,-75.26 678.93,-76.28 680.18,-77.29 681.42,-78.30 682.66,-79.30 683.90,-80.31 685.13,-81.31 686.36,-82.31 687.60,-83.31 688.84,-84.32 690.08,-85.33 691.33,-86.34 692.58,-87.36 693.82,-88.38 695.06,-89.39 696.29,-90.39 697.51,-91.39 698.73,-92.40 699.96,-93.40 701.18,-94.41 702.41,-95.42 703.63,-96.43 704.85,-97.44 706.07,-98.45 707.30,-99.47 708.52,-100.49 709.74,-101.51 710.96,-102.52 712.17,-103.54 713.37,-104.56 714.58,-105.57 715.78,-106.60 716.98,-107.62 718.18,-108.65 719.38,-109.68 720.57,-110.71 721.75,-111.74 722.93,-112.78 724.10,-113.82 725.26,-114.87 726.42,-115.93 727.57,-116.99 728.71,-118.06 729.83,-119.14 730.94,-120.23 732.04,-121.34 733.12,-122.46 734.19,-123.59 735.24,-124.74 736.26,-125.90 737.27,-127.08 738.25,-128.28 739.21,-129.49 740.15,-130.73 741.05,-131.98 741.93,-133.25 742.77,-134.54 743.59,-135.85 744.37,-137.18 745.11,-138.52 745.82,-139.89 746.49,-141.27 747.11,-142.66 747.69,-144.07 748.23,-145.50 748.71,-146.94 749.14,-148.40 749.52,-149.86 749.85,-151.34 750.11,-152.83 750.32,-154.33 750.46,-155.82 750.53,-157.32 750.54,-158.81 750.49,-160.30 750.36,-161.78 750.17,-163.25 749.91,-164.71 749.58,-166.16 749.18,-167.58 748.71,-168.98 748.18,-170.35 747.57,-171.70 746.91,-173.02 746.18,-174.30 745.39,-175.54 744.53,-176.75 743.62,-177.91 742.65,-179.04 741.64,-180.11 740.57,-181.15 739.45,-182.14 738.29,-183.08 737.09,-183.97 735.85,-184.82 734.57,-185.62 733.27,-186.37 731.92,-187.08 730.56,-187.75 729.17,-188.37 727.76,-188.94 726.33,-189.48 724.88,-189.98 723.42,-190.43 721.95,-190.85 720.47,-191.24 718.98,-191.59 717.48,-191.91 715.98,-192.20 714.47,-192.46 712.95,-192.69 711.43,-192.89 709.90,-193.07 708.36,-193.23 706.83,-193.36 705.29,-193.47 703.75,-193.55 702.21,-193.62 700.66,-193.66 699.11,-193.69 697.56,-193.70 696.01,-193.69 694.46,-193.67 692.90,-193.63 691.35,-193.57 689.79,-193.50 688.23,-193.42 686.68,-193.32 685.13,-193.22 683.58,-193.10 682.03,-192.97 680.48,-192.83 678.94,-192.68 677.38,-192.52 675.83,-192.35 674.28,-192.17 672.73,-191.99 671.18,-191.80 669.64,-191.61 668.09,-191.41 666.55,-191.21 665.00,-191.00 663.46,-190.79 661.92,-190.58 660.37,-190.37 658.81,-190.15 657.25,-189.93 655.69,-189.72 654.13,-189.50 652.57,-189.28 651.02,-189.06 649.47,-188.84 647.93,-188.62 646.38,-188.40 644.84,-188.18 643.28,-187.96 641.73,-187.73 640.18,-187.51 638.62,-187.28 637.06,-187.06 635.50,-186.83 633.94,-186.60 632.37,-186.38 630.81,-186.15 629.25,-185.92 627.69,-185.69 626.13,-185.47 624.58,-185.24 623.02,-185.01 621.46,-184.78 619.90,-184.55 618.35,-184.33 616.79,-184.10 615.24,-183.87 613.69,-183.65 612.14,-183.42 610.59,-183.20 609.04,-182.97 607.49,-182.75 605.94,-182.53 604.40,-182.30 602.85,-182.08 601.29,-181.86 599.73,-181.63 598.16,-181.40 596.58,-181.18 594.99,-180.95 593.40,-180.72 591.81,-180.50 590.23,-180.27 588.65,-180.05 587.07,-179.82 585.49,-179.60 583.92,-179.37 582.35,-179.15 580.79,-178.93 579.23,-178.71 577.67,-178.48 576.12,-178.26 574.57,-178.04 573.03,-177.83 571.49,-177.61 569.95,-177.39 568.42,-177.17 566.90,-176.96 565.37,-176.74 563.83,-176.52 562.30,-176.30 560.76,-176.09 559.22,-175.87 557.67,-175.65 556.13,-175.43 554.58,-175.21 553.04,-174.99 551.49,-174.77 549.94,-174.55 548.39,-174.33 546.83,-174.12 545.28,-173.90 543.72,-173.68 542.17,-173.46 540.61,-173.24 539.05,-173.02 537.49,-172.80 535.93,-172.58 534.36,-172.36 532.79,-172.14 531.22,-171.92 529.64,-171.70 528.06,-171.48 526.47,-171.26 524.88,-171.04 523.29,-170.82 521.69,-170.60 520.09,-170.37 518.49,-170.15 516.88,-169.93 515.27,-169.71 513.65,-169.49 512.03,-169.26 510.41,-169.04 508.78,-168.82 507.15,-168.60 505.51,-168.38 503.87,-168.15 502.23,-167.93 500.60,-167.71 498.97,-167.49 497.35,-167.27 495.73,-167.06 494.13,-166.84 492.53,-166.63 490.94,-166.42 489.36,-166.21 487.78,-166.00 486.21,-165.79 484.65,-165.59 483.10,-165.38 481.56,-165.18 480.02,-164.98 478.50,-164.78 476.98,-164.58 475.47,-164.39 473.95,-164.19 472.44,-164.00 470.92,-163.80 469.40,-163.61 467.87,-163.42 466.35,-163.22 464.82,-163.03 463.29,-162.84 461.75,-162.65 460.22,-162.46 458.68,-162.27 457.13,-162.08 455.59,-161.89 454.04,-161.70 452.49,-161.52 450.94,-161.33 449.39,-161.15 447.83,-160.97 446.27,-160.79 444.71,-160.61 443.14,-160.44 441.57,-160.26 440.00,-160.09 438.43,-159.92 436.85,-159.76 435.27,-159.59 433.69,-159.43 432.11,-159.27 430.53,-159.11 428.94,-158.96 427.35,-158.80 425.75,-158.65 424.16,-158.51 422.56,-158.36 420.96,-158.22 419.36,-158.08 417.75,-157.95 416.14,-157.82 414.53,-157.69 412.92,-157.57 411.31,-157.46 409.69,-157.34 408.08,-157.23 406.46,-157.13 404.84,-157.03 403.22,-156.94 401.61,-156.86 399.99,-156.78 398.37,-156.70 396.76,-156.63 395.14,-156.57 393.53,-156.52 391.91,-156.47 390.30,-156.43 388.68,-156.40 387.07,-156.37 385.46,-156.35 383.84,-156.34 382.23,-156.33 380.62,-156.34 379.00,-156.35 377.39,-156.37 375.77,-156.39 374.15,-156.42 372.53,-156.46 370.91,-156.51 369.29,-156.56 367.66,-156.62 366.04,-156.69 364.41,-156.76 362.78,-156.84 361.15,-156.92 359.52,-157.02 357.89,-157.12 356.26,-157.22 354.63,-157.33 352.99,-157.45 351.35,-157.58 349.72,-157.71 348.08,-157.84 346.44,-157.98 344.80,-158.13 343.15,-158.28 341.51,-158.44 339.87,-158.61 338.22,-158.78 336.57,-158.95 334.92,-159.13 333.28,-159.31 331.62,-159.50 329.97,-159.70 328.32,-159.90 326.66,-160.10 325.01,-160.31 323.35,-160.53 321.69,-160.75 320.03,-160.97 318.37,-161.20 316.71,-161.43 315.05,-161.66 313.38,-161.90 311.71,-162.15 310.05,-162.39 308.38,-162.65 306.71,-162.90 305.04,-163.16 303.36,-163.42 301.69,-163.68 300.01,-163.95 298.34,-164.22 296.67,-164.49 295.01,-164.76 293.37,-165.03 291.74,-165.30 290.11,-165.57 288.50,-165.84 286.90,-166.12 285.32,-166.39 283.74,-166.66 282.17,-166.94 280.62,-167.21 279.08,-167.49 277.54,-167.77 276.02,-168.04 274.52,-168.32 273.02,-168.60 271.53,-168.88 270.02,-169.16 268.51,-169.45 266.98,-169.74 265.45,-170.04 263.91,-170.33 262.36,-170.63 260.81,-170.94 259.26,-171.24 257.70,-171.55 256.13,-171.86 254.57,-172.17 253.00,-172.47 251.43,-172.78 249.86,-173.09 248.29,-173.40 246.70,-173.72 245.12,-174.03 243.53,-174.34 241.96,-174.65 240.39,-174.95 238.82,-175.26 237.26,-175.56 235.70,-175.86 234.15,-176.16 232.60,-176.45 231.05,-176.74 229.49,-177.04 227.93,-177.33 226.36,-177.62 224.79,-177.91 223.21,-178.19 221.64,-178.48 220.08,-178.76 218.52,-179.04 216.97,-179.31 215.42,-179.58 213.88,-179.84 212.33,-180.10 210.78,-180.36 209.23,-180.62 207.66,-180.86 206.10,-181.11 204.54,-181.34 202.98,-181.56 201.43,-181.78 199.88,-181.98 198.33,-182.17 196.79,-182.35 195.24,-182.51 193.69,-182.66 192.13,-182.79 190.57,-182.90 189.00,-183.00 187.43,-183.07 185.86,-183.12 184.29,-183.15 182.73,-183.16 181.17,-183.14 179.61,-183.10 178.06,-183.03 176.51,-182.93 174.96,-182.81 173.42,-182.66 171.87,-182.48 170.34,-182.28 168.81,-182.04 167.30,-181.78 165.79,-181.49 164.29,-181.16 162.79,-180.80 161.30,-180.41 159.81,-179.99 158.33,-179.53 156.86,-179.04 155.39,-178.52 153.93,-177.97 152.48,-177.39 151.05,-176.78 149.62,-176.15 148.21,-175.48 146.81,-174.79 145.43,-174.08 144.05,-173.34 142.68,-172.57 141.33,-171.78 140.00,-170.97 138.68,-170.13 137.38,-169.28 136.10,-168.40 134.83,-167.51 133.58,-166.59 132.34,-165.66 131.12,-164.70 129.91,-163.73 128.71,-162.73 127.52,-161.71 126.34,-160.67 125.18,-159.61 124.04,-158.54 122.92,-157.45 121.81,-156.34 120.72,-155.22 119.65,-154.08 118.60,-152.93 117.56,-151.77 116.54,-150.59 115.54,-149.39 114.56,-148.18 113.60,-146.96 112.65,-145.73 111.72,-144.48 110.81,-143.22 109.92,-141.95 109.04,-140.67 108.17,-139.37 107.31,-138.05 106.46,-136.72 105.62,-135.37 104.80,-134.01 103.99,-132.65 103.19,-131.28 102.41,-129.91 101.64,-128.53 100.88,-127.15 100.14,-125.76 99.41,-124.37 98.69,-122.97 97.99,-121.57 97.30,-120.16 96.63,-118.75 95.97,-117.33 95.32,-115.92 94.68,-114.49 94.06,-113.07 93.45,-111.64 92.84,-110.21 92.25,-108.76 91.66,-107.30 91.09,-105.84 90.52,-104.36 89.96,-102.87 89.41,-101.38 88.86,-99.87 88.33,-98.36 87.80,-96.83 87.28,-95.31 86.77,-93.79 86.28,-92.27 85.79,-90.74 85.32,-89.22 84.86,-87.70 84.41,-86.19 83.97,-84.67 83.54,-83.15 83.13,-81.64 82.72,-80.13 82.33,-78.61 81.95,-77.10 81.59,-75.60 81.23,-74.09 80.89,-72.59 80.56,-71.09 80.25,-69.58 79.94,-68.07 79.64,-66.55 79.35,-65.02 79.07,-63.49 78.80,-61.95 78.55,-60.41 78.30,-58.86 78.06,-57.31 77.84,-55.74 77.62,-54.18 77.42,-52.60 77.23,-51.03 77.04,-49.44 76.87,-47.85 76.71,-46.26 76.57,-44.66 76.43,-43.06 76.30,-41.45 76.19,-39.83 76.09,-38.22 76.00,-36.59 75.92,-34.96 75.85,-33.33 75.79,-31.70 75.75,-30.05 75.72,-28.41 75.69,-26.76 75.68,-25.10 75.69,-23.46 75.70,-21.82 75.72,-20.18 75.75,-18.56 75.80,-16.94 75.85,-15.33 75.91,-13.73 75.98,-12.14 76.06,-10.55 76.15,-8.97 76.25,-7.40 76.36,-5.84 76.47,-4.29 76.60,-2.74 76.73,-1.20 76.86,0.32 77.01,1.84 77.16,3.36 77.32,4.89 77.49,6.41 77.66,7.94 77.85,9.47 78.04,11.00 78.24,12.54 78.44,14.07 78.66,15.61 78.88,17.15 79.11,18.69 79.35,20.23 79.60,21.78 79.86,23.33 80.12,24.88 80.39,26.43 80.67,27.98 80.96,29.53 81.25,31.09 81.55,32.65 81.85,34.21 82.16,35.77 82.48,37.33 82.80,38.90 83.12,40.47 83.45,42.04 83.78,43.61 84.11,45.19 84.45,46.77 84.79,48.35 85.13,49.93 85.47,51.51 85.82,53.10 86.17,54.69 86.52,56.28 86.87,57.88 87.22,59.48 87.58,61.08 87.94,62.68 88.30,64.28 88.67,65.89 89.03,67.50 89.40,69.11 89.78,70.72 90.15,72.33 90.53,73.95 90.91,75.56 91.30,77.18 91.68,78.80 92.07,80.41 92.46,82.02 92.86,83.63 93.25,85.24 93.65,86.84 94.04,88.43 94.44,90.02 94.83,91.59 95.23,93.16 95.62,94.73 96.02,96.30 96.41,97.86 96.81,99.42 97.20,100.98 97.59,102.53 97.99,104.08 98.38,105.62 98.76,107.15 99.15,108.68 99.53,110.21 99.92,111.74 100.30,113.27 100.69,114.81 101.07,116.35 101.45,117.89 101.84,119.43 102.22,120.96 102.60,122.50 102.98,124.03 103.35,125.56 103.73,127.09 104.10,128.61 104.47,130.14 104.84,131.67 105.21,133.21 105.58,134.74 105.94,136.27 106.31,137.80 106.67,139.33 107.03,140.85 107.38,142.38 107.74,143.90 108.09,145.43 108.44,146.96 108.79,148.48 109.13,150.01 109.47,151.53 109.81,153.06 110.15,154.59 110.48,156.11 110.81,157.63 111.13,159.16 111.45,160.68 111.77,162.21 112.07,163.74 112.37,165.26 112.66,166.79 112.94,168.32 113.21,169.85 113.46,171.38 113.70,172.92 113.92,174.45 114.12,175.98 114.29,177.51 114.45,179.04 114.57,180.58 114.68,182.11 114.75,183.64 114.78,185.18 114.78,186.71 114.74,188.24 114.65,189.77 114.52,191.29 114.34,192.80 114.12,194.30 113.84,195.78 113.50,197.25 113.12,198.70 112.68,200.14 112.20,201.56 111.67,202.96 111.09,204.35 110.48,205.72 109.84,207.09 109.18,208.44 108.49,209.79 107.80,211.13 107.10,212.47 106.41,213.82 105.72,215.17 105.06,216.52 104.43,217.89 103.83,219.27 103.26,220.66 102.74,222.07 102.27,223.50 101.85,224.95 101.48,226.41 101.15,227.89 100.88,229.38 100.65,230.88 100.46,232.40 100.32,233.92 100.22,235.45 100.14,236.99 100.10,238.52 100.08,240.07 100.07,241.61 100.08,243.16 100.09,244.70 100.11,246.25 100.13,247.79 100.14,249.34 100.13,250.88 100.12,252.42 100.08,253.97 100.01,255.52 99.93,257.06 99.81,258.59 99.66,260.12 99.47,261.65 99.25,263.17 98.99,264.69 98.69,266.20 98.35,267.71 97.98,269.21 97.56,270.70 97.10,272.18 96.61,273.65 96.07,275.11 95.49,276.56 94.88,277.99 94.22,279.40 93.53,280.79 92.81,282.17 92.05,283.52 91.26,284.86 90.43,286.18 89.58,287.47 88.69,288.75 87.77,290.00 86.82,291.22 85.84,292.42 84.84,293.60 83.81,294.75 82.76,295.87 81.68,296.97 80.59,298.04 79.47,299.09 78.33,300.12 77.16,301.12 75.97,302.10 74.76,303.05 73.53,303.98 72.28,304.88 71.01,305.76 69.72,306.60 68.41,307.42 67.09,308.20 65.75,308.96 64.38,309.68 63.00,310.38 61.59,311.04 60.17,311.68 58.73,312.27 57.27,312.84 55.80,313.37 54.32,313.86 52.82,314.32 51.32,314.74 49.82,315.13 48.30,315.48 46.78,315.79 45.25,316.07 43.72,316.31 42.19,316.52 40.65,316.70 39.11,316.83 37.57,316.94 36.02,317.01 34.48,317.05 32.93,317.05 31.39,317.03 29.84,316.97 28.29,316.88 26.75,316.76 25.20,316.61 23.66,316.43 22.12,316.23 20.58,316.00 19.05,315.74 17.51,315.46 15.99,315.15 14.46,314.82 12.94,314.47 11.42,314.09 9.90,313.70 8.38,313.28 6.88,312.84 5.38,312.39 3.90,311.93 2.42,311.45 0.94,310.97 -0.53,310.47 -2.01,309.96 -3.48,309.44 -4.95,308.91 -6.42,308.38 -7.90,307.84 -9.37,307.29 -10.84,306.74 -12.31,306.18 -13.78,305.63 -15.25,305.07 -16.72,304.51 -18.19,303.95 -19.67,303.39 -21.14,302.82 -22.61,302.26 -24.08,301.70 -25.54,301.14 -27.01,300.58 -28.48,300.02 -29.95,299.47 -31.41,298.91 -32.88,298.36 -34.34,297.81 -35.81,297.26 -37.27,296.71 -38.73,296.17 -40.19,295.63 -41.65,295.10 -43.12,294.56 -44.60,294.03 -46.08,293.49 -47.57,292.96 -49.07,292.43 -50.57,291.91 -52.08,291.38 -53.61,290.87 -55.14,290.35 -56.66,289.84 -58.19,289.35 -59.72,288.85 -61.24,288.37 -62.76,287.90 -64.28,287.44 -65.80,286.99 -67.32,286.55 -68.84,286.12 -70.36,285.70 -71.87,285.30 -73.38,284.90 -74.89,284.52 -76.39,284.16 -77.89,283.80 -79.39,283.46 -80.88,283.14 -82.37,282.82 -83.87,282.52 -85.37,282.23 -86.87,281.95 -88.38,281.68 -89.89,281.42 -91.40,281.17 -92.92,280.93 -94.44,280.70 -95.96,280.49 -97.48,280.28 -99.01,280.09 -100.54,279.90 -102.07,279.73 -103.61,279.56 -105.15,279.41 -106.70,279.26 -108.25,279.12 -109.80,278.99 -111.36,278.86 -112.93,278.75 -114.50,278.64 -116.07,278.54 -117.65,278.45 -119.23,278.36 -120.81,278.28 -122.40,278.21 -124.00,278.14 -125.60,278.08 -127.20,278.02 -128.80,277.97 -130.42,277.92 -132.03,277.88 -133.65,277.85 -135.27,277.81 -136.90,277.79 -138.53,277.76 -140.16,277.74 -141.80,277.73 -143.44,277.71 -145.09,277.70 -146.74,277.70 -148.39,277.70 -150.04,277.70 -151.68,277.70 -153.31,277.70 -154.93,277.71 -156.55,277.72 -158.16,277.73 -159.76,277.74 -161.36,277.76 -162.94,277.78 -164.52,277.79 -166.09,277.81 -167.65,277.83 -169.21,277.85 -170.76,277.87 -172.29,277.89 -173.82,277.91 -175.35,277.93 -176.87,277.95 -178.40,277.98 -179.93,278.00 -181.47,278.02 -183.00,278.05 -184.54,278.07 -186.09,278.10 -187.63,278.12 -189.18,278.15 -190.73,278.17 -192.28,278.20 -193.84,278.22 -195.40,278.25 -196.96,278.28 -198.52,278.31 -200.09,278.34 -201.66,278.37 -203.23,278.40 -204.81,278.43 -206.38,278.46 -207.96,278.49 -209.55,278.52 -211.13,278.55 -212.72,278.59 -214.31,278.62 -215.90,278.65 -217.50,278.69 -219.09,278.73 -220.69,278.76 -222.30,278.80 -223.90,278.84 -225.51,278.87 -227.12,278.91 -228.73,278.95 -230.34,278.99 -231.96,279.03 -233.58,279.07 -235.20,279.11 -236.82,279.15 -238.45,279.19 -240.08,279.23 -241.70,279.27 -243.33,279.31 -244.97,279.35 -246.60,279.39 -248.23,279.43 -249.86,279.48 -251.49,279.52 -253.12,279.56 -254.75,279.60 -256.38,279.64 -258.01,279.69 -259.64,279.73 -261.26,279.77 -262.89,279.81 -264.52,279.86 -266.15,279.90 -267.77,279.94 -269.40,279.99 -271.03,280.03 -272.66,280.08 -274.29,280.12 -275.92,280.17 -277.55,280.21 -279.18,280.26 -280.82,280.31 -282.46,280.35 -284.10,280.40 -285.74,280.45 -287.39,280.50 -289.03,280.54 -290.68,280.59 -292.33,280.64 -293.98,280.69 -295.63,280.74 -297.29,280.79 -298.95,280.84 -300.60,280.89 -302.26,280.94 -303.93,280.99 -305.59,281.03 -307.26,281.08 -308.93,281.13 -310.60,281.18 -312.27,281.22 -313.94,281.27 -315.62,281.31 -317.29,281.36 -318.97,281.40 -320.65,281.45 -322.33,281.49 -324.01,281.53 -325.68,281.57 -327.36,281.61 -329.03,281.64 -330.69,281.68 -332.35,281.72 -334.01,281.75 -335.65,281.79 -337.29,281.82 -338.92,281.86 -340.54,281.89 -342.16,281.92 -343.77,281.95 -345.39,281.98 -347.00,282.01 -348.60,282.04 -350.21,282.07 -351.80,282.10 -353.40,282.13 -354.98,282.15 -356.56,282.18 -358.15,282.21 -359.73,282.23 -361.32,282.26 -362.91,282.29 -364.51,282.31 -366.10,282.34 -367.70,282.36 -369.28,282.39 -370.86,282.41 -372.44,282.43 -374.02,282.45 -375.59,282.48 -377.16,282.50 -378.73,282.52 -380.30,282.54 -381.87,282.56 -383.45,282.58 -385.02,282.59 -386.59,282.61 -388.16,282.62 -389.72,282.64 -391.28,282.65 -392.84,282.67 -394.41,282.68 -395.98,282.69 -397.54,282.70 -399.10,282.71 -400.66,282.72 -402.22,282.73 -403.78,282.73 -405.34,282.74 -406.89,282.75 -408.45,282.75 -410.00,282.75 -411.56,282.74 -413.11,282.72 -414.65,282.69 -416.20,282.64 -417.75,282.58 -419.30,282.50 -420.84,282.39 -422.37,282.26 -423.90,282.10 -425.43,281.91 -426.94,281.68 -428.45,281.41 -429.95,281.09 -431.43,280.74 -432.90,280.33 -434.34,279.88 -435.77,279.37 -437.18,278.82 -438.57,278.21 -439.94,277.55 -441.29,276.85 -442.62,276.10 -443.93,275.32 -445.23,274.51 -446.52,273.68 -447.80,272.83 -449.07,271.97 -450.34,271.10 -451.61,270.25 -452.89,269.40 -454.18,268.57 -455.48,267.76 -456.80,266.98 -458.14,266.24 -459.49,265.55 -460.86,264.91 -462.26,264.32 -463.67,263.79 -465.10,263.32 -466.55,262.91 -468.02,262.55 -469.51,262.25 -471.00,262.00 -472.51,261.81 -474.03,261.67 -475.56,261.58 -477.08,261.53 -478.61,261.53 -480.15,261.57 -481.68,261.65 -483.21,261.76 -484.74,261.90 -486.26,262.07 -487.79,262.27 -489.32,262.49 -490.84,262.73 -492.36,262.99 -493.88,263.28 -495.40,263.58 -496.91,263.89 -498.41,264.22 -499.92,264.56 -501.42,264.92 -502.92,265.29 -504.42,265.67 -505.91,266.07 -507.40,266.47 -508.89,266.89 -510.38,267.32 -511.86,267.76 -513.35,268.20 -514.83,268.66 -516.32,269.12 -517.80,269.59 -519.28,270.06 -520.75,270.54 -522.23,271.02 -523.70,271.51 -525.18,272.00 -526.66,272.50 -528.14,273.00 -529.62,273.50 -531.09,274.01 -532.57,274.52 -534.04,275.03 -535.51,275.54 -536.98,276.05 -538.45,276.56 -539.92,277.08 -541.39,277.60 -542.87,278.12 -544.35,278.64 -545.83,279.17 -547.31,279.70 -548.78,280.22 -550.25,280.75 -551.72,281.27 -553.18,281.80 -554.65,282.33 -556.11,282.85 -557.58,283.39 -559.06,283.92 -560.53,284.45 -562.01,284.99 -563.49,285.53 -564.97,286.07 -566.45,286.61 -567.94,287.16 -569.41,287.70 -570.89,288.25 -572.37,288.80 -573.84,289.34 -575.32,289.90 -576.79,290.45 -578.27,291.01 -579.74,291.56 -581.21,292.13 -582.68,292.69 -584.15,293.26 -585.62,293.82 -587.08,294.40 -588.54,294.97 -590.00,295.55 -591.46,296.13 -592.91,296.71 -594.37,297.30 -595.84,297.89 -597.31,298.49 -598.78,299.10 -600.26,299.71 -601.75,300.33 -603.23,300.95 -604.71,301.58 -606.18,302.21 -607.65,302.84 -609.11,303.47 -610.57,304.10 -612.02,304.74 -613.47,305.38 -614.91,306.03 -616.35,306.68 -617.78,307.33 -619.20,307.98 -620.62,308.64 -622.03,309.30 -623.43,309.96 -624.82,310.62 -626.20,311.29 -627.58,311.96 -628.96,312.64 -630.34,313.33 -631.71,314.02 -633.09,314.72 -634.46,315.42 -635.83,316.13 -637.20,316.85 -638.57,317.58 -639.94,318.31 -641.31,319.05 -642.67,319.79 -644.03,320.54 -645.40,321.30 -646.76,322.07 -648.12,322.84 -649.48,323.62 -650.85,324.41 -652.21,325.21 -653.58,326.01 -654.94,326.82 -656.31,327.63 -657.68,328.46 -659.05,329.29 -660.42,330.12 -661.79,330.97 -663.16,331.82 -664.53,332.67 -665.90,333.54 -667.27,334.41 -668.64,335.28 -670.02,336.16 -671.39,337.05 -672.77,337.95 -674.14,338.85 -675.52,339.76 -676.89,340.68 -678.26,341.59 -679.61,342.51 -680.96,343.43 -682.30,344.35 -683.63,345.27 -684.95,346.18 -686.26,347.10 -687.57,348.02 -688.86,348.93 -690.15,349.85 -691.43,350.76 -692.70,351.67 -693.97,352.58 -695.22,353.49 -696.47,354.39 -697.71,355.29 -698.95,356.19 -700.18,357.09 -701.42,357.99 -702.66,358.89 -703.90,359.80 -705.15,360.71 -706.39,361.62 -707.64,362.53 -708.89,363.45 -710.14,364.37 -711.40,365.29 -712.65,366.22 -713.91,367.15 -715.16,368.08 -716.42,369.02 -717.68,369.96 -718.93,370.90 -720.19,371.85 -721.45,372.81 -722.71,373.77 -723.97,374.73 -725.23,375.70 -726.49,376.67 -727.74,377.65 -729.00,378.63 -730.26,379.62 -731.51,380.61 -732.77,381.61 -734.02,382.61 -735.27,383.61 -736.53,384.62 -737.77,385.64 -739.02,386.66 -740.26,387.68 -741.50,388.70 -742.74,389.73 -743.98,390.77 -745.21,391.80 -746.44,392.84 -747.66,393.88 -748.89,394.93 -750.11,395.98 -751.33,397.03 -752.54,398.08 -753.75,399.14 -754.96,400.21 -756.16,401.27 -757.37,402.35 -758.57,403.42 -759.77,404.50 -760.97,405.58 -762.16,406.67 -763.36,407.77 -764.55,408.86 -765.75,409.96 -766.94,411.07 -768.13,412.18 -769.32,413.29 -770.51,414.41 -771.70,415.53 -772.89,416.66 -774.08,417.79 -775.26,418.92 -776.45,420.06 -777.63,421.20 -778.82,422.34 -780.00,423.49 -781.19,424.64 -782.37,425.79 -783.56,426.95 -784.74,428.11 -785.92,429.27 -787.11,430.43 -788.29,431.60 -789.48,432.77 -790.66,433.94 -791.85,435.12 -793.04,436.29 -794.22,437.47 -795.41,438.66 -796.60,439.84 -797.79,441.03 -798.98,442.21 -800.17,443.40 -801.36,444.59 -802.55,445.79 -803.75,446.98 -804.94,448.18 -806.14,449.38 -807.34,450.58 -808.53,451.78 -809.72,452.98 -810.91,454.17 -812.08,455.35 -813.25,456.52 -814.40,457.69 -815.55,458.85 -816.70,460.00 -817.83,461.15 -818.96,462.29 -820.07,463.42 -821.18,464.54 -822.28,465.66 -823.38,466.76 -824.46,467.87 -825.54,468.96 -826.61,470.04 -827.67,471.12 -828.74,472.20 -829.80,473.28 -830.86,474.36 -831.93,475.44 -832.99,476.52 -834.06,477.61 -835.13,478.69 -836.20,479.78 -837.27,480.87 -838.34,481.96 -839.41,483.05 -840.48,484.14 -841.56,485.23 -842.63,486.32 -843.71,487.41 -844.78,488.51 -845.86,489.61 -846.94,490.70 -848.02,491.80 -849.10,492.90 -850.18,494.00 -851.27,495.09 -852.35,496.19 -853.44,497.29 -854.53,498.39 -855.62,499.49 -856.71,500.59 -857.81,501.69 -858.91,502.79 -860.01,503.89 -861.11,504.99 -862.21,506.08 -863.32,507.18 -864.43,508.27 -865.55,509.36 -866.67,510.45 -867.79,511.53 -868.92,512.62 -870.05,513.70 -871.18,514.78 -872.32,515.85 -873.46,516.92 -874.61,517.99 -875.77,519.05 -876.93,520.11 -878.09,521.17 -879.26,522.22 -880.43,523.27 -881.61,524.31 -882.79,525.35 -883.98,526.39 -885.18,527.42 -886.38,528.45 -887.58,529.47 -888.79,530.49 -890.00,531.50 -891.22,532.51 -892.45,533.51 -893.68,534.51 -894.91,535.50 -896.15,536.49 -897.40,537.47 -898.65,538.44 -899.90,539.41 -901.16,540.37 -902.43,541.32 -903.69,542.26 -904.97,543.19 -906.24,544.12 -907.53,545.04 -908.81,545.95 -910.10,546.85 -911.40,547.74 -912.70,548.62 -914.00,549.49 -915.31,550.35 -916.63,551.20 -917.95,552.05 -919.27,552.88 -920.60,553.71 -921.94,554.53 -923.28,555.34 -924.62,556.14 -925.97,556.94 -927.33,557.73 -928.68,558.51 -930.05,559.28 -931.42,560.05 -932.79,560.81 -934.17,561.56 -935.55,562.31 -936.94,563.05 -938.33,563.78 -939.73,564.51 -941.13,565.23 -942.54,565.94 -943.95,566.65 -945.36,567.34 -946.78,568.03 -948.20,568.72 -949.63,569.39 -951.06,570.06 -952.50,570.72 -953.94,571.38 -955.38,572.02 -956.83,572.66 -958.28,573.29 -959.74,573.91 -961.20,574.53 -962.67,575.13 -964.14,575.73 -965.61,576.33 -967.08,576.91 -968.56,577.49 -970.04,578.06 -971.53,578.63 -973.01,579.19 -974.50,579.75 -975.99,580.30 -977.48,580.84 -978.96,581.38 -980.45,581.92 -981.93,582.45 -983.41,582.98 -984.89,583.51 -986.38,584.04 -987.88,584.57 -989.38,585.10 -990.88,585.63 -992.38,586.16 -993.89,586.69 -995.39,587.22 -996.90,587.75 -998.40,588.28 -999.90,588.81 -1001.40,589.34 -1002.89,589.86 -1004.39,590.39 -1005.90,590.92 -1007.41,591.45 -1008.93,591.98 -1010.44,592.51 -1011.95,593.04 -1013.44,593.57 -1014.93,594.09 -1016.42,594.61 -1017.91,595.13 -1019.40,595.65 -1020.90,596.18 -1022.39,596.70 -1023.88,597.22 -1025.37,597.75 -1026.86,598.27 -1028.36,598.79 -1029.86,599.32 -1031.35,599.84 -1032.84,600.36 -1034.32,600.88 -1035.80,601.40 -1037.29,601.92 -1038.77,602.44 -1040.26,602.96 -1041.75,603.48 -1043.22,603.99 -1044.70,604.51 -1046.17,605.03 -1047.65,605.54 -1049.12,606.06 -1050.59,606.57 -1052.07,607.09 -1053.54,607.60 -1055.01,608.11 -1056.48,608.63 -1057.95,609.14 -1059.41,609.65 -1060.88,610.17 -1062.35,610.68 -1063.81,611.19 -1065.27,611.70 -1066.73,612.21 -1068.20,612.72 -1069.65,613.24 -1071.10,613.76 -1072.55,614.28 -1074.00,614.81 -1075.44,615.36 -1076.88,615.91 -1078.32,616.47 -1079.74,617.05 -1081.15,617.65 -1082.56,618.27 -1083.95,618.91 -1085.32,619.57 -1086.68,620.26 -1088.02,620.99 -1089.35,621.74 -1090.64,622.54 -1091.91,623.37 -1093.16,624.24 -1094.36,625.15 -1095.53,626.10 -1096.65,627.09 -1097.73,628.13 -1098.76,629.21 -1099.73,630.32 -1100.65,631.48 -1101.51,632.68 -1102.31,633.92 -1103.04,635.19 -1103.70,636.50 -1104.30,637.85 -1104.82,639.22 -1105.27,640.62 -1105.65,642.04 -1105.96,643.48 -1106.20,644.94 -1106.38,646.41 -1106.50,647.89 -1106.55,649.39 -1106.55,650.89 -1106.50,652.40 -1106.40,653.91 -1106.25,655.42 -1106.06,656.94 -1105.84,658.45 -1105.58,659.97 -1105.30,661.48 -1104.98,662.98 -1104.64,664.49 -1104.29,665.99 -1103.91,667.49 -1103.52,668.98 -1103.11,670.47 -1102.68,671.96 -1102.25,673.44 -1101.80,674.92 -1101.34,676.40 -1100.87,677.88 -1100.40,679.36 -1099.91,680.83 -1099.42,682.30 -1098.92,683.76 -1098.41,685.23 -1097.90,686.70 -1097.38,688.17 -1096.86,689.63 -1096.34,691.09 -1095.81,692.56 -1095.28,694.02 -1094.74,695.48 -1094.21,696.95 -1093.66,698.42 -1093.12,699.88 -1092.57,701.34 -1092.02,702.79 -1091.47,704.24 -1090.90,705.69 -1090.33,707.14 -1089.75,708.58 -1089.15,710.00 -1088.55,711.42 -1087.93,712.84 -1087.29,714.25 -1086.63,715.65 -1085.95,717.04 -1085.25,718.43 -1084.53,719.79 -1083.78,721.15 -1083.01,722.48 -1082.21,723.81 -1081.39,725.12 -1080.54,726.40 -1079.66,727.67 -1078.75,728.92 -1077.82,730.15 -1076.86,731.36 -1075.87,732.54 -1074.86,733.70 -1073.82,734.83 -1072.76,735.94 -1071.68,737.01 -1070.57,738.06 -1069.44,739.07 -1068.29,740.06 -1067.12,741.01 -1065.92,741.94 -1064.71,742.84 -1063.47,743.71 -1062.22,744.56 -1060.94,745.37 -1059.65,746.16 -1058.33,746.91 -1056.99,747.64 -1055.64,748.35 -1054.26,749.02 -1052.87,749.66 -1051.46,750.28 -1050.04,750.87 -1048.61,751.43 -1047.16,751.96 -1045.71,752.46 -1044.24,752.93 -1042.76,753.37 -1041.27,753.79 -1039.78,754.17 -1038.27,754.52 -1036.75,754.85 -1035.23,755.15 -1033.70,755.41 -1032.16,755.65 -1030.62,755.86 -1029.07,756.04 -1027.53,756.19 -1025.99,756.32 -1024.44,756.42 -1022.89,756.49 -1021.33,756.54 -1019.77,756.56 -1018.21,756.56 -1016.65,756.54 -1015.09,756.48 -1013.52,756.41 -1011.96,756.31 -1010.39,756.18 -1008.83,756.03 -1007.27,755.86 -1005.72,755.66 -1004.17,755.45 -1002.63,755.21 -1001.10,754.95 -999.56,754.67 -998.03,754.37 -996.50,754.05 -994.97,753.71 -993.45,753.34 -991.93,752.96 -990.42,752.56 -988.91,752.14 -987.40,751.71 -985.90,751.26 -984.40,750.80 -982.90,750.33 -981.40,749.86 -979.90,749.37 -978.40,748.88 -976.91,748.38 -975.42,747.87 -973.93,747.37 -972.44,746.85 -970.96,746.34 -969.47,745.82 -967.99,745.31 -966.51,744.79 -965.03,744.26 -963.56,743.74 -962.08,743.21 -960.61,742.67 -959.14,742.14 -957.68,741.59 -956.22,741.04 -954.76,740.49 -953.29,739.92 -951.82,739.34 -950.34,738.75 -948.87,738.16 -947.39,737.55 -945.90,736.93 -944.42,736.31 -942.95,735.68 -941.49,735.04 -940.03,734.40 -938.57,733.76 -937.12,733.11 -935.68,732.46 -934.24,731.80 -932.81,731.14 -931.39,730.48 -929.97,729.82 -928.55,729.15 -927.14,728.49 -925.74,727.83 -924.34,727.16 -922.95,726.50 -921.56,725.85 -920.18,725.19 -918.79,724.53 -917.40,723.87 -916.01,723.21 -914.62,722.55 -913.22,721.88 -911.83,721.22 -910.43,720.56 -909.03,719.90 -907.63,719.24 -906.23,718.58 -904.82,717.91 -903.42,717.25 -902.01,716.59 -900.60,715.93 -899.18,715.27 -897.76,714.61 -896.34,713.94 -894.91,713.28 -893.48,712.62 -892.04,711.96 -890.60,711.30 -889.16,710.64 -887.71,709.98 -886.25,709.32 -884.79,708.66 -883.33,708.00 -881.86,707.35 -880.38,706.69 -878.91,706.04 -877.42,705.39 -875.93,704.74 -874.44,704.09 -872.94,703.44 -871.44,702.80 -869.93,702.15 -868.42,701.51 -866.90,700.87 -865.38,700.23 -863.85,699.59 -862.33,698.95 -860.82,698.32 -859.31,697.70 -857.81,697.08 -856.31,696.47 -854.82,695.86 -853.33,695.25 -851.85,694.65 -850.38,694.06 -848.92,693.47 -847.46,692.88 -846.01,692.30 -844.56,691.72 -843.13,691.14 -841.70,690.57 -840.27,690.01 -838.86,689.44 -837.44,688.88 -836.02,688.31 -834.59,687.74 -833.17,687.18 -831.74,686.61 -830.31,686.04 -828.87,685.47 -827.44,684.90 -826.00,684.32 -824.56,683.75 -823.11,683.18 -821.67,682.60 -820.22,682.02 -818.77,681.44 -817.31,680.86 -815.86,680.28 -814.40,679.70 -812.94,679.11 -811.47,678.53 -810.01,677.94 -808.54,677.36 -807.07,676.77 -805.60,676.18 -804.12,675.59 -802.65,675.00 -801.17,674.41 -799.69,673.82 -798.21,673.23 -796.72,672.63 -795.24,672.04 -793.76,671.45 -792.28,670.86 -790.81,670.28 -789.34,669.69 -787.87,669.11 -786.40,668.52 -784.93,667.94 -783.45,667.35 -781.98,666.77 -780.50,666.18 -779.02,665.60 -777.55,665.03 -776.07,664.45 -774.60,663.88 -773.13,663.32 -771.66,662.76 -770.19,662.21 -768.72,661.67 -767.25,661.13 -765.76,660.61 -764.27,660.09 -762.77,659.58 -761.26,659.08 -759.75,658.60 -758.24,658.13 -756.72,657.68 -755.20,657.25 -753.67,656.83 -752.13,656.44 -750.59,656.06 -749.04,655.70 -747.49,655.36 -745.93,655.04 -744.36,654.73 -742.79,654.45 -741.21,654.19 -739.63,653.95 -738.06,653.73 -736.49,653.53 -734.92,653.36 -733.36,653.21 -731.80,653.08 -730.24,652.97 -728.69,652.88 -727.15,652.81 -725.61,652.77 -724.06,652.75 -722.51,652.75 -720.96,652.77 -719.41,652.82 -717.85,652.89 -716.29,652.99 -714.73,653.11 -713.17,653.26 -711.60,653.43 -710.04,653.62 -708.47,653.84 -706.91,654.09 -705.34,654.36 -703.77,654.66 -702.19,654.98 -700.62,655.32 -699.04,655.69 -697.46,656.07 -695.89,656.46 -694.34,656.87 -692.79,657.29 -691.26,657.71 -689.73,658.14 -688.20,658.58 -686.69,659.01 -685.17,659.44 -683.66,659.87 -682.15,660.30 -680.65,660.71 -679.14,661.12 -677.64,661.52 -676.14,661.90 -674.64,662.28 -673.14,662.64 -671.64,662.98 -670.13,663.31 -668.61,663.64 -667.09,663.95 -665.56,664.24 -664.02,664.53 -662.47,664.80 -660.92,665.07 -659.35,665.32 -657.79,665.55 -656.21,665.78 -654.63,666.00 -653.04,666.20 -651.44,666.39 -649.84,666.57 -648.22,666.74 -646.62,666.90 -645.01,667.05 -643.41,667.18 -641.81,667.31 -640.22,667.43 -638.63,667.53 -637.05,667.63 -635.46,667.72 -633.89,667.80 -632.31,667.88 -630.75,667.94 -629.18,668.00 -627.62,668.06 -626.07,668.11 -624.52,668.15 -622.98,668.20 -621.44,668.23 -619.89,668.27 -618.35,668.30 -616.79,668.33 -615.24,668.35 -613.68,668.38 -612.11,668.40 -610.54,668.42 -608.97,668.43 -607.39,668.45 -605.81,668.46 -604.22,668.47 -602.63,668.48 -601.04,668.48 -599.44,668.48 -597.84,668.48 -596.23,668.48 -594.62,668.47 -593.01,668.46 -591.40,668.45 -589.79,668.44 -588.18,668.43 -586.58,668.41 -584.98,668.39 -583.38,668.37 -581.77,668.35 -580.17,668.33 -578.57,668.31 -576.97,668.28 -575.37,668.26 -573.79,668.23 -572.20,668.21 -570.61,668.18 -569.02,668.15 -567.44,668.13 -565.86,668.10 -564.28,668.07 -562.71,668.03 -561.13,668.00 -559.55,667.97 -557.97,667.94 -556.39,667.90 -554.83,667.87 -553.26,667.84 -551.69,667.80 -550.12,667.76 -548.56,667.73 -546.99,667.69 -545.42,667.65 -543.86,667.61 -542.30,667.57 -540.75,667.53 -539.19,667.49 -537.63,667.45 -536.07,667.40 -534.51,667.35 -532.96,667.30 -531.40,667.25 -529.85,667.19 -528.29,667.13 -526.73,667.06 -525.18,666.98 -523.64,666.90 -522.09,666.80 -520.54,666.69 -518.99,666.57 -517.46,666.43 -515.92,666.26 -514.39,666.08 -512.87,665.87 -511.35,665.63 -509.84,665.36 -508.35,665.05 -506.86,664.70 -505.39,664.31 -503.94,663.87 -502.51,663.39 -501.10,662.85 -499.72,662.26 -498.37,661.61 -497.06,660.90 -495.78,660.13 -494.54,659.31 -493.33,658.43 -492.17,657.49 -491.05,656.51 -489.96,655.48 -488.91,654.41 -487.88,653.30 -486.88,652.17 -485.89,651.01 -484.92,649.83 -483.95,648.65 -482.98,647.47 -482.01,646.29 -481.03,645.12 -480.02,643.98 -479.00,642.86 -477.95,641.78 -476.86,640.74 -475.74,639.74 -474.59,638.78 -473.39,637.88 -472.16,637.02 -470.89,636.21 -469.58,635.46 -468.25,634.76 -466.88,634.11 -465.50,633.51 -464.08,632.96 -462.65,632.47 -461.20,632.01 -459.74,631.60 -458.26,631.24 -456.76,630.91 -455.26,630.63 -453.75,630.38 -452.24,630.17 -450.71,630.00 -449.18,629.85 -447.65,629.75 -446.11,629.67 -444.57,629.62 -443.03,629.61 -441.48,629.62 -439.94,629.66 -438.40,629.72 -436.86,629.81 -435.32,629.92 -433.77,630.06 -432.23,630.22 -430.69,630.40 -429.16,630.60 -427.62,630.82 -426.09,631.06 -424.55,631.31 -423.03,631.58 -421.49,631.87 -419.96,632.17 -418.44,632.48 -416.92,632.80 -415.41,633.13 -413.89,633.47 -412.38,633.82 -410.86,634.18 -409.34,634.55 -407.83,634.93 -406.32,635.31 -404.81,635.70 -403.31,636.09 -401.81,636.49 -400.30,636.89 -398.80,637.29 -397.31,637.70 -395.81,638.10 -394.31,638.51 -392.80,638.92 -391.29,639.33 -389.77,639.74 -388.26,640.15 -386.75,640.55 -385.24,640.96 -383.74,641.36 -382.24,641.76 -380.73,642.15 -379.22,642.55 -377.71,642.94 -376.20,643.33 -374.68,643.73 -373.16,644.12 -371.64,644.51 -370.12,644.90 -368.59,645.29 -367.06,645.67 -365.53,646.06 -364.01,646.45 -362.49,646.83 -360.96,647.21 -359.44,647.60 -357.91,647.98 -356.39,648.36 -354.87,648.73 -353.34,649.11 -351.82,649.49 -350.29,649.86 -348.77,650.23 -347.25,650.60 -345.73,650.97 -344.21,651.34 -342.69,651.70 -341.17,652.06 -339.65,652.43 -338.13,652.79 -336.60,653.15 -335.06,653.52 -333.52,653.88 -331.96,654.24 -330.41,654.61 -328.84,654.97 -327.27,655.34 -325.70,655.71 -324.13,656.07 -322.57,656.43 -321.01,656.79 -319.45,657.15 -317.90,657.50 -316.35,657.86 -314.80,658.21 -313.26,658.56 -311.72,658.91 -310.19,659.26 -308.65,659.61 -307.13,659.95 -305.61,660.29 -304.09,660.63 -302.57,660.97 -301.06,661.30 -299.55,661.64 -298.04,661.97 -296.52,662.31 -295.00,662.65 -293.47,662.98 -291.95,663.32 -290.42,663.66 -288.89,663.99 -287.36,664.33 -285.83,664.67 -284.30,665.00 -282.77,665.34 -281.24,665.68 -279.70,666.02 -278.17,666.36 -276.63,666.70 -275.10,667.04 -273.56,667.38 -272.01,667.72 -270.47,668.06 -268.92,668.40 -267.37,668.74 -265.82,669.09 -264.26,669.43 -262.70,669.78 -261.14,670.12 -259.57,670.47 -258.00,670.82 -256.42,671.17 -254.84,671.52 -253.26,671.87 -251.67,672.23 -250.08,672.58 -248.49,672.94 -246.89,673.30 -245.29,673.65 -243.68,674.01 -242.08,674.37 -240.46,674.74 -238.85,675.10 -237.24,675.46 -235.65,675.82 -234.06,676.18 -232.49,676.53 -230.92,676.88 -229.37,677.23 -227.83,677.58 -226.29,677.92 -224.77,678.26 -223.26,678.60 -221.76,678.93 -220.27,679.26 -218.80,679.59 -217.33,679.91 -215.88,680.23 -214.43,680.55 -213.00,680.86 -211.57,681.17 -210.13,681.48 -208.70,681.79 -207.25,682.10 -205.81,682.41 -204.35,682.71 -202.89,683.02 -201.42,683.32 -199.95,683.63 -198.47,683.93 -196.98,684.23 -195.49,684.53 -194.00,684.83 -192.51,685.12 -191.01,685.41" fill="none" stroke="white" stroke-width="27" stroke-linecap="round" stroke-linejoin="round" />
<line x1="-192.90" y1="703.38" x2="-186.13" y2="668.02" stroke="black" stroke-width="8" />
<g transform="translate(-189.52,685.70) rotate(10.826466530439815)">
<polygon points="15,-3.0 21,0 15,3.0" fill="black" />
<polygon points="23,-3.0 29,0 23,3.0" fill="black" />
<polygon points="31,-3.0 37,0 31,3.0" fill="black" />
</g>
</svg>