<svg xmlns="http://www.w3.org/2000/svg" viewBox="-413.1472635906314 -566.543813880008 1050.5067968880044 856.996073540727" style="background-color:transparent">

    <defs>
        <pattern id="checkers" x="0" y="0" width="6" height="6" patternUnits="userSpaceOnUse">
            <rect x="0" y="0" width="3" height="3" fill="black" />
            <rect x="3" y="3" width="3" height="3" fill="black" />
        </pattern>
    </defs>
    
<polyline points="-193.00,116.55 -191.70,115.73 -190.41,114.90 -189.12,114.08 -187.83,113.27 -186.54,112.45 -185.26,111.64 -183.98,110.84 -182.71,110.04 -181.45,109.26 -180.19,108.48 -178.94,107.71 -177.69,106.94 -176.45,106.19 -175.20,105.44 -173.96,104.69 -172.72,103.95 -171.32,103.13 -169.93,102.31 -168.52,101.49 -167.11,100.67 -165.70,99.85 -164.28,99.03 -162.86,98.21 -161.44,97.39 -160.01,96.57 -158.57,95.76 -157.13,94.94 -155.69,94.12 -154.25,93.30 -152.80,92.48 -151.35,91.66 -149.89,90.84 -148.43,90.02 -147.12,89.28 -145.81,88.54 -144.50,87.81 -143.18,87.07 -141.87,86.34 -140.56,85.61 -139.25,84.87 -137.93,84.14 -136.62,83.41 -135.30,82.68 -133.99,81.96 -132.67,81.23 -131.35,80.51 -130.03,79.78 -128.71,79.06 -127.39,78.34 -126.07,77.63 -124.75,76.91 -123.42,76.20 -122.10,75.49 -120.77,74.78 -119.44,74.08 -118.11,73.38 -116.78,72.67 -115.45,71.98 -114.12,71.28 -112.79,70.58 -111.45,69.89 -110.12,69.20 -108.78,68.51 -107.44,67.82 -106.11,67.13 -104.77,66.45 -103.43,65.77 -102.09,65.08 -100.75,64.40 -99.40,63.72 -98.06,63.05 -96.72,62.37 -95.37,61.70 -94.03,61.03 -92.68,60.36 -91.33,59.70 -89.98,59.03 -88.63,58.38 -87.28,57.73 -85.92,57.08 -84.56,56.44 -83.20,55.80 -81.83,55.18 -80.45,54.55 -79.06,53.94 -77.66,53.33 -76.26,52.73 -74.84,52.14 -73.42,51.55 -72.00,50.98 -70.57,50.42 -69.13,49.88 -67.70,49.34 -66.26,48.81 -64.81,48.29 -63.36,47.79 -61.91,47.29 -60.45,46.80 -59.00,46.32 -57.54,45.86 -56.09,45.40 -54.63,44.95 -53.19,44.52 -51.74,44.09 -50.30,43.67 -48.86,43.26 -47.41,42.86 -45.96,42.46 -44.51,42.07 -43.06,41.68 -41.61,41.30 -40.15,40.93 -38.70,40.56 -37.24,40.20 -35.78,39.84 -34.32,39.49 -32.86,39.14 -31.39,38.80 -29.93,38.47 -28.46,38.14 -27.00,37.81 -25.53,37.49 -24.06,37.18 -22.58,36.87 -21.10,36.56 -19.62,36.26 -18.14,35.95 -16.65,35.66 -15.16,35.36 -13.66,35.07 -12.17,34.78 -10.67,34.50 -9.16,34.21 -7.66,33.93 -6.15,33.65 -4.64,33.38 -3.12,33.10 -1.61,32.83 -0.09,32.56 1.42,32.29 2.94,32.02 4.45,31.75 5.96,31.48 7.47,31.21 8.98,30.94 10.49,30.66 12.00,30.38 13.50,30.10 15.00,29.81 16.50,29.52 18.00,29.21 19.49,28.89 20.97,28.57 22.45,28.22 23.93,27.85 25.40,27.47 26.87,27.06 28.33,26.63 29.77,26.16 31.21,25.68 32.63,25.16 34.04,24.60 35.43,24.01 36.81,23.39 38.17,22.73 39.52,22.03 40.84,21.30 42.15,20.54 43.44,19.74 44.72,18.91 45.98,18.06 47.23,17.18 48.46,16.29 49.69,15.38 50.92,14.46 52.15,13.54 53.37,12.63 54.61,11.72 55.85,10.83 57.10,9.96 58.37,9.13 59.65,8.33 60.95,7.57 62.28,6.87 63.62,6.21 64.99,5.62 66.38,5.09 67.79,4.63 69.21,4.24 70.65,3.93 72.10,3.70 73.56,3.55 75.03,3.47 76.51,3.45 77.99,3.49 79.48,3.59 80.98,3.73 82.47,3.91 83.97,4.13 85.47,4.38 86.97,4.64 88.47,4.92 89.97,5.20 91.47,5.49 92.97,5.76 94.47,6.03 95.98,6.27 97.49,6.49 99.00,6.68 100.52,6.84 102.05,6.98 103.57,7.09 105.10,7.17 106.63,7.23 108.16,7.26 109.70,7.27 111.23,7.25 112.76,7.21 114.29,7.15 115.82,7.06 117.35,6.95 118.88,6.82 120.41,6.66 121.93,6.48 123.45,6.28 124.97,6.06 126.49,5.82 128.00,5.56 129.51,5.28 131.01,4.98 132.52,4.67 134.01,4.34 135.51,3.99 137.00,3.63 138.49,3.25 139.99,2.86 141.47,2.46 142.95,2.05 144.43,1.63 145.91,1.20 147.38,0.75 148.85,0.30 150.32,-0.16 151.78,-0.63 153.25,-1.11 154.71,-1.61 156.18,-2.11 157.64,-2.62 159.09,-3.13 160.54,-3.66 161.98,-4.20 163.42,-4.75 164.85,-5.31 166.27,-5.89 167.70,-6.48 169.12,-7.08 170.53,-7.69 171.95,-8.32 173.36,-8.97 174.75,-9.63 176.14,-10.30 177.52,-10.98 178.89,-11.67 180.26,-12.37 181.62,-13.09 182.98,-13.81 184.33,-14.55 185.68,-15.29 187.03,-16.05 188.37,-16.81 189.71,-17.58 191.05,-18.35 192.39,-19.13 193.72,-19.92 195.05,-20.71 196.38,-21.50 197.72,-22.30 199.06,-23.10 200.39,-23.91 201.74,-24.72 203.08,-25.54 204.43,-26.36 205.78,-27.17 207.12,-27.99 208.46,-28.81 209.80,-29.63 211.13,-30.44 212.46,-31.26 213.79,-32.06 215.11,-32.87 216.43,-33.67 217.75,-34.47 219.07,-35.26 220.38,-36.05 221.69,-36.83 222.99,-37.60 224.30,-38.36 225.60,-39.12 226.90,-39.87 228.21,-40.62 229.51,-41.35 230.82,-42.09 232.13,-42.82 233.45,-43.54 234.77,-44.26 236.09,-44.97 237.42,-45.68 238.74,-46.38 240.07,-47.08 241.40,-47.77 242.74,-48.47 244.07,-49.16 245.41,-49.84 246.75,-50.53 248.09,-51.21 249.43,-51.89 250.77,-52.57 252.11,-53.25 253.45,-53.94 254.79,-54.62 256.13,-55.30 257.47,-55.98 258.81,-56.67 260.14,-57.35 261.48,-58.04 262.81,-58.73 264.15,-59.43 265.48,-60.12 266.81,-60.83 268.14,-61.53 269.46,-62.24 270.78,-62.96 272.10,-63.69 273.42,-64.42 274.74,-65.17 276.06,-65.93 277.38,-66.70 278.69,-67.49 280.00,-68.29 281.31,-69.11 282.60,-69.94 283.89,-70.79 285.17,-71.65 286.44,-72.54 287.70,-73.44 288.95,-74.36 290.18,-75.29 291.40,-76.25 292.61,-77.23 293.80,-78.23 294.97,-79.25 296.12,-80.29 297.25,-81.34 298.36,-82.42 299.45,-83.52 300.52,-84.64 301.57,-85.77 302.59,-86.93 303.59,-88.11 304.57,-89.30 305.53,-90.51 306.46,-91.75 307.37,-93.00 308.25,-94.27 309.11,-95.56 309.95,-96.87 310.76,-98.19 311.54,-99.52 312.29,-100.87 313.03,-102.24 313.74,-103.62 314.43,-105.01 315.10,-106.40 315.75,-107.80 316.39,-109.21 317.02,-110.62 317.64,-112.03 318.25,-113.45 318.85,-114.88 319.44,-116.30 320.03,-117.73 320.61,-119.16 321.19,-120.59 321.77,-122.03 322.35,-123.46 322.93,-124.90 323.50,-126.34 324.07,-127.78 324.64,-129.22 325.21,-130.68 325.77,-132.14 326.32,-133.60 326.87,-135.08 327.41,-136.56 327.94,-138.04 328.46,-139.54 328.97,-141.04 329.47,-142.54 329.97,-144.05 330.45,-145.57 330.92,-147.08 331.38,-148.60 331.83,-150.12 332.27,-151.64 332.70,-153.15 333.12,-154.66 333.52,-156.17 333.92,-157.67 334.31,-159.18 334.69,-160.69 335.06,-162.20 335.43,-163.71 335.79,-165.21 336.15,-166.72 336.50,-168.22 336.85,-169.72 337.19,-171.21 337.54,-172.71 337.88,-174.20 338.22,-175.70 338.56,-177.20 338.91,-178.70 339.26,-180.21 339.61,-181.71 339.96,-183.22 340.32,-184.72 340.68,-186.21 341.05,-187.70 341.42,-189.19 341.81,-190.67 342.20,-192.15 342.60,-193.63 343.02,-195.10 343.46,-196.57 343.91,-198.03 344.38,-199.47 344.87,-200.91 345.39,-202.34 345.93,-203.76 346.51,-205.16 347.11,-206.54 347.76,-207.91 348.44,-209.25 349.16,-210.58 349.93,-211.87 350.74,-213.13 351.60,-214.35 352.50,-215.53 353.46,-216.67 354.46,-217.76 355.51,-218.80 356.61,-219.80 357.75,-220.76 358.92,-221.67 360.13,-222.55 361.37,-223.39 362.63,-224.20 363.91,-224.99 365.21,-225.77 366.52,-226.53 367.83,-227.29 369.14,-228.04 370.44,-228.81 371.73,-229.60 373.00,-230.40 374.24,-231.24 375.46,-232.11 376.65,-233.02 377.81,-233.97 378.92,-234.97 380.00,-236.00 381.03,-237.08 382.02,-238.20 382.96,-239.36 383.86,-240.55 384.71,-241.78 385.52,-243.05 386.29,-244.34 387.01,-245.66 387.70,-247.00 388.36,-248.36 388.98,-249.75 389.58,-251.15 390.14,-252.56 390.69,-253.98 391.21,-255.42 391.72,-256.87 392.22,-258.32 392.71,-259.77 393.19,-261.23 393.67,-262.68 394.16,-264.14 394.64,-265.60 395.12,-267.06 395.61,-268.51 396.10,-269.96 396.60,-271.41 397.10,-272.86 397.61,-274.31 398.12,-275.76 398.64,-277.21 399.16,-278.65 399.70,-280.09 400.24,-281.53 400.78,-282.96 401.34,-284.39 401.91,-285.82 402.48,-287.25 403.06,-288.67 403.65,-290.09 404.25,-291.51 404.86,-292.92 405.48,-294.33 406.10,-295.74 406.74,-297.15 407.38,-298.55 408.03,-299.95 408.69,-301.34 409.35,-302.74 410.03,-304.12 410.71,-305.51 411.40,-306.89 412.10,-308.27 412.80,-309.64 413.51,-311.02 414.23,-312.39 414.96,-313.75 415.69,-315.12 416.42,-316.47 417.17,-317.82 417.91,-319.17 418.67,-320.51 419.43,-321.86 420.20,-323.20 420.98,-324.53 421.76,-325.87 422.55,-327.21 423.35,-328.54 424.16,-329.86 424.97,-331.17 425.78,-332.48 426.61,-333.78 427.44,-335.07 428.27,-336.36 429.12,-337.65 429.98,-338.93 430.84,-340.21 431.71,-341.48 432.60,-342.75 433.49,-344.01 434.39,-345.27 435.29,-346.52 436.21,-347.77 437.13,-349.01 438.07,-350.25 439.01,-351.49 439.97,-352.73 440.94,-353.96 441.91,-355.19 442.90,-356.42 443.89,-357.65 444.89,-358.87 445.90,-360.09 446.92,-361.31 447.95,-362.52 448.98,-363.73 450.02,-364.93 451.05,-366.12 452.09,-367.30 453.13,-368.47 454.18,-369.63 455.23,-370.78 456.27,-371.93 457.32,-373.06 458.37,-374.19 459.43,-375.31 460.48,-376.42 461.53,-377.52 462.59,-378.61 463.65,-379.69 464.70,-380.77 465.76,-381.84 466.82,-382.90 467.88,-383.96 468.95,-385.02 470.02,-386.07 471.10,-387.12 472.18,-388.17 473.26,-389.21 474.34,-390.25 475.43,-391.29 476.51,-392.33 477.61,-393.36 478.70,-394.39 479.79,-395.42 480.89,-396.45 481.99,-397.48 483.09,-398.50 484.19,-399.52 485.30,-400.54 486.41,-401.56 487.51,-402.58 488.62,-403.59 489.74,-404.60 490.85,-405.61 491.97,-406.62 493.09,-407.62 494.21,-408.62 495.33,-409.62 496.46,-410.61 497.59,-411.61 498.72,-412.60 499.86,-413.58 500.99,-414.57 502.13,-415.54 503.28,-416.52 504.42,-417.49 505.57,-418.46 506.72,-419.43 507.88,-420.40 509.03,-421.36 510.19,-422.31 511.35,-423.27 512.51,-424.22 513.68,-425.17 514.85,-426.12 516.01,-427.07 517.19,-428.01 518.36,-428.95 519.53,-429.89 520.70,-430.83 521.88,-431.77 523.06,-432.71 524.24,-433.64 525.42,-434.57 526.60,-435.51 527.78,-436.44 528.96,-437.37 530.14,-438.30 531.32,-439.23 532.51,-440.15 533.69,-441.08 534.87,-442.01 536.06,-442.94 537.24,-443.86 538.43,-444.79 539.61,-445.72 540.79,-446.64 541.98,-447.57 543.16,-448.50 544.35,-449.42 545.53,-450.35 546.71,-451.28 547.90,-452.21 549.08,-453.13 550.26,-454.06 551.45,-454.99 552.63,-455.92 553.81,-456.85 555.00,-457.78 556.19,-458.72 557.38,-459.66 558.57,-460.60 559.77,-461.54 560.96,-462.48 562.16,-463.43 563.36,-464.38 564.55,-465.33 565.75,-466.27 566.95,-467.23 568.15,-468.18 569.35,-469.13 570.56,-470.09 571.76,-471.04 572.96,-472.00 574.16,-472.96 575.36,-473.91 576.56,-474.87 577.75,-475.82 578.95,-476.77 580.14,-477.72 581.33,-478.67 582.52,-479.62 583.71,-480.57 584.90,-481.52 586.10,-482.47 587.28,-483.42 588.47,-484.37 589.66,-485.32 590.84,-486.28 592.02,-487.24 593.20,-488.20 594.36,-489.18 595.52,-490.16 596.67,-491.16 597.80,-492.17 598.92,-493.20 600.01,-494.25 601.09,-495.32 602.13,-496.41 603.15,-497.52 604.13,-498.66 605.08,-499.83 605.99,-501.02 606.86,-502.25 607.68,-503.50 608.46,-504.78 609.19,-506.08 609.87,-507.42 610.49,-508.78 611.06,-510.16 611.56,-511.57 612.01,-512.99 612.39,-514.44 612.70,-515.89 612.95,-517.36 613.13,-518.83 613.23,-520.31 613.26,-521.78 613.21,-523.25 613.08,-524.72 612.87,-526.16 612.57,-527.59 612.19,-529.00 611.72,-530.37 611.16,-531.70 610.51,-532.98 609.78,-534.21 608.97,-535.37 608.07,-536.47 607.09,-537.48 606.05,-538.41 604.93,-539.25 603.75,-540.00 602.52,-540.66 601.23,-541.23 599.90,-541.71 598.53,-542.09 597.12,-542.40 595.69,-542.61 594.23,-542.75 592.76,-542.80 591.27,-542.78 589.78,-542.69 588.29,-542.54 586.80,-542.32 585.31,-542.05 583.83,-541.72 582.36,-541.36 580.90,-540.95 579.45,-540.51 578.02,-540.02 576.59,-539.50 575.18,-538.94 573.79,-538.34 572.41,-537.71 571.04,-537.04 569.70,-536.34 568.36,-535.60 567.04,-534.84 565.73,-534.04 564.44,-533.22 563.17,-532.38 561.90,-531.52 560.65,-530.63 559.41,-529.73 558.18,-528.82 556.97,-527.89 555.76,-526.95 554.55,-525.99 553.36,-525.03 552.17,-524.06 550.98,-523.08 549.81,-522.10 548.63,-521.11 547.46,-520.11 546.30,-519.11 545.13,-518.11 543.97,-517.10 542.82,-516.10 541.66,-515.09 540.51,-514.08 539.35,-513.07 538.19,-512.06 537.03,-511.04 535.88,-510.03 534.72,-509.02 533.57,-508.01 532.41,-507.00 531.26,-505.99 530.10,-504.98 528.94,-503.97 527.78,-502.96 526.62,-501.95 525.45,-500.94 524.29,-499.93 523.12,-498.93 521.95,-497.93 520.78,-496.93 519.61,-495.93 518.44,-494.93 517.28,-493.94 516.10,-492.95 514.92,-491.95 513.74,-490.96 512.56,-489.96 511.37,-488.96 510.18,-487.97 509.00,-486.97 507.81,-485.98 506.63,-484.99 505.44,-484.00 504.26,-483.01 503.08,-482.03 501.89,-481.03 500.70,-480.04 499.52,-479.05 498.33,-478.05 497.14,-477.06 495.95,-476.06 494.76,-475.06 493.57,-474.06 492.39,-473.06 491.20,-472.05 490.01,-471.05 488.82,-470.04 487.63,-469.02 486.44,-468.00 485.24,-466.98 484.05,-465.95 482.85,-464.92 481.65,-463.89 480.46,-462.85 479.26,-461.81 478.07,-460.77 476.88,-459.73 475.69,-458.68 474.50,-457.64 473.32,-456.59 472.14,-455.54 470.97,-454.50 469.79,-453.45 468.62,-452.41 467.46,-451.37 466.30,-450.32 465.14,-449.29 463.99,-448.25 462.84,-447.21 461.69,-446.17 460.54,-445.13 459.39,-444.10 458.25,-443.06 457.11,-442.03 455.97,-440.99 454.83,-439.96 453.70,-438.92 452.57,-437.89 451.44,-436.85 450.32,-435.80 449.21,-434.75 448.11,-433.70 447.03,-432.63 445.96,-431.54 444.90,-430.44 443.87,-429.32 442.86,-428.19 441.89,-427.03 440.94,-425.85 440.03,-424.65 439.15,-423.42 438.33,-422.17 437.55,-420.89 436.82,-419.58 436.16,-418.24 435.55,-416.88 435.01,-415.50 434.53,-414.09 434.12,-412.66 433.77,-411.22 433.49,-409.76 433.26,-408.29 433.09,-406.80 432.97,-405.31 432.90,-403.81 432.86,-402.30 432.85,-400.79 432.87,-399.27 432.91,-397.75 432.95,-396.23 432.99,-394.71 433.02,-393.19 433.04,-391.67 433.04,-390.15 433.01,-388.63 432.94,-387.12 432.84,-385.61 432.70,-384.10 432.52,-382.60 432.30,-381.10 432.03,-379.61 431.73,-378.13 431.38,-376.65 430.99,-375.18 430.57,-373.72 430.11,-372.28 429.61,-370.84 429.08,-369.41 428.53,-368.00 427.94,-366.59 427.33,-365.20 426.68,-363.82 426.01,-362.45 425.31,-361.09 424.59,-359.75 423.85,-358.42 423.08,-357.10 422.29,-355.79 421.47,-354.50 420.64,-353.22 419.78,-351.96 418.90,-350.71 418.01,-349.47 417.09,-348.25 416.15,-347.04 415.19,-345.85 414.21,-344.67 413.22,-343.51 412.21,-342.37 411.18,-341.23 410.13,-340.12 409.06,-339.01 407.98,-337.92 406.89,-336.84 405.78,-335.77 404.66,-334.72 403.53,-333.68 402.38,-332.65 401.23,-331.63 400.07,-330.62 398.90,-329.61 397.73,-328.62 396.55,-327.62 395.37,-326.63 394.18,-325.64 393.00,-324.66 391.81,-323.67 390.63,-322.69 389.44,-321.70 388.26,-320.71 387.09,-319.72 385.93,-318.71 384.77,-317.70 383.62,-316.68 382.48,-315.64 381.35,-314.60 380.24,-313.54 379.15,-312.47 378.08,-311.38 377.02,-310.28 375.99,-309.16 374.97,-308.03 373.98,-306.88 373.02,-305.71 372.08,-304.52 371.16,-303.31 370.28,-302.08 369.42,-300.83 368.59,-299.57 367.78,-298.28 367.01,-296.98 366.26,-295.66 365.53,-294.33 364.83,-292.98 364.15,-291.61 363.50,-290.23 362.86,-288.84 362.25,-287.44 361.65,-286.03 361.07,-284.61 360.51,-283.18 359.96,-281.74 359.42,-280.30 358.89,-278.85 358.38,-277.40 357.87,-275.95 357.38,-274.50 356.88,-273.04 356.40,-271.58 355.91,-270.11 355.43,-268.65 354.96,-267.18 354.49,-265.72 354.03,-264.26 353.56,-262.79 353.10,-261.32 352.64,-259.86 352.19,-258.39 351.73,-256.92 351.28,-255.44 350.82,-253.97 350.37,-252.50 349.92,-251.02 349.47,-249.55 349.03,-248.08 348.58,-246.61 348.14,-245.14 347.69,-243.67 347.25,-242.19 346.81,-240.71 346.37,-239.23 345.92,-237.74 345.48,-236.25 345.05,-234.77 344.61,-233.28 344.18,-231.80 343.75,-230.32 343.32,-228.84 342.89,-227.36 342.46,-225.88 342.03,-224.39 341.61,-222.91 341.18,-221.42 340.75,-219.93 340.32,-218.44 339.89,-216.95 339.46,-215.45 339.03,-213.96 338.59,-212.47 338.16,-210.98 337.72,-209.49 337.27,-207.99 336.82,-206.48 336.36,-204.98 335.90,-203.47 335.44,-201.96 334.96,-200.45 334.49,-198.94 334.00,-197.44 333.52,-195.95 333.03,-194.45 332.54,-192.97 332.04,-191.49 331.54,-190.01 331.04,-188.55 330.53,-187.09 330.02,-185.63 329.50,-184.19 328.99,-182.75 328.47,-181.31 327.95,-179.89 327.42,-178.47 326.89,-177.05 326.36,-175.65 325.83,-174.25 325.29,-172.84 324.75,-171.44 324.21,-170.04 323.66,-168.64 323.10,-167.24 322.55,-165.85 321.99,-164.45 321.43,-163.06 320.86,-161.67 320.29,-160.28 319.72,-158.88 319.15,-157.50 318.57,-156.11 317.99,-154.72 317.40,-153.33 316.82,-151.95 316.23,-150.57 315.64,-149.18 315.05,-147.80 314.45,-146.42 313.85,-145.04 313.25,-143.67 312.64,-142.29 312.04,-140.91 311.43,-139.54 310.81,-138.17 310.20,-136.79 309.58,-135.42 308.96,-134.05 308.33,-132.68 307.70,-131.30 307.07,-129.92 306.43,-128.55 305.79,-127.17 305.14,-125.79 304.49,-124.41 303.83,-123.03 303.17,-121.64 302.50,-120.26 301.83,-118.88 301.15,-117.51 300.47,-116.13 299.78,-114.76 299.08,-113.38 298.36,-112.01 297.64,-110.65 296.91,-109.29 296.16,-107.95 295.40,-106.61 294.62,-105.29 293.82,-103.98 293.01,-102.69 292.18,-101.41 291.32,-100.15 290.45,-98.90 289.56,-97.68 288.64,-96.47 287.70,-95.28 286.74,-94.11 285.75,-92.95 284.74,-91.81 283.71,-90.70 282.65,-89.60 281.59,-88.52 280.50,-87.46 279.39,-86.41 278.27,-85.39 277.13,-84.37 275.98,-83.37 274.81,-82.38 273.62,-81.41 272.42,-80.45 271.21,-79.51 269.99,-78.58 268.76,-77.66 267.51,-76.76 266.25,-75.88 264.98,-75.01 263.70,-74.16 262.41,-73.32 261.11,-72.50 259.80,-71.70 258.48,-70.91 257.15,-70.15 255.81,-69.40 254.46,-68.67 253.10,-67.95 251.73,-67.25 250.35,-66.57 248.96,-65.90 247.56,-65.25 246.16,-64.62 244.75,-64.01 243.34,-63.41 241.92,-62.83 240.49,-62.27 239.05,-61.72 237.61,-61.18 236.15,-60.66 234.69,-60.15 233.22,-59.66 231.75,-59.18 230.27,-58.72 228.79,-58.28 227.31,-57.85 225.83,-57.44 224.35,-57.04 222.85,-56.66 221.36,-56.30 219.86,-55.94 218.35,-55.61 216.84,-55.28 215.33,-54.98 213.82,-54.68 212.30,-54.41 210.77,-54.14 209.25,-53.89 207.72,-53.66 206.19,-53.43 204.65,-53.22 203.11,-53.02 201.55,-52.84 200.00,-52.66 198.44,-52.50 196.87,-52.34 195.30,-52.20 193.72,-52.06 192.15,-51.93 190.57,-51.81 189.01,-51.71 187.44,-51.60 185.88,-51.51 184.32,-51.42 182.77,-51.34 181.22,-51.27 179.67,-51.20 178.13,-51.14 176.58,-51.09 175.04,-51.04 173.51,-50.99 171.97,-50.95 170.44,-50.92 168.91,-50.89 167.39,-50.86 165.86,-50.84 164.33,-50.82 162.80,-50.81 161.27,-50.80 159.73,-50.80 158.19,-50.80 156.65,-50.80 155.10,-50.81 153.56,-50.82 152.02,-50.84 150.48,-50.86 148.94,-50.88 147.40,-50.90 145.87,-50.93 144.33,-50.96 142.80,-50.99 141.27,-51.02 139.73,-51.04 138.21,-51.06 136.68,-51.08 135.15,-51.08 133.63,-51.06 132.11,-51.03 130.59,-50.98 129.07,-50.91 127.56,-50.80 126.05,-50.67 124.55,-50.50 123.06,-50.30 121.57,-50.05 120.09,-49.77 118.63,-49.44 117.17,-49.06 115.73,-48.64 114.31,-48.16 112.90,-47.64 111.52,-47.07 110.15,-46.45 108.81,-45.78 107.48,-45.06 106.18,-44.30 104.90,-43.50 103.64,-42.66 102.41,-41.79 101.19,-40.89 99.98,-39.96 98.79,-39.01 97.62,-38.04 96.45,-37.05 95.29,-36.06 94.13,-35.06 92.96,-34.06 91.80,-33.06 90.63,-32.07 89.46,-31.08 88.27,-30.11 87.07,-29.16 85.86,-28.22 84.63,-27.31 83.39,-26.41 82.13,-25.54 80.86,-24.69 79.57,-23.86 78.26,-23.06 76.94,-22.28 75.61,-21.53 74.26,-20.80 72.89,-20.10 71.51,-19.42 70.12,-18.77 68.72,-18.14 67.31,-17.54 65.89,-16.96 64.46,-16.40 63.02,-15.87 61.57,-15.35 60.11,-14.85 58.65,-14.37 57.19,-13.90 55.72,-13.45 54.24,-13.02 52.76,-12.59 51.28,-12.18 49.79,-11.77 48.30,-11.37 46.81,-10.97 45.31,-10.58 43.82,-10.20 42.32,-9.81 40.82,-9.43 39.33,-9.06 37.83,-8.68 36.34,-8.30 34.84,-7.93 33.35,-7.55 31.85,-7.17 30.35,-6.79 28.84,-6.41 27.34,-6.02 25.84,-5.63 24.34,-5.24 22.84,-4.85 21.35,-4.46 19.86,-4.06 18.37,-3.67 16.88,-3.26 15.39,-2.86 13.90,-2.45 12.41,-2.04 10.92,-1.62 9.43,-1.20 7.94,-0.78 6.45,-0.35 4.96,0.08 3.47,0.52 1.98,0.96 0.48,1.40 -1.01,1.85 -2.52,2.30 -4.02,2.76 -5.53,3.22 -7.03,3.68 -8.53,4.15 -10.03,4.62 -11.53,5.09 -13.01,5.56 -14.50,6.03 -15.98,6.51 -17.46,6.99 -18.93,7.47 -20.39,7.94 -21.85,8.43 -23.30,8.91 -24.75,9.39 -26.19,9.88 -27.62,10.36 -29.05,10.85 -30.47,11.33 -31.89,11.83 -33.31,12.32 -34.73,12.82 -36.14,13.32 -37.56,13.82 -38.97,14.33 -40.39,14.84 -41.80,15.35 -43.21,15.87 -44.62,16.40 -46.03,16.92 -47.44,17.45 -48.84,17.99 -50.25,18.52 -51.65,19.07 -53.05,19.61 -54.45,20.16 -55.85,20.72 -57.25,21.27 -58.64,21.83 -60.04,22.40 -61.43,22.96 -62.82,23.53 -64.21,24.11 -65.60,24.68 -66.99,25.26 -68.37,25.85 -69.76,26.43 -71.14,27.02 -72.53,27.61 -73.91,28.20 -75.29,28.80 -76.67,29.40 -78.05,30.00 -79.43,30.60 -80.80,31.21 -82.18,31.82 -83.55,32.43 -84.93,33.04 -86.30,33.66 -87.67,34.28 -89.04,34.90 -90.41,35.52 -91.78,36.14 -93.15,36.77 -94.51,37.40 -95.88,38.03 -97.24,38.66 -98.61,39.29 -99.97,39.93 -101.33,40.57 -102.69,41.21 -104.06,41.85 -105.42,42.49 -106.77,43.14 -108.13,43.78 -109.49,44.43 -110.85,45.08 -112.20,45.73 -113.56,46.38 -114.92,47.03 -116.27,47.69 -117.62,48.35 -118.98,49.00 -120.33,49.66 -121.68,50.32 -123.03,50.99 -124.38,51.65 -125.73,52.31 -127.08,52.98 -128.43,53.65 -129.78,54.32 -131.12,54.99 -132.47,55.66 -133.81,56.33 -135.16,57.00 -136.50,57.68 -137.85,58.36 -139.19,59.03 -140.53,59.71 -141.87,60.39 -143.22,61.08 -144.56,61.76 -145.90,62.44 -147.23,63.13 -148.57,63.82 -149.91,64.50 -151.25,65.19 -152.58,65.88 -153.92,66.57 -155.26,67.27 -156.59,67.96 -157.92,68.66 -159.26,69.35 -160.59,70.05 -161.92,70.75 -163.25,71.45 -164.58,72.15 -165.91,72.86 -167.24,73.56 -168.57,74.27 -169.90,74.97 -171.23,75.68 -172.56,76.39 -173.88,77.10 -175.21,77.81 -176.53,78.52 -177.86,79.24 -179.18,79.95 -180.50,80.67 -181.82,81.39 -183.15,82.11 -184.47,82.83 -185.79,83.55 -187.11,84.27 -188.42,84.99 -189.74,85.72 -191.06,86.45 -192.38,87.17 -193.69,87.90 -195.01,88.63 -196.32,89.36 -197.64,90.10 -198.95,90.83 -200.26,91.57 -201.57,92.31 -202.88,93.05 -204.19,93.79 -205.49,94.54 -206.80,95.28 -208.10,96.03 -209.41,96.79 -210.71,97.54 -212.01,98.30 -213.30,99.06 -214.60,99.83 -215.89,100.59 -217.18,101.37 -218.47,102.14 -219.76,102.92 -221.04,103.70 -222.33,104.49 -223.61,105.27 -224.88,106.07 -226.16,106.86 -227.43,107.66 -228.70,108.47 -229.97,109.28 -231.24,110.09 -232.50,110.90 -233.76,111.72 -235.02,112.54 -236.28,113.37 -237.53,114.20 -238.79,115.03 -240.04,115.87 -241.28,116.71 -242.53,117.55 -243.77,118.40 -245.01,119.25 -246.25,120.10 -247.49,120.96 -248.72,121.82 -249.95,122.68 -251.18,123.55 -252.41,124.42 -253.64,125.30 -254.88,126.19 -256.11,127.08 -257.34,127.98 -258.57,128.89 -259.80,129.80 -261.02,130.72 -262.25,131.64 -263.47,132.57 -264.70,133.51 -265.91,134.46 -267.13,135.42 -268.35,136.38 -269.55,137.36 -270.76,138.34 -271.95,139.33 -273.14,140.32 -274.32,141.33 -275.49,142.33 -276.65,143.35 -277.80,144.37 -278.94,145.39 -280.07,146.43 -281.20,147.47 -282.32,148.51 -283.44,149.56 -284.56,150.60 -285.68,151.64 -286.81,152.66 -287.95,153.66 -289.11,154.64 -290.28,155.59 -291.48,156.49 -292.70,157.34 -293.94,158.12 -295.21,158.83 -296.50,159.45 -297.81,159.99 -299.14,160.42 -300.48,160.74 -301.84,160.95 -303.20,161.06 -304.57,161.05 -305.94,160.93 -307.32,160.71 -308.69,160.39 -310.06,159.98 -311.42,159.49 -312.78,158.93 -314.13,158.32 -315.48,157.68 -316.82,157.01 -318.17,156.34 -319.51,155.68 -320.87,155.05 -322.23,154.46 -323.59,153.94 -324.97,153.48 -326.36,153.10 -327.76,152.80 -329.17,152.60 -330.58,152.50 -331.99,152.49 -333.40,152.59 -334.80,152.78 -336.19,153.08 -337.57,153.46 -338.94,153.93 -340.28,154.49 -341.60,155.13 -342.89,155.84 -344.15,156.61 -345.39,157.45 -346.60,158.34 -347.78,159.28 -348.93,160.26 -350.05,161.28 -351.15,162.33 -352.22,163.41 -353.27,164.51 -354.29,165.64 -355.29,166.79 -356.27,167.96 -357.23,169.15 -358.16,170.36 -359.08,171.58 -359.97,172.82 -360.85,174.07 -361.71,175.34 -362.56,176.62 -363.38,177.90 -364.19,179.20 -364.99,180.51 -365.77,181.83 -366.54,183.15 -367.30,184.48 -368.04,185.82 -368.77,187.17 -369.49,188.52 -370.20,189.88 -370.90,191.24 -371.59,192.61 -372.27,193.99 -372.93,195.37 -373.59,196.76 -374.23,198.16 -374.86,199.56 -375.47,200.96 -376.08,202.37 -376.67,203.79 -377.25,205.21 -377.81,206.64 -378.36,208.08 -378.90,209.52 -379.41,210.97 -379.92,212.42 -380.40,213.87 -380.87,215.33 -381.32,216.80 -381.76,218.27 -382.17,219.74 -382.57,221.22 -382.96,222.70 -383.32,224.19 -383.67,225.69 -384.00,227.19 -384.31,228.69 -384.60,230.20 -384.87,231.71 -385.12,233.22 -385.35,234.73 -385.55,236.25 -385.73,237.77 -385.88,239.29 -386.00,240.82 -386.09,242.34 -386.14,243.86 -386.15,245.38 -386.10,246.89 -386.00,248.40 -385.85,249.89 -385.62,251.36 -385.33,252.81 -384.96,254.23 -384.51,255.61 -383.98,256.95 -383.37,258.25 -382.68,259.48 -381.89,260.65 -381.02,261.74 -380.08,262.76 -379.05,263.68 -377.95,264.50 -376.78,265.22 -375.55,265.83 -374.27,266.33 -372.95,266.72 -371.60,267.00 -370.21,267.16 -368.81,267.21 -367.40,267.16 -365.98,267.00 -364.56,266.74 -363.15,266.39 -361.75,265.96 -360.37,265.44 -359.01,264.85 -357.67,264.19 -356.35,263.47 -355.06,262.70 -353.79,261.89 -352.55,261.02 -351.33,260.12 -350.13,259.19 -348.96,258.22 -347.81,257.23 -346.68,256.21 -345.57,255.17 -344.48,254.10 -343.41,253.01 -342.35,251.91 -341.31,250.79 -340.28,249.65 -339.26,248.50 -338.26,247.34 -337.27,246.17 -336.28,245.00 -335.30,243.81 -334.33,242.63 -333.36,241.43 -332.39,240.24 -331.43,239.04 -330.46,237.84 -329.50,236.64 -328.53,235.45 -327.57,234.25 -326.60,233.05 -325.63,231.86 -324.66,230.67 -323.69,229.48 -322.71,228.29 -321.73,227.11 -320.75,225.92 -319.77,224.75 -318.79,223.57 -317.79,222.39 -316.80,221.21 -315.80,220.04 -314.81,218.87 -313.81,217.70 -312.81,216.54 -311.80,215.38 -310.79,214.22 -309.78,213.07 -308.76,211.92 -307.74,210.77 -306.72,209.61 -305.69,208.46 -304.65,207.32 -303.61,206.17 -302.57,205.03 -301.53,203.90 -300.48,202.77 -299.44,201.64 -298.38,200.52 -297.32,199.39 -296.26,198.27 -295.19,197.15 -294.12,196.02 -293.03,194.91 -291.95,193.79 -290.87,192.68 -289.79,191.58 -288.70,190.48 -287.61,189.39 -286.52,188.30 -285.43,187.22 -284.33,186.13 -283.23,185.05 -282.12,183.97 -281.01,182.89 -279.89,181.82 -278.77,180.75 -277.64,179.68 -276.52,178.62 -275.38,177.56 -274.25,176.50 -273.11,175.44 -271.96,174.39 -270.80,173.33 -269.63,172.28 -268.46,171.22 -267.29,170.17 -266.10,169.12 -264.92,168.08 -263.73,167.04 -262.54,166.01 -261.36,164.98 -260.17,163.97 -258.98,162.95 -257.79,161.95 -256.60,160.95 -255.41,159.97 -254.22,158.99 -253.04,158.01 -251.85,157.05 -250.66,156.09 -249.48,155.14 -248.30,154.20 -247.11,153.27 -245.93,152.34 -244.74,151.42 -243.55,150.51 -242.36,149.59 -241.16,148.69 -239.96,147.78 -238.76,146.88 -237.55,145.99 -236.34,145.10 -235.13,144.21 -233.91,143.33 -232.70,142.46 -231.48,141.59 -230.26,140.72 -229.04,139.87 -227.82,139.02 -226.60,138.18 -225.37,137.34 -224.15,136.51 -222.93,135.69 -221.71,134.87 -220.49,134.06 -219.27,133.25 -218.05,132.45 -216.83,131.65 -215.61,130.87 -214.39,130.08 -213.18,129.30 -211.96,128.52 -210.73,127.75 -209.51,126.97 -208.28,126.20 -207.04,125.42 -205.79,124.63 -204.54,123.85 -203.28,123.05 -202.01,122.26 -200.74,121.45 -199.46,120.64 -198.17,119.83 -196.88,119.01 -195.59,118.19 -194.29,117.37" fill="none" stroke="black" stroke-width="35" stroke-linecap="round" stroke-linejoin="round" />
<polyline points="-193.00,116.55 -191.70,115.73 -190.41,114.90 -189.12,114.08 -187.83,113.27 -186.54,112.45 -185.26,111.64 -183.98,110.84 -182.71,110.04 -181.45,109.26 -180.19,108.48 -178.94,107.71 -177.69,106.94 -176.45,106.19 -175.20,105.44 -173.96,104.69 -172.72,103.95 -171.32,103.13 -169.93,102.31 -168.52,101.49 -167.11,100.67 -165.70,99.85 -164.28,99.03 -162.86,98.21 -161.44,97.39 -160.01,96.57 -158.57,95.76 -157.13,94.94 -155.69,94.12 -154.25,93.30 -152.80,92.48 -151.35,91.66 -149.89,90.84 -148.43,90.02 -147.12,89.28 -145.81,88.54 -144.50,87.81 -143.18,87.07 -141.87,86.34 -140.56,85.61 -139.25,84.87 -137.93,84.14 -136.62,83.41 -135.30,82.68 -133.99,81.96 -132.67,81.23 -131.35,80.51 -130.03,79.78 -128.71,79.06 -127.39,78.34 -126.07,77.63 -124.75,76.91 -123.42,76.20 -122.10,75.49 -120.77,74.78 -119.44,74.08 -118.11,73.38 -116.78,72.67 -115.45,71.98 -114.12,71.28 -112.79,70.58 -111.45,69.89 -110.12,69.20 -108.78,68.51 -107.44,67.82 -106.11,67.13 -104.77,66.45 -103.43,65.77 -102.09,65.08 -100.75,64.40 -99.40,63.72 -98.06,63.05 -96.72,62.37 -95.37,61.70 -94.03,61.03 -92.68,60.36 -91.33,59.70 -89.98,59.03 -88.63,58.38 -87.28,57.73 -85.92,57.08 -84.56,56.44 -83.20,55.80 -81.83,55.18 -80.45,54.55 -79.06,53.94 -77.66,53.33 -76.26,52.73 -74.84,52.14 -73.42,51.55 -72.00,50.98 -70.57,50.42 -69.13,49.88 -67.70,49.34 -66.26,48.81 -64.81,48.29 -63.36,47.79 -61.91,47.29 -60.45,46.80 -59.00,46.32 -57.54,45.86 -56.09,45.40 -54.63,44.95 -53.19,44.52 -51.74,44.09 -50.30,43.67 -48.86,43.26 -47.41,42.86 -45.96,42.46 -44.51,42.07 -43.06,41.68 -41.61,41.30 -40.15,40.93 -38.70,40.56 -37.24,40.20 -35.78,39.84 -34.32,39.49 -32.86,39.14 -31.39,38.80 -29.93,38.47 -28.46,38.14 -27.00,37.81 -25.53,37.49 -24.06,37.18 -22.58,36.87 -21.10,36.56 -19.62,36.26 -18.14,35.95 -16.65,35.66 -15.16,35.36 -13.66,35.07 -12.17,34.78 -10.67,34.50 -9.16,34.21 -7.66,33.93 -6.15,33.65 -4.64,33.38 -3.12,33.10 -1.61,32.83 -0.09,32.56 1.42,32.29 2.94,32.02 4.45,31.75 5.96,31.48 7.47,31.21 8.98,30.94 10.49,30.66 12.00,30.38 13.50,30.10 15.00,29.81 16.50,29.52 18.00,29.21 19.49,28.89 20.97,28.57 22.45,28.22 23.93,27.85 25.40,27.47 26.87,27.06 28.33,26.63 29.77,26.16 31.21,25.68 32.63,25.16 34.04,24.60 35.43,24.01 36.81,23.39 38.17,22.73 39.52,22.03 40.84,21.30 42.15,20.54 43.44,19.74 44.72,18.91 45.98,18.06 47.23,17.18 48.46,16.29 49.69,15.38 50.92,14.46 52.15,13.54 53.37,12.63 54.61,11.72 55.85,10.83 57.10,9.96 58.37,9.13 59.65,8.33 60.95,7.57 62.28,6.87 63.62,6.21 64.99,5.62 66.38,5.09 67.79,4.63 69.21,4.24 70.65,3.93 72.10,3.70 73.56,3.55 75.03,3.47 76.51,3.45 77.99,3.49 79.48,3.59 80.98,3.73 82.47,3.91 83.97,4.13 85.47,4.38 86.97,4.64 88.47,4.92 89.97,5.20 91.47,5.49 92.97,5.76 94.47,6.03 95.98,6.27 97.49,6.49 99.00,6.68 100.52,6.84 102.05,6.98 103.57,7.09 105.10,7.17 106.63,7.23 108.16,7.26 109.70,7.27 111.23,7.25 112.76,7.21 114.29,7.15 115.82,7.06 117.35,6.95 118.88,6.82 120.41,6.66 121.93,6.48 123.45,6.28 124.97,6.06 126.49,5.82 128.00,5.56 129.51,5.28 131.01,4.98 132.52,4.67 134.01,4.34 135.51,3.99 137.00,3.63 138.49,3.25 139.99,2.86 141.47,2.46 142.95,2.05 144.43,1.63 145.91,1.20 147.38,0.75 148.85,0.30 150.32,-0.16 151.78,-0.63 153.25,-1.11 154.71,-1.61 156.18,-2.11 157.64,-2.62 159.09,-3.13 160.54,-3.66 161.98,-4.20 163.42,-4.75 164.85,-5.31 166.27,-5.89 167.70,-6.48 169.12,-7.08 170.53,-7.69 171.95,-8.32 173.36,-8.97 174.75,-9.63 176.14,-10.30 177.52,-10.98 178.89,-11.67 180.26,-12.37 181.62,-13.09 182.98,-13.81 184.33,-14.55 185.68,-15.29 187.03,-16.05 188.37,-16.81 189.71,-17.58 191.05,-18.35 192.39,-19.13 193.72,-19.92 195.05,-20.71 196.38,-21.50 197.72,-22.30 199.06,-23.10 200.39,-23.91 201.74,-24.72 203.08,-25.54 204.43,-26.36 205.78,-27.17 207.12,-27.99 208.46,-28.81 209.80,-29.63 211.13,-30.44 212.46,-31.26 213.79,-32.06 215.11,-32.87 216.43,-33.67 217.75,-34.47 219.07,-35.26 220.38,-36.05 221.69,-36.83 222.99,-37.60 224.30,-38.36 225.60,-39.12 226.90,-39.87 228.21,-40.62 229.51,-41.35 230.82,-42.09 232.13,-42.82 233.45,-43.54 234.77,-44.26 236.09,-44.97 237.42,-45.68 238.74,-46.38 240.07,-47.08 241.40,-47.77 242.74,-48.47 244.07,-49.16 245.41,-49.84 246.75,-50.53 248.09,-51.21 249.43,-51.89 250.77,-52.57 252.11,-53.25 253.45,-53.94 254.79,-54.62 256.13,-55.30 257.47,-55.98 258.81,-56.67 260.14,-57.35 261.48,-58.04 262.81,-58.73 264.15,-59.43 265.48,-60.12 266.81,-60.83 268.14,-61.53 269.46,-62.24 270.78,-62.96 272.10,-63.69 273.42,-64.42 274.74,-65.17 276.06,-65.93 277.38,-66.70 278.69,-67.49 280.00,-68.29 281.31,-69.11 282.60,-69.94 283.89,-70.79 285.17,-71.65 286.44,-72.54 287.70,-73.44 288.95,-74.36 290.18,-75.29 291.40,-76.25 292.61,-77.23 293.80,-78.23 294.97,-79.25 296.12,-80.29 297.25,-81.34 298.36,-82.42 299.45,-83.52 300.52,-84.64 301.57,-85.77 302.59,-86.93 303.59,-88.11 304.57,-89.30 305.53,-90.51 306.46,-91.75 307.37,-93.00 308.25,-94.27 309.11,-95.56 309.95,-96.87 310.76,-98.19 311.54,-99.52 312.29,-100.87 313.03,-102.24 313.74,-103.62 314.43,-105.01 315.10,-106.40 315.75,-107.80 316.39,-109.21 317.02,-110.62 317.64,-112.03 318.25,-113.45 318.85,-114.88 319.44,-116.30 320.03,-117.73 320.61,-119.16 321.19,-120.59 321.77,-122.03 322.35,-123.46 322.93,-124.90 323.50,-126.34 324.07,-127.78 324.64,-129.22 325.21,-130.68 325.77,-132.14 326.32,-133.60 326.87,-135.08 327.41,-136.56 327.94,-138.04 328.46,-139.54 328.97,-141.04 329.47,-142.54 329.97,-144.05 330.45,-145.57 330.92,-147.08 331.38,-148.60 331.83,-150.12 332.27,-151.64 332.70,-153.15 333.12,-154.66 333.52,-156.17 333.92,-157.67 334.31,-159.18 334.69,-160.69 335.06,-162.20 335.43,-163.71 335.79,-165.21 336.15,-166.72 336.50,-168.22 336.85,-169.72 337.19,-171.21 337.54,-172.71 337.88,-174.20 338.22,-175.70 338.56,-177.20 338.91,-178.70 339.26,-180.21 339.61,-181.71 339.96,-183.22 340.32,-184.72 340.68,-186.21 341.05,-187.70 341.42,-189.19 341.81,-190.67 342.20,-192.15 342.60,-193.63 343.02,-195.10 343.46,-196.57 343.91,-198.03 344.38,-199.47 344.87,-200.91 345.39,-202.34 345.93,-203.76 346.51,-205.16 347.11,-206.54 347.76,-207.91 348.44,-209.25 349.16,-210.58 349.93,-211.87 350.74,-213.13 351.60,-214.35 352.50,-215.53 353.46,-216.67 354.46,-217.76 355.51,-218.80 356.61,-219.80 357.75,-220.76 358.92,-221.67 360.13,-222.55 361.37,-223.39 362.63,-224.20 363.91,-224.99 365.21,-225.77 366.52,-226.53 367.83,-227.29 369.14,-228.04 370.44,-228.81 371.73,-229.60 373.00,-230.40 374.24,-231.24 375.46,-232.11 376.65,-233.02 377.81,-233.97 378.92,-234.97 380.00,-236.00 381.03,-237.08 382.02,-238.20 382.96,-239.36 383.86,-240.55 384.71,-241.78 385.52,-243.05 386.29,-244.34 387.01,-245.66 387.70,-247.00 388.36,-248.36 388.98,-249.75 389.58,-251.15 390.14,-252.56 390.69,-253.98 391.21,-255.42 391.72,-256.87 392.22,-258.32 392.71,-259.77 393.19,-261.23 393.67,-262.68 394.16,-264.14 394.64,-265.60 395.12,-267.06 395.61,-268.51 396.10,-269.96 396.60,-271.41 397.10,-272.86 397.61,-274.31 398.12,-275.76 398.64,-277.21 399.16,-278.65 399.70,-280.09 400.24,-281.53 400.78,-282.96 401.34,-284.39 401.91,-285.82 402.48,-287.25 403.06,-288.67 403.65,-290.09 404.25,-291.51 404.86,-292.92 405.48,-294.33 406.10,-295.74 406.74,-297.15 407.38,-298.55 408.03,-299.95 408.69,-301.34 409.35,-302.74 410.03,-304.12 410.71,-305.51 411.40,-306.89 412.10,-308.27 412.80,-309.64 413.51,-311.02 414.23,-312.39 414.96,-313.75 415.69,-315.12 416.42,-316.47 417.17,-317.82 417.91,-319.17 418.67,-320.51 419.43,-321.86 420.20,-323.20 420.98,-324.53 421.76,-325.87 422.55,-327.21 423.35,-328.54 424.16,-329.86 424.97,-331.17 425.78,-332.48 426.61,-333.78 427.44,-335.07 428.27,-336.36 429.12,-337.65 429.98,-338.93 430.84,-340.21 431.71,-341.48 432.60,-342.75 433.49,-344.01 434.39,-345.27 435.29,-346.52 436.21,-347.77 437.13,-349.01 438.07,-350.25 439.01,-351.49 439.97,-352.73 440.94,-353.96 441.91,-355.19 442.90,-356.42 443.89,-357.65 444.89,-358.87 445.90,-360.09 446.92,-361.31 447.95,-362.52 448.98,-363.73 450.02,-364.93 451.05,-366.12 452.09,-367.30 453.13,-368.47 454.18,-369.63 455.23,-370.78 456.27,-371.93 457.32,-373.06 458.37,-374.19 459.43,-375.31 460.48,-376.42 461.53,-377.52 462.59,-378.61 463.65,-379.69 464.70,-380.77 465.76,-381.84 466.82,-382.90 467.88,-383.96 468.95,-385.02 470.02,-386.07 471.10,-387.12 472.18,-388.17 473.26,-389.21 474.34,-390.25 475.43,-391.29 476.51,-392.33 477.61,-393.36 478.70,-394.39 479.79,-395.42 480.89,-396.45 481.99,-397.48 483.09,-398.50 484.19,-399.52 485.30,-400.54 486.41,-401.56 487.51,-402.58 488.62,-403.59 489.74,-404.60 490.85,-405.61 491.97,-406.62 493.09,-407.62 494.21,-408.62 495.33,-409.62 496.46,-410.61 497.59,-411.61 498.72,-412.60 499.86,-413.58 500.99,-414.57 502.13,-415.54 503.28,-416.52 504.42,-417.49 505.57,-418.46 506.72,-419.43 507.88,-420.40 509.03,-421.36 510.19,-422.31 511.35,-423.27 512.51,-424.22 513.68,-425.17 514.85,-426.12 516.01,-427.07 517.19,-428.01 518.36,-428.95 519.53,-429.89 520.70,-430.83 521.88,-431.77 523.06,-432.71 524.24,-433.64 525.42,-434.57 526.60,-435.51 527.78,-436.44 528.96,-437.37 530.14,-438.30 531.32,-439.23 532.51,-440.15 533.69,-441.08 534.87,-442.01 536.06,-442.94 537.24,-443.86 538.43,-444.79 539.61,-445.72 540.79,-446.64 541.98,-447.57 543.16,-448.50 544.35,-449.42 545.53,-450.35 546.71,-451.28 547.90,-452.21 549.08,-453.13 550.26,-454.06 551.45,-454.99 552.63,-455.92 553.81,-456.85 555.00,-457.78 556.19,-458.72 557.38,-459.66 558.57,-460.60 559.77,-461.54 560.96,-462.48 562.16,-463.43 563.36,-464.38 564.55,-465.33 565.75,-466.27 566.95,-467.23 568.15,-468.18 569.35,-469.13 570.56,-470.09 571.76,-471.04 572.96,-472.00 574.16,-472.96 575.36,-473.91 576.56,-474.87 577.75,-475.82 578.95,-476.77 580.14,-477.72 581.33,-478.67 582.52,-479.62 583.71,-480.57 584.90,-481.52 586.10,-482.47 587.28,-483.42 588.47,-484.37 589.66,-485.32 590.84,-486.28 592.02,-487.24 593.20,-488.20 594.36,-489.18 595.52,-490.16 596.67,-491.16 597.80,-492.17 598.92,-493.20 600.01,-494.25 601.09,-495.32 602.13,-496.41 603.15,-497.52 604.13,-498.66 605.08,-499.83 605.99,-501.02 606.86,-502.25 607.68,-503.50 608.46,-504.78 609.19,-506.08 609.87,-507.42 610.49,-508.78 611.06,-510.16 611.56,-511.57 612.01,-512.99 612.39,-514.44 612.70,-515.89 612.95,-517.36 613.13,-518.83 613.23,-520.31 613.26,-521.78 613.21,-523.25 613.08,-524.72 612.87,-526.16 612.57,-527.59 612.19,-529.00 611.72,-530.37 611.16,-531.70 610.51,-532.98 609.78,-534.21 608.97,-535.37 608.07,-536.47 607.09,-537.48 606.05,-538.41 604.93,-539.25 603.75,-540.00 602.52,-540.66 601.23,-541.23 599.90,-541.71 598.53,-542.09 597.12,-542.40 595.69,-542.61 594.23,-542.75 592.76,-542.80 591.27,-542.78 589.78,-542.69 588.29,-542.54 586.80,-542.32 585.31,-542.05 583.83,-541.72 582.36,-541.36 580.90,-540.95 579.45,-540.51 578.02,-540.02 576.59,-539.50 575.18,-538.94 573.79,-538.34 572.41,-537.71 571.04,-537.04 569.70,-536.34 568.36,-535.60 567.04,-534.84 565.73,-534.04 564.44,-533.22 563.17,-532.38 561.90,-531.52 560.65,-530.63 559.41,-529.73 558.18,-528.82 556.97,-527.89 555.76,-526.95 554.55,-525.99 553.36,-525.03 552.17,-524.06 550.98,-523.08 549.81,-522.10 548.63,-521.11 547.46,-520.11 546.30,-519.11 545.13,-518.11 543.97,-517.10 542.82,-516.10 541.66,-515.09 540.51,-514.08 539.35,-513.07 538.19,-512.06 537.03,-511.04 535.88,-510.03 534.72,-509.02 533.57,-508.01 532.41,-507.00 531.26,-505.99 530.10,-504.98 528.94,-503.97 527.78,-502.96 526.62,-501.95 525.45,-500.94 524.29,-499.93 523.12,-498.93 521.95,-497.93 520.78,-496.93 519.61,-495.93 518.44,-494.93 517.28,-493.94 516.10,-492.95 514.92,-491.95 513.74,-490.96 512.56,-489.96 511.37,-488.96 510.18,-487.97 509.00,-486.97 507.81,-485.98 506.63,-484.99 505.44,-484.00 504.26,-483.01 503.08,-482.03 501.89,-481.03 500.70,-480.04 499.52,-479.05 498.33,-478.05 497.14,-477.06 495.95,-476.06 494.76,-475.06 493.57,-474.06 492.39,-473.06 491.20,-472.05 490.01,-471.05 488.82,-470.04 487.63,-469.02 486.44,-468.00 485.24,-466.98 484.05,-465.95 482.85,-464.92 481.65,-463.89 480.46,-462.85 479.26,-461.81 478.07,-460.77 476.88,-459.73 475.69,-458.68 474.50,-457.64 473.32,-456.59 472.14,-455.54 470.97,-454.50 469.79,-453.45 468.62,-452.41 467.46,-451.37 466.30,-450.32 465.14,-449.29 463.99,-448.25 462.84,-447.21 461.69,-446.17 460.54,-445.13 459.39,-444.10 458.25,-443.06 457.11,-442.03 455.97,-440.99 454.83,-439.96 453.70,-438.92 452.57,-437.89 451.44,-436.85 450.32,-435.80 449.21,-434.75 448.11,-433.70 447.03,-432.63 445.96,-431.54 444.90,-430.44 443.87,-429.32 442.86,-428.19 441.89,-427.03 440.94,-425.85 440.03,-424.65 439.15,-423.42 438.33,-422.17 437.55,-420.89 436.82,-419.58 436.16,-418.24 435.55,-416.88 435.01,-415.50 434.53,-414.09 434.12,-412.66 433.77,-411.22 433.49,-409.76 433.26,-408.29 433.09,-406.80 432.97,-405.31 432.90,-403.81 432.86,-402.30 432.85,-400.79 432.87,-399.27 432.91,-397.75 432.95,-396.23 432.99,-394.71 433.02,-393.19 433.04,-391.67 433.04,-390.15 433.01,-388.63 432.94,-387.12 432.84,-385.61 432.70,-384.10 432.52,-382.60 432.30,-381.10 432.03,-379.61 431.73,-378.13 431.38,-376.65 430.99,-375.18 430.57,-373.72 430.11,-372.28 429.61,-370.84 429.08,-369.41 428.53,-368.00 427.94,-366.59 427.33,-365.20 426.68,-363.82 426.01,-362.45 425.31,-361.09 424.59,-359.75 423.85,-358.42 423.08,-357.10 422.29,-355.79 421.47,-354.50 420.64,-353.22 419.78,-351.96 418.90,-350.71 418.01,-349.47 417.09,-348.25 416.15,-347.04 415.19,-345.85 414.21,-344.67 413.22,-343.51 412.21,-342.37 411.18,-341.23 410.13,-340.12 409.06,-339.01 407.98,-337.92 406.89,-336.84 405.78,-335.77 404.66,-334.72 403.53,-333.68 402.38,-332.65 401.23,-331.63 400.07,-330.62 398.90,-329.61 397.73,-328.62 396.55,-327.62 395.37,-326.63 394.18,-325.64 393.00,-324.66 391.81,-323.67 390.63,-322.69 389.44,-321.70 388.26,-320.71 387.09,-319.72 385.93,-318.71 384.77,-317.70 383.62,-316.68 382.48,-315.64 381.35,-314.60 380.24,-313.54 379.15,-312.47 378.08,-311.38 377.02,-310.28 375.99,-309.16 374.97,-308.03 373.98,-306.88 373.02,-305.71 372.08,-304.52 371.16,-303.31 370.28,-302.08 369.42,-300.83 368.59,-299.57 367.78,-298.28 367.01,-296.98 366.26,-295.66 365.53,-294.33 364.83,-292.98 364.15,-291.61 363.50,-290.23 362.86,-288.84 362.25,-287.44 361.65,-286.03 361.07,-284.61 360.51,-283.18 359.96,-281.74 359.42,-280.30 358.89,-278.85 358.38,-277.40 357.87,-275.95 357.38,-274.50 356.88,-273.04 356.40,-271.58 355.91,-270.11 355.43,-268.65 354.96,-267.18 354.49,-265.72 354.03,-264.26 353.56,-262.79 353.10,-261.32 352.64,-259.86 352.19,-258.39 351.73,-256.92 351.28,-255.44 350.82,-253.97 350.37,-252.50 349.92,-251.02 349.47,-249.55 349.03,-248.08 348.58,-246.61 348.14,-245.14 347.69,-243.67 347.25,-242.19 346.81,-240.71 346.37,-239.23 345.92,-237.74 345.48,-236.25 345.05,-234.77 344.61,-233.28 344.18,-231.80 343.75,-230.32 343.32,-228.84 342.89,-227.36 342.46,-225.88 342.03,-224.39 341.61,-222.91 341.18,-221.42 340.75,-219.93 340.32,-218.44 339.89,-216.95 339.46,-215.45 339.03,-213.96 338.59,-212.47 338.16,-210.98 337.72,-209.49 337.27,-207.99 336.82,-206.48 336.36,-204.98 335.90,-203.47 335.44,-201.96 334.96,-200.45 334.49,-198.94 334.00,-197.44 333.52,-195.95 333.03,-194.45 332.54,-192.97 332.04,-191.49 331.54,-190.01 331.04,-188.55 330.53,-187.09 330.02,-185.63 329.50,-184.19 328.99,-182.75 328.47,-181.31 327.95,-179.89 327.42,-178.47 326.89,-177.05 326.36,-175.65 325.83,-174.25 325.29,-172.84 324.75,-171.44 324.21,-170.04 323.66,-168.64 323.10,-167.24 322.55,-165.85 321.99,-164.45 321.43,-163.06 320.86,-161.67 320.29,-160.28 319.72,-158.88 319.15,-157.50 318.57,-156.11 317.99,-154.72 317.40,-153.33 316.82,-151.95 316.23,-150.57 315.64,-149.18 315.05,-147.80 314.45,-146.42 313.85,-145.04 313.25,-143.67 312.64,-142.29 312.04,-140.91 311.43,-139.54 310.81,-138.17 310.20,-136.79 309.58,-135.42 308.96,-134.05 308.33,-132.68 307.70,-131.30 307.07,-129.92 306.43,-128.55 305.79,-127.17 305.14,-125.79 304.49,-124.41 303.83,-123.03 303.17,-121.64 302.50,-120.26 301.83,-118.88 301.15,-117.51 300.47,-116.13 299.78,-114.76 299.08,-113.38 298.36,-112.01 297.64,-110.65 296.91,-109.29 296.16,-107.95 295.40,-106.61 294.62,-105.29 293.82,-103.98 293.01,-102.69 292.18,-101.41 291.32,-100.15 290.45,-98.90 289.56,-97.68 288.64,-96.47 287.70,-95.28 286.74,-94.11 285.75,-92.95 284.74,-91.81 283.71,-90.70 282.65,-89.60 281.59,-88.52 280.50,-87.46 279.39,-86.41 278.27,-85.39 277.13,-84.37 275.98,-83.37 274.81,-82.38 273.62,-81.41 272.42,-80.45 271.21,-79.51 269.99,-78.58 268.76,-77.66 267.51,-76.76 266.25,-75.88 264.98,-75.01 263.70,-74.16 262.41,-73.32 261.11,-72.50 259.80,-71.70 258.48,-70.91 257.15,-70.15 255.81,-69.40 254.46,-68.67 253.10,-67.95 251.73,-67.25 250.35,-66.57 248.96,-65.90 247.56,-65.25 246.16,-64.62 244.75,-64.01 243.34,-63.41 241.92,-62.83 240.49,-62.27 239.05,-61.72 237.61,-61.18 236.15,-60.66 234.69,-60.15 233.22,-59.66 231.75,-59.18 230.27,-58.72 228.79,-58.28 227.31,-57.85 225.83,-57.44 224.35,-57.04 222.85,-56.66 221.36,-56.30 219.86,-55.94 218.35,-55.61 216.84,-55.28 215.33,-54.98 213.82,-54.68 212.30,-54.41 210.77,-54.14 209.25,-53.89 207.72,-53.66 206.19,-53.43 204.65,-53.22 203.11,-53.02 201.55,-52.84 200.00,-52.66 198.44,-52.50 196.87,-52.34 195.30,-52.20 193.72,-52.06 192.15,-51.93 190.57,-51.81 189.01,-51.71 187.44,-51.60 185.88,-51.51 184.32,-51.42 182.77,-51.34 181.22,-51.27 179.67,-51.20 178.13,-51.14 176.58,-51.09 175.04,-51.04 173.51,-50.99 171.97,-50.95 170.44,-50.92 168.91,-50.89 167.39,-50.86 165.86,-50.84 164.33,-50.82 162.80,-50.81 161.27,-50.80 159.73,-50.80 158.19,-50.80 156.65,-50.80 155.10,-50.81 153.56,-50.82 152.02,-50.84 150.48,-50.86 148.94,-50.88 147.40,-50.90 145.87,-50.93 144.33,-50.96 142.80,-50.99 141.27,-51.02 139.73,-51.04 138.21,-51.06 136.68,-51.08 135.15,-51.08 133.63,-51.06 132.11,-51.03 130.59,-50.98 129.07,-50.91 127.56,-50.80 126.05,-50.67 124.55,-50.50 123.06,-50.30 121.57,-50.05 120.09,-49.77 118.63,-49.44 117.17,-49.06 115.73,-48.64 114.31,-48.16 112.90,-47.64 111.52,-47.07 110.15,-46.45 108.81,-45.78 107.48,-45.06 106.18,-44.30 104.90,-43.50 103.64,-42.66 102.41,-41.79 101.19,-40.89 99.98,-39.96 98.79,-39.01 97.62,-38.04 96.45,-37.05 95.29,-36.06 94.13,-35.06 92.96,-34.06 91.80,-33.06 90.63,-32.07 89.46,-31.08 88.27,-30.11 87.07,-29.16 85.86,-28.22 84.63,-27.31 83.39,-26.41 82.13,-25.54 80.86,-24.69 79.57,-23.86 78.26,-23.06 76.94,-22.28 75.61,-21.53 74.26,-20.80 72.89,-20.10 71.51,-19.42 70.12,-18.77 68.72,-18.14 67.31,-17.54 65.89,-16.96 64.46,-16.40 63.02,-15.87 61.57,-15.35 60.11,-14.85 58.65,-14.37 57.19,-13.90 55.72,-13.45 54.24,-13.02 52.76,-12.59 51.28,-12.18 49.79,-11.77 48.30,-11.37 46.81,-10.97 45.31,-10.58 43.82,-10.20 42.32,-9.81 40.82,-9.43 39.33,-9.06 37.83,-8.68 36.34,-8.30 34.84,-7.93 33.35,-7.55 31.85,-7.17 30.35,-6.79 28.84,-6.41 27.34,-6.02 25.84,-5.63 24.34,-5.24 22.84,-4.85 21.35,-4.46 19.86,-4.06 18.37,-3.67 16.88,-3.26 15.39,-2.86 13.90,-2.45 12.41,-2.04 10.92,-1.62 9.43,-1.20 7.94,-0.78 6.45,-0.35 4.96,0.08 3.47,0.52 1.98,0.96 0.48,1.40 -1.01,1.85 -2.52,2.30 -4.02,2.76 -5.53,3.22 -7.03,3.68 -8.53,4.15 -10.03,4.62 -11.53,5.09 -13.01,5.56 -14.50,6.03 -15.98,6.51 -17.46,6.99 -18.93,7.47 -20.39,7.94 -21.85,8.43 -23.30,8.91 -24.75,9.39 -26.19,9.88 -27.62,10.36 -29.05,10.85 -30.47,11.33 -31.89,11.83 -33.31,12.32 -34.73,12.82 -36.14,13.32 -37.56,13.82 -38.97,14.33 -40.39,14.84 -41.80,15.35 -43.21,15.87 -44.62,16.40 -46.03,16.92 -47.44,17.45 -48.84,17.99 -50.25,18.52 -51.65,19.07 -53.05,19.61 -54.45,20.16 -55.85,20.72 -57.25,21.27 -58.64,21.83 -60.04,22.40 -61.43,22.96 -62.82,23.53 -64.21,24.11 -65.60,24.68 -66.99,25.26 -68.37,25.85 -69.76,26.43 -71.14,27.02 -72.53,27.61 -73.91,28.20 -75.29,28.80 -76.67,29.40 -78.05,30.00 -79.43,30.60 -80.80,31.21 -82.18,31.82 -83.55,32.43 -84.93,33.04 -86.30,33.66 -87.67,34.28 -89.04,34.90 -90.41,35.52 -91.78,36.14 -93.15,36.77 -94.51,37.40 -95.88,38.03 -97.24,38.66 -98.61,39.29 -99.97,39.93 -101.33,40.57 -102.69,41.21 -104.06,41.85 -105.42,42.49 -106.77,43.14 -108.13,43.78 -109.49,44.43 -110.85,45.08 -112.20,45.73 -113.56,46.38 -114.92,47.03 -116.27,47.69 -117.62,48.35 -118.98,49.00 -120.33,49.66 -121.68,50.32 -123.03,50.99 -124.38,51.65 -125.73,52.31 -127.08,52.98 -128.43,53.65 -129.78,54.32 -131.12,54.99 -132.47,55.66 -133.81,56.33 -135.16,57.00 -136.50,57.68 -137.85,58.36 -139.19,59.03 -140.53,59.71 -141.87,60.39 -143.22,61.08 -144.56,61.76 -145.90,62.44 -147.23,63.13 -148.57,63.82 -149.91,64.50 -151.25,65.19 -152.58,65.88 -153.92,66.57 -155.26,67.27 -156.59,67.96 -157.92,68.66 -159.26,69.35 -160.59,70.05 -161.92,70.75 -163.25,71.45 -164.58,72.15 -165.91,72.86 -167.24,73.56 -168.57,74.27 -169.90,74.97 -171.23,75.68 -172.56,76.39 -173.88,77.10 -175.21,77.81 -176.53,78.52 -177.86,79.24 -179.18,79.95 -180.50,80.67 -181.82,81.39 -183.15,82.11 -184.47,82.83 -185.79,83.55 -187.11,84.27 -188.42,84.99 -189.74,85.72 -191.06,86.45 -192.38,87.17 -193.69,87.90 -195.01,88.63 -196.32,89.36 -197.64,90.10 -198.95,90.83 -200.26,91.57 -201.57,92.31 -202.88,93.05 -204.19,93.79 -205.49,94.54 -206.80,95.28 -208.10,96.03 -209.41,96.79 -210.71,97.54 -212.01,98.30 -213.30,99.06 -214.60,99.83 -215.89,100.59 -217.18,101.37 -218.47,102.14 -219.76,102.92 -221.04,103.70 -222.33,104.49 -223.61,105.27 -224.88,106.07 -226.16,106.86 -227.43,107.66 -228.70,108.47 -229.97,109.28 -231.24,110.09 -232.50,110.90 -233.76,111.72 -235.02,112.54 -236.28,113.37 -237.53,114.20 -238.79,115.03 -240.04,115.87 -241.28,116.71 -242.53,117.55 -243.77,118.40 -245.01,119.25 -246.25,120.10 -247.49,120.96 -248.72,121.82 -249.95,122.68 -251.18,123.55 -252.41,124.42 -253.64,125.30 -254.88,126.19 -256.11,127.08 -257.34,127.98 -258.57,128.89 -259.80,129.80 -261.02,130.72 -262.25,131.64 -263.47,132.57 -264.70,133.51 -265.91,134.46 -267.13,135.42 -268.35,136.38 -269.55,137.36 -270.76,138.34 -271.95,139.33 -273.14,140.32 -274.32,141.33 -275.49,142.33 -276.65,143.35 -277.80,144.37 -278.94,145.39 -280.07,146.43 -281.20,147.47 -282.32,148.51 -283.44,149.56 -284.56,150.60 -285.68,151.64 -286.81,152.66 -287.95,153.66 -289.11,154.64 -290.28,155.59 -291.48,156.49 -292.70,157.34 -293.94,158.12 -295.21,158.83 -296.50,159.45 -297.81,159.99 -299.14,160.42 -300.48,160.74 -301.84,160.95 -303.20,161.06 -304.57,161.05 -305.94,160.93 -307.32,160.71 -308.69,160.39 -310.06,159.98 -311.42,159.49 -312.78,158.93 -314.13,158.32 -315.48,157.68 -316.82,157.01 -318.17,156.34 -319.51,155.68 -320.87,155.05 -322.23,154.46 -323.59,153.94 -324.97,153.48 -326.36,153.10 -327.76,152.80 -329.17,152.60 -330.58,152.50 -331.99,152.49 -333.40,152.59 -334.80,152.78 -336.19,153.08 -337.57,153.46 -338.94,153.93 -340.28,154.49 -341.60,155.13 -342.89,155.84 -344.15,156.61 -345.39,157.45 -346.60,158.34 -347.78,159.28 -348.93,160.26 -350.05,161.28 -351.15,162.33 -352.22,163.41 -353.27,164.51 -354.29,165.64 -355.29,166.79 -356.27,167.96 -357.23,169.15 -358.16,170.36 -359.08,171.58 -359.97,172.82 -360.85,174.07 -361.71,175.34 -362.56,176.62 -363.38,177.90 -364.19,179.20 -364.99,180.51 -365.77,181.83 -366.54,183.15 -367.30,184.48 -368.04,185.82 -368.77,187.17 -369.49,188.52 -370.20,189.88 -370.90,191.24 -371.59,192.61 -372.27,193.99 -372.93,195.37 -373.59,196.76 -374.23,198.16 -374.86,199.56 -375.47,200.96 -376.08,202.37 -376.67,203.79 -377.25,205.21 -377.81,206.64 -378.36,208.08 -378.90,209.52 -379.41,210.97 -379.92,212.42 -380.40,213.87 -380.87,215.33 -381.32,216.80 -381.76,218.27 -382.17,219.74 -382.57,221.22 -382.96,222.70 -383.32,224.19 -383.67,225.69 -384.00,227.19 -384.31,228.69 -384.60,230.20 -384.87,231.71 -385.12,233.22 -385.35,234.73 -385.55,236.25 -385.73,237.77 -385.88,239.29 -386.00,240.82 -386.09,242.34 -386.14,243.86 -386.15,245.38 -386.10,246.89 -386.00,248.40 -385.85,249.89 -385.62,251.36 -385.33,252.81 -384.96,254.23 -384.51,255.61 -383.98,256.95 -383.37,258.25 -382.68,259.48 -381.89,260.65 -381.02,261.74 -380.08,262.76 -379.05,263.68 -377.95,264.50 -376.78,265.22 -375.55,265.83 -374.27,266.33 -372.95,266.72 -371.60,267.00 -370.21,267.16 -368.81,267.21 -367.40,267.16 -365.98,267.00 -364.56,266.74 -363.15,266.39 -361.75,265.96 -360.37,265.44 -359.01,264.85 -357.67,264.19 -356.35,263.47 -355.06,262.70 -353.79,261.89 -352.55,261.02 -351.33,260.12 -350.13,259.19 -348.96,258.22 -347.81,257.23 -346.68,256.21 -345.57,255.17 -344.48,254.10 -343.41,253.01 -342.35,251.91 -341.31,250.79 -340.28,249.65 -339.26,248.50 -338.26,247.34 -337.27,246.17 -336.28,245.00 -335.30,243.81 -334.33,242.63 -333.36,241.43 -332.39,240.24 -331.43,239.04 -330.46,237.84 -329.50,236.64 -328.53,235.45 -327.57,234.25 -326.60,233.05 -325.63,231.86 -324.66,230.67 -323.69,229.48 -322.71,228.29 -321.73,227.11 -320.75,225.92 -319.77,224.75 -318.79,223.57 -317.79,222.39 -316.80,221.21 -315.80,220.04 -314.81,218.87 -313.81,217.70 -312.81,216.54 -311.80,215.38 -310.79,214.22 -309.78,213.07 -308.76,211.92 -307.74,210.77 -306.72,209.61 -305.69,208.46 -304.65,207.32 -303.61,206.17 -302.57,205.03 -301.53,203.90 -300.48,202.77 -299.44,201.64 -298.38,200.52 -297.32,199.39 -296.26,198.27 -295.19,197.15 -294.12,196.02 -293.03,194.91 -291.95,193.79 -290.87,192.68 -289.79,191.58 -288.70,190.48 -287.61,189.39 -286.52,188.30 -285.43,187.22 -284.33,186.13 -283.23,185.05 -282.12,183.97 -281.01,182.89 -279.89,181.82 -278.77,180.75 -277.64,179.68 -276.52,178.62 -275.38,177.56 -274.25,176.50 -273.11,175.44 -271.96,174.39 -270.80,173.33 -269.63,172.28 -268.46,171.22 -267.29,170.17 -266.10,169.12 -264.92,168.08 -263.73,167.04 -262.54,166.01 -261.36,164.98 -260.17,163.97 -258.98,162.95 -257.79,161.95 -256.60,160.95 -255.41,159.97 -254.22,158.99 -253.04,158.01 -251.85,157.05 -250.66,156.09 -249.48,155.14 -248.30,154.20 -247.11,153.27 -245.93,152.34 -244.74,151.42 -243.55,150.51 -242.36,149.59 -241.16,148.69 -239.96,147.78 -238.76,146.88 -237.55,145.99 -236.34,145.10 -235.13,144.21 -233.91,143.33 -232.70,142.46 -231.48,141.59 -230.26,140.72 -229.04,139.87 -227.82,139.02 -226.60,138.18 -225.37,137.34 -224.15,136.51 -222.93,135.69 -221.71,134.87 -220.49,134.06 -219.27,133.25 -218.05,132.45 -216.83,131.65 -215.61,130.87 -214.39,130.08 -213.18,129.30 -211.96,128.52 -210.73,127.75 -209.51,126.97 -208.28,126.20 -207.04,125.42 -205.79,124.63 -204.54,123.85 -203.28,123.05 -202.01,122.26 -200.74,121.45 -199.46,120.64 -198.17,119.83 -196.88,119.01 -195.59,118.19 -194.29,117.37" fill="none" stroke="white" stroke-width="27" stroke-linecap="round" stroke-linejoin="round" />
<line x1="-183.36" y1="131.75" x2="-202.64" y2="101.35" stroke="black" stroke-width="8" />
<g transform="translate(-193.00,116.55) rotate(-32.3788852598335)">
<polygon points="15,-3.0 21,0 15,3.0" fill="black" />
<polygon points="23,-3.0 29,0 23,3.0" fill="black" />
<polygon points="31,-3.0 37,0 31,3.0" fill="black" />
</g>
</svg>