<svg xmlns="http://www.w3.org/2000/svg" viewBox="-623.2376741384688 -384.09259342622187 1004.0740591889944 870.3081242450469" style="background-color:transparent">

    <defs>
        <pattern id="checkers" x="0" y="0" width="6" height="6" patternUnits="userSpaceOnUse">
            <rect x="0" y="0" width="3" height="3" fill="black" />
            <rect x="3" y="3" width="3" height="3" fill="black" />
        </pattern>
    </defs>
    
<polyline points="243.88,94.06 243.26,95.53 242.65,96.99 242.03,98.46 241.41,99.92 240.80,101.39 240.18,102.85 239.57,104.32 238.95,105.77 238.34,107.23 237.74,108.68 237.13,110.12 236.53,111.56 235.93,113.00 235.33,114.43 234.73,115.87 234.13,117.30 233.46,118.90 232.79,120.50 232.12,122.10 231.45,123.71 230.78,125.31 230.11,126.91 229.44,128.52 228.77,130.12 228.10,131.72 227.43,133.32 226.76,134.92 226.09,136.52 225.43,138.12 224.76,139.72 224.09,141.32 223.42,142.91 222.75,144.51 222.16,145.93 221.56,147.35 220.97,148.77 220.38,150.19 219.78,151.60 219.19,153.01 218.59,154.43 217.99,155.86 217.39,157.29 216.79,158.72 216.18,160.16 215.58,161.60 214.97,163.05 214.35,164.50 213.74,165.95 213.12,167.41 212.51,168.87 211.89,170.34 211.26,171.81 210.64,173.29 210.01,174.77 209.39,176.26 208.76,177.74 208.14,179.21 207.51,180.69 206.89,182.16 206.27,183.62 205.65,185.08 205.04,186.54 204.42,188.00 203.81,189.45 203.19,190.89 202.58,192.34 201.97,193.77 201.37,195.21 200.76,196.64 200.16,198.07 199.55,199.49 198.95,200.91 198.35,202.33 197.75,203.74 197.15,205.16 196.55,206.58 195.95,208.00 195.34,209.43 194.73,210.86 194.12,212.30 193.51,213.74 192.90,215.18 192.29,216.63 191.67,218.08 191.05,219.53 190.43,220.98 189.81,222.44 189.19,223.91 188.57,225.37 187.94,226.84 187.31,228.32 186.69,229.79 186.06,231.25 185.44,232.71 184.82,234.17 184.20,235.62 183.58,237.07 182.97,238.52 182.35,239.96 181.74,241.39 181.13,242.83 180.52,244.26 179.91,245.68 179.30,247.11 178.69,248.52 178.09,249.94 177.48,251.35 176.88,252.76 176.27,254.18 175.67,255.60 175.06,257.02 174.45,258.44 173.83,259.87 173.22,261.30 172.61,262.73 171.99,264.17 171.37,265.61 170.76,267.05 170.14,268.50 169.52,269.94 168.89,271.40 168.27,272.85 167.65,274.30 167.02,275.76 166.40,277.22 165.78,278.67 165.16,280.11 164.54,281.56 163.92,283.00 163.31,284.43 162.69,285.87 162.08,287.30 161.47,288.72 160.86,290.15 160.25,291.57 159.64,292.98 159.04,294.40 158.43,295.81 157.83,297.22 157.22,298.64 156.61,300.06 156.00,301.48 155.39,302.91 154.78,304.34 154.17,305.77 153.56,307.20 152.94,308.64 152.33,310.07 151.71,311.51 151.10,312.96 150.48,314.40 149.87,315.85 149.25,317.30 148.63,318.75 148.02,320.20 147.40,321.64 146.79,323.09 146.18,324.52 145.58,325.96 144.97,327.39 144.37,328.82 143.77,330.26 143.18,331.69 142.58,333.13 141.99,334.56 141.40,336.00 140.82,337.43 140.23,338.87 139.66,340.30 139.08,341.74 138.51,343.17 137.93,344.61 137.37,346.04 136.80,347.48 136.23,348.92 135.66,350.37 135.09,351.82 134.53,353.27 133.96,354.71 133.40,356.15 132.83,357.59 132.27,359.03 131.71,360.47 131.14,361.91 130.58,363.34 130.01,364.77 129.44,366.21 128.87,367.65 128.30,369.09 127.72,370.54 127.14,371.98 126.56,373.42 125.99,374.86 125.41,376.29 124.83,377.72 124.25,379.14 123.67,380.57 123.08,382.00 122.50,383.43 121.91,384.86 121.32,386.29 120.72,387.73 120.13,389.16 119.54,390.58 118.95,392.01 118.35,393.43 117.76,394.85 117.16,396.27 116.57,397.69 115.97,399.11 115.37,400.53 114.77,401.96 114.17,403.38 113.56,404.80 112.96,406.21 112.36,407.63 111.75,409.04 111.14,410.46 110.53,411.87 109.92,413.29 109.30,414.71 108.68,416.13 108.05,417.55 107.42,418.96 106.79,420.37 106.16,421.77 105.52,423.18 104.87,424.58 104.21,425.97 103.54,427.36 102.86,428.74 102.17,430.12 101.47,431.49 100.75,432.85 100.02,434.20 99.26,435.53 98.49,436.85 97.70,438.15 96.89,439.44 96.05,440.71 95.18,441.97 94.29,443.20 93.37,444.41 92.42,445.60 91.44,446.76 90.43,447.89 89.39,449.00 88.32,450.08 87.23,451.13 86.10,452.14 84.95,453.12 83.76,454.06 82.55,454.97 81.31,455.83 80.05,456.66 78.76,457.45 77.44,458.19 76.10,458.89 74.74,459.54 73.36,460.14 71.96,460.70 70.55,461.20 69.12,461.66 67.67,462.06 66.21,462.41 64.74,462.71 63.26,462.95 61.77,463.14 60.28,463.26 58.78,463.34 57.28,463.35 55.79,463.30 54.29,463.20 52.81,463.03 51.33,462.81 49.87,462.52 48.42,462.18 46.99,461.78 45.57,461.32 44.16,460.80 42.78,460.23 41.43,459.60 40.10,458.91 38.80,458.17 37.52,457.38 36.28,456.53 35.07,455.64 33.90,454.71 32.76,453.73 31.66,452.70 30.60,451.63 29.58,450.52 28.60,449.38 27.66,448.19 26.77,446.97 25.93,445.72 25.12,444.45 24.37,443.14 23.66,441.81 22.99,440.45 22.37,439.07 21.80,437.68 21.27,436.26 20.78,434.83 20.34,433.37 19.94,431.91 19.58,430.43 19.26,428.94 18.98,427.45 18.74,425.94 18.54,424.44 18.38,422.93 18.25,421.41 18.16,419.89 18.10,418.36 18.08,416.84 18.09,415.31 18.13,413.79 18.21,412.26 18.31,410.74 18.45,409.22 18.61,407.70 18.80,406.18 19.02,404.67 19.27,403.15 19.55,401.65 19.84,400.15 20.17,398.65 20.52,397.16 20.89,395.67 21.29,394.19 21.71,392.72 22.15,391.25 22.62,389.79 23.11,388.33 23.61,386.88 24.14,385.44 24.68,384.00 25.24,382.57 25.82,381.14 26.41,379.71 27.01,378.30 27.62,376.88 28.24,375.47 28.87,374.07 29.51,372.66 30.15,371.26 30.79,369.86 31.44,368.46 32.10,367.06 32.75,365.66 33.41,364.25 34.07,362.84 34.73,361.44 35.39,360.03 36.04,358.63 36.69,357.23 37.33,355.82 37.98,354.42 38.62,353.01 39.26,351.60 39.89,350.19 40.52,348.78 41.14,347.36 41.76,345.94 42.37,344.52 42.98,343.10 43.57,341.68 44.17,340.25 44.75,338.83 45.33,337.40 45.91,335.96 46.48,334.51 47.04,333.06 47.60,331.60 48.15,330.14 48.70,328.67 49.25,327.20 49.79,325.72 50.34,324.24 50.88,322.76 51.42,321.28 51.96,319.81 52.50,318.34 53.03,316.87 53.57,315.40 54.10,313.94 54.64,312.48 55.17,311.03 55.70,309.58 56.24,308.13 56.77,306.69 57.30,305.25 57.82,303.81 58.34,302.38 58.86,300.94 59.37,299.52 59.87,298.08 60.37,296.65 60.87,295.21 61.35,293.77 61.83,292.32 62.30,290.87 62.77,289.41 63.22,287.96 63.67,286.49 64.11,285.03 64.54,283.56 64.97,282.09 65.38,280.61 65.79,279.13 66.18,277.65 66.57,276.16 66.94,274.67 67.31,273.18 67.67,271.68 68.01,270.18 68.34,268.68 68.66,267.17 68.97,265.66 69.26,264.15 69.55,262.63 69.82,261.11 70.07,259.58 70.32,258.06 70.55,256.53 70.77,254.99 70.97,253.46 71.17,251.92 71.35,250.38 71.52,248.84 71.67,247.29 71.82,245.74 71.96,244.20 72.08,242.65 72.20,241.10 72.31,239.55 72.40,238.00 72.50,236.45 72.58,234.91 72.66,233.37 72.73,231.83 72.79,230.28 72.85,228.74 72.91,227.19 72.97,225.64 73.02,224.09 73.08,222.54 73.14,220.99 73.20,219.44 73.27,217.90 73.35,216.35 73.44,214.81 73.54,213.27 73.66,211.73 73.79,210.19 73.95,208.65 74.12,207.10 74.32,205.56 74.54,204.02 74.79,202.50 75.07,200.98 75.38,199.47 75.72,197.97 76.09,196.48 76.49,194.99 76.92,193.51 77.39,192.04 77.89,190.58 78.42,189.13 78.98,187.68 79.56,186.25 80.18,184.84 80.83,183.45 81.50,182.07 82.20,180.70 82.93,179.35 83.69,178.01 84.48,176.69 85.30,175.38 86.14,174.08 87.01,172.80 87.90,171.54 88.82,170.30 89.76,169.08 90.72,167.88 91.71,166.71 92.73,165.54 93.77,164.40 94.83,163.28 95.91,162.18 97.02,161.10 98.15,160.03 99.29,158.99 100.46,157.98 101.64,156.98 102.85,156.00 104.07,155.04 105.31,154.11 106.57,153.19 107.84,152.29 109.13,151.42 110.43,150.56 111.75,149.72 113.08,148.91 114.42,148.11 115.78,147.33 117.14,146.58 118.51,145.84 119.89,145.12 121.27,144.42 122.67,143.75 124.07,143.09 125.48,142.44 126.89,141.82 128.32,141.21 129.74,140.63 131.17,140.05 132.61,139.50 134.05,138.96 135.49,138.43 136.93,137.92 138.38,137.42 139.83,136.93 141.29,136.46 142.76,135.99 144.23,135.53 145.70,135.08 147.18,134.64 148.65,134.20 150.12,133.78 151.60,133.35 153.08,132.93 154.56,132.52 156.03,132.10 157.51,131.69 158.99,131.27 160.47,130.86 161.95,130.44 163.43,130.01 164.91,129.58 166.38,129.15 167.85,128.71 169.31,128.26 170.77,127.80 172.23,127.33 173.68,126.84 175.13,126.33 176.56,125.81 177.98,125.26 179.40,124.69 180.80,124.10 182.18,123.47 183.54,122.82 184.89,122.13 186.22,121.40 187.52,120.64 188.79,119.84 190.04,118.99 191.25,118.11 192.42,117.18 193.56,116.20 194.66,115.19 195.72,114.13 196.74,113.04 197.71,111.90 198.64,110.72 199.51,109.51 200.34,108.26 201.11,106.98 201.83,105.66 202.49,104.32 203.10,102.95 203.65,101.56 204.13,100.14 204.56,98.71 204.92,97.26 205.22,95.79 205.46,94.31 205.62,92.83 205.72,91.34 205.74,89.84 205.70,88.35 205.58,86.86 205.38,85.38 205.12,83.91 204.78,82.45 204.36,81.02 203.88,79.61 203.33,78.23 202.71,76.87 202.02,75.55 201.27,74.26 200.46,73.01 199.58,71.81 198.65,70.64 197.67,69.52 196.63,68.45 195.55,67.42 194.42,66.44 193.25,65.52 192.04,64.64 190.80,63.82 189.52,63.04 188.22,62.31 186.88,61.63 185.52,61.00 184.14,60.41 182.73,59.88 181.31,59.38 179.87,58.94 178.41,58.53 176.94,58.18 175.46,57.86 173.96,57.58 172.46,57.35 170.95,57.15 169.44,56.98 167.92,56.86 166.39,56.77 164.87,56.72 163.34,56.70 161.81,56.72 160.28,56.77 158.75,56.85 157.22,56.97 155.69,57.12 154.17,57.30 152.64,57.51 151.12,57.74 149.60,58.01 148.09,58.30 146.58,58.61 145.07,58.95 143.57,59.30 142.07,59.68 140.57,60.07 139.07,60.48 137.58,60.91 136.10,61.35 134.62,61.79 133.14,62.25 131.66,62.72 130.18,63.19 128.71,63.67 127.23,64.16 125.76,64.65 124.28,65.14 122.80,65.64 121.32,66.14 119.83,66.65 118.35,67.15 116.88,67.66 115.41,68.16 113.93,68.67 112.46,69.17 110.98,69.68 109.51,70.18 108.03,70.69 106.56,71.20 105.08,71.70 103.60,72.21 102.13,72.72 100.65,73.22 99.17,73.73 97.70,74.23 96.22,74.74 94.74,75.25 93.26,75.75 91.77,76.26 90.29,76.77 88.81,77.27 87.33,77.78 85.85,78.28 84.37,78.78 82.89,79.28 81.42,79.79 79.94,80.28 78.47,80.78 76.99,81.28 75.52,81.77 74.06,82.27 72.59,82.76 71.12,83.25 69.66,83.74 68.19,84.23 66.73,84.72 65.25,85.20 63.78,85.69 62.29,86.18 60.80,86.66 59.31,87.15 57.81,87.63 56.30,88.10 54.79,88.58 53.28,89.04 51.77,89.50 50.25,89.95 48.74,90.39 47.23,90.82 45.72,91.23 44.21,91.64 42.70,92.03 41.19,92.42 39.68,92.78 38.17,93.14 36.66,93.47 35.15,93.80 33.63,94.11 32.12,94.41 30.61,94.69 29.11,94.96 27.59,95.22 26.07,95.46 24.54,95.70 23.01,95.93 21.47,96.14 19.93,96.35 18.38,96.54 16.83,96.73 15.27,96.91 13.71,97.07 12.14,97.23 10.58,97.38 9.00,97.52 7.43,97.66 5.85,97.78 4.26,97.89 2.68,98.00 1.09,98.10 -0.51,98.19 -2.10,98.27 -3.70,98.34 -5.30,98.41 -6.90,98.47 -8.50,98.51 -10.08,98.55 -11.67,98.58 -13.25,98.61 -14.83,98.62 -16.40,98.63 -17.96,98.62 -19.53,98.61 -21.08,98.59 -22.64,98.56 -24.19,98.52 -25.73,98.46 -27.27,98.40 -28.80,98.33 -30.33,98.25 -31.86,98.16 -33.38,98.07 -34.91,97.96 -36.44,97.84 -37.98,97.71 -39.51,97.58 -41.05,97.43 -42.60,97.28 -44.14,97.11 -45.69,96.94 -47.24,96.76 -48.79,96.57 -50.34,96.36 -51.89,96.15 -53.45,95.93 -55.01,95.71 -56.57,95.47 -58.13,95.22 -59.70,94.97 -61.27,94.70 -62.83,94.43 -64.40,94.15 -65.98,93.86 -67.55,93.57 -69.13,93.26 -70.70,92.95 -72.28,92.63 -73.86,92.31 -75.45,91.98 -77.03,91.64 -78.62,91.29 -80.20,90.95 -81.77,90.60 -83.34,90.24 -84.90,89.89 -86.46,89.53 -88.00,89.17 -89.55,88.81 -91.08,88.45 -92.61,88.08 -94.13,87.72 -95.64,87.35 -97.15,86.98 -98.65,86.62 -100.15,86.25 -101.64,85.89 -103.12,85.53 -104.60,85.17 -106.08,84.81 -107.56,84.45 -109.05,84.10 -110.53,83.75 -112.02,83.40 -113.52,83.05 -115.01,82.71 -116.51,82.38 -118.02,82.05 -119.52,81.72 -121.03,81.41 -122.54,81.10 -124.06,80.79 -125.57,80.50 -127.09,80.21 -128.62,79.93 -130.14,79.66 -131.67,79.40 -133.20,79.15 -134.73,78.91 -136.26,78.67 -137.79,78.45 -139.33,78.23 -140.86,78.03 -142.40,77.83 -143.94,77.64 -145.47,77.46 -147.01,77.30 -148.54,77.14 -150.07,76.99 -151.61,76.85 -153.14,76.73 -154.66,76.61 -156.20,76.51 -157.73,76.41 -159.28,76.33 -160.83,76.26 -162.38,76.20 -163.94,76.16 -165.50,76.12 -167.07,76.10 -168.64,76.09 -170.21,76.10 -171.79,76.12 -173.37,76.15 -174.95,76.19 -176.54,76.25 -178.13,76.32 -179.72,76.40 -181.32,76.50 -182.91,76.61 -184.49,76.74 -186.07,76.88 -187.64,77.03 -189.21,77.20 -190.77,77.39 -192.32,77.59 -193.87,77.80 -195.41,78.03 -196.95,78.27 -198.48,78.53 -200.01,78.81 -201.53,79.10 -203.04,79.40 -204.55,79.72 -206.06,80.05 -207.56,80.40 -209.05,80.77 -210.54,81.14 -212.03,81.53 -213.51,81.94 -214.98,82.35 -216.46,82.78 -217.93,83.22 -219.39,83.67 -220.85,84.13 -222.31,84.60 -223.76,85.08 -225.21,85.57 -226.66,86.07 -228.11,86.58 -229.55,87.10 -230.99,87.62 -232.43,88.16 -233.86,88.70 -235.29,89.25 -236.72,89.81 -238.15,90.38 -239.57,90.95 -240.99,91.54 -242.41,92.13 -243.83,92.73 -245.24,93.34 -246.65,93.96 -248.06,94.59 -249.46,95.22 -250.86,95.87 -252.26,96.52 -253.65,97.18 -255.04,97.84 -256.43,98.52 -257.82,99.20 -259.20,99.89 -260.58,100.59 -261.95,101.30 -263.32,102.01 -264.69,102.73 -266.06,103.46 -267.42,104.20 -268.79,104.94 -270.14,105.68 -271.50,106.43 -272.85,107.19 -274.20,107.96 -275.55,108.72 -276.89,109.50 -278.24,110.28 -279.58,111.06 -280.92,111.84 -282.26,112.63 -283.59,113.42 -284.93,114.21 -286.27,115.01 -287.61,115.80 -288.95,116.59 -290.29,117.37 -291.63,118.15 -292.97,118.93 -294.32,119.70 -295.68,120.47 -297.03,121.22 -298.39,121.97 -299.76,122.70 -301.13,123.43 -302.51,124.14 -303.90,124.84 -305.28,125.53 -306.68,126.21 -308.08,126.87 -309.49,127.51 -310.90,128.15 -312.32,128.77 -313.75,129.38 -315.18,129.98 -316.61,130.56 -318.05,131.13 -319.49,131.70 -320.94,132.25 -322.39,132.79 -323.85,133.32 -325.31,133.84 -326.77,134.35 -328.23,134.86 -329.70,135.35 -331.17,135.84 -332.65,136.32 -334.12,136.79 -335.60,137.25 -337.08,137.70 -338.57,138.15 -340.06,138.59 -341.54,139.02 -343.04,139.44 -344.53,139.85 -346.03,140.25 -347.53,140.65 -349.03,141.03 -350.53,141.41 -352.04,141.78 -353.54,142.13 -355.05,142.48 -356.57,142.81 -358.08,143.14 -359.60,143.46 -361.11,143.76 -362.63,144.06 -364.16,144.34 -365.68,144.61 -367.21,144.88 -368.73,145.13 -370.26,145.37 -371.79,145.60 -373.32,145.82 -374.86,146.03 -376.39,146.24 -377.93,146.43 -379.47,146.61 -381.00,146.78 -382.54,146.94 -384.08,147.09 -385.63,147.24 -387.17,147.38 -388.71,147.50 -390.26,147.62 -391.80,147.74 -393.35,147.84 -394.89,147.94 -396.44,148.03 -397.99,148.12 -399.53,148.19 -401.08,148.26 -402.62,148.33 -404.17,148.38 -405.71,148.43 -407.25,148.48 -408.79,148.52 -410.32,148.56 -411.86,148.59 -413.40,148.61 -414.95,148.64 -416.51,148.65 -418.06,148.67 -419.62,148.68 -421.18,148.69 -422.75,148.70 -424.32,148.70 -425.89,148.70 -427.46,148.70 -429.04,148.70 -430.62,148.69 -432.20,148.68 -433.78,148.67 -435.37,148.66 -436.95,148.64 -438.54,148.63 -440.11,148.60 -441.68,148.58 -443.25,148.55 -444.80,148.51 -446.36,148.47 -447.92,148.43 -449.48,148.38 -451.04,148.33 -452.60,148.27 -454.15,148.21 -455.71,148.14 -457.27,148.07 -458.83,148.00 -460.39,147.92 -461.95,147.83 -463.51,147.75 -465.06,147.66 -466.62,147.57 -468.17,147.48 -469.73,147.38 -471.30,147.28 -472.86,147.18 -474.42,147.08 -475.98,146.97 -477.54,146.86 -479.09,146.75 -480.64,146.64 -482.19,146.52 -483.73,146.40 -485.27,146.28 -486.81,146.16 -488.36,146.02 -489.91,145.89 -491.46,145.74 -493.01,145.60 -494.57,145.44 -496.12,145.27 -497.67,145.10 -499.22,144.92 -500.76,144.73 -502.30,144.53 -503.84,144.31 -505.37,144.09 -506.90,143.85 -508.43,143.60 -509.96,143.33 -511.49,143.05 -513.02,142.75 -514.54,142.44 -516.06,142.11 -517.57,141.77 -519.08,141.41 -520.58,141.03 -522.07,140.63 -523.57,140.22 -525.05,139.80 -526.53,139.35 -528.00,138.90 -529.47,138.42 -530.94,137.93 -532.39,137.42 -533.84,136.90 -535.28,136.35 -536.71,135.80 -538.12,135.22 -539.53,134.63 -540.93,134.02 -542.31,133.40 -543.68,132.75 -545.05,132.09 -546.41,131.41 -547.75,130.71 -549.09,129.99 -550.42,129.25 -551.74,128.50 -553.05,127.72 -554.35,126.92 -555.65,126.10 -556.93,125.26 -558.21,124.39 -559.47,123.51 -560.73,122.60 -561.97,121.67 -563.21,120.73 -564.43,119.75 -565.64,118.76 -566.83,117.75 -568.01,116.72 -569.17,115.67 -570.31,114.61 -571.43,113.53 -572.53,112.43 -573.61,111.32 -574.68,110.20 -575.72,109.06 -576.74,107.90 -577.74,106.73 -578.73,105.55 -579.69,104.36 -580.63,103.16 -581.55,101.94 -582.45,100.71 -583.32,99.47 -584.18,98.22 -585.02,96.96 -585.84,95.68 -586.65,94.39 -587.44,93.08 -588.20,91.76 -588.95,90.42 -589.68,89.07 -590.39,87.71 -591.08,86.34 -591.75,84.95 -592.40,83.54 -593.03,82.13 -593.64,80.70 -594.22,79.26 -594.78,77.81 -595.31,76.34 -595.83,74.86 -596.32,73.37 -596.78,71.87 -597.23,70.37 -597.64,68.86 -598.04,67.35 -598.41,65.83 -598.75,64.31 -599.08,62.79 -599.38,61.26 -599.66,59.74 -599.92,58.21 -600.16,56.68 -600.37,55.15 -600.57,53.63 -600.75,52.10 -600.90,50.57 -601.04,49.05 -601.16,47.52 -601.26,46.00 -601.34,44.47 -601.40,42.94 -601.44,41.41 -601.47,39.87 -601.47,38.33 -601.45,36.79 -601.41,35.25 -601.35,33.71 -601.26,32.16 -601.16,30.61 -601.03,29.07 -600.88,27.52 -600.71,25.97 -600.51,24.43 -600.30,22.88 -600.05,21.34 -599.79,19.80 -599.50,18.26 -599.20,16.72 -598.87,15.18 -598.52,13.65 -598.14,12.12 -597.75,10.59 -597.34,9.07 -596.91,7.55 -596.45,6.03 -595.98,4.52 -595.49,3.01 -594.98,1.51 -594.45,0.01 -593.90,-1.49 -593.34,-2.98 -592.76,-4.46 -592.16,-5.94 -591.54,-7.42 -590.91,-8.89 -590.26,-10.34 -589.60,-11.79 -588.92,-13.22 -588.24,-14.65 -587.54,-16.06 -586.83,-17.46 -586.11,-18.85 -585.38,-20.22 -584.64,-21.59 -583.90,-22.95 -583.14,-24.30 -582.38,-25.63 -581.61,-26.96 -580.83,-28.28 -580.05,-29.58 -579.26,-30.88 -578.46,-32.17 -577.66,-33.46 -576.85,-34.74 -576.03,-36.02 -575.20,-37.30 -574.37,-38.58 -573.53,-39.85 -572.68,-41.12 -571.83,-42.39 -570.97,-43.66 -570.10,-44.93 -569.23,-46.19 -568.35,-47.45 -567.46,-48.71 -566.57,-49.97 -565.67,-51.23 -564.77,-52.48 -563.86,-53.74 -562.95,-54.99 -562.03,-56.24 -561.12,-57.49 -560.19,-58.75 -559.27,-60.00 -558.34,-61.25 -557.41,-62.51 -556.47,-63.76 -555.54,-65.01 -554.60,-66.27 -553.66,-67.52 -552.73,-68.78 -551.79,-70.04 -550.86,-71.30 -549.92,-72.56 -548.99,-73.83 -548.06,-75.09 -547.14,-76.36 -546.22,-77.63 -545.30,-78.91 -544.40,-80.19 -543.49,-81.47 -542.60,-82.75 -541.71,-84.04 -540.83,-85.33 -539.96,-86.63 -539.10,-87.93 -538.25,-89.24 -537.41,-90.55 -536.58,-91.86 -535.76,-93.18 -534.95,-94.50 -534.15,-95.83 -533.36,-97.16 -532.59,-98.50 -531.82,-99.84 -531.06,-101.18 -530.32,-102.53 -529.59,-103.88 -528.86,-105.23 -528.15,-106.59 -527.44,-107.95 -526.75,-109.32 -526.07,-110.68 -525.39,-112.05 -524.72,-113.43 -524.05,-114.82 -523.39,-116.22 -522.74,-117.62 -522.10,-119.02 -521.46,-120.43 -520.83,-121.84 -520.20,-123.25 -519.58,-124.67 -518.96,-126.09 -518.35,-127.52 -517.73,-128.95 -517.12,-130.38 -516.51,-131.82 -515.90,-133.26 -515.29,-134.70 -514.68,-136.14 -514.07,-137.57 -513.47,-139.01 -512.86,-140.44 -512.25,-141.87 -511.63,-143.30 -511.02,-144.72 -510.40,-146.14 -509.77,-147.56 -509.14,-148.99 -508.50,-150.40 -507.85,-151.81 -507.19,-153.22 -506.52,-154.61 -505.84,-156.00 -505.15,-157.39 -504.45,-158.76 -503.73,-160.13 -502.99,-161.48 -502.24,-162.81 -501.48,-164.13 -500.69,-165.44 -499.89,-166.74 -499.06,-168.03 -498.21,-169.30 -497.34,-170.56 -496.45,-171.80 -495.53,-173.02 -494.59,-174.23 -493.62,-175.43 -492.64,-176.61 -491.63,-177.77 -490.60,-178.92 -489.55,-180.05 -488.48,-181.17 -487.38,-182.27 -486.27,-183.36 -485.13,-184.43 -483.98,-185.48 -482.80,-186.52 -481.61,-187.53 -480.40,-188.52 -479.17,-189.49 -477.93,-190.44 -476.67,-191.37 -475.40,-192.27 -474.11,-193.14 -472.81,-194.00 -471.49,-194.82 -470.15,-195.62 -468.80,-196.40 -467.43,-197.15 -466.05,-197.87 -464.66,-198.57 -463.25,-199.24 -461.83,-199.89 -460.41,-200.50 -458.97,-201.09 -457.53,-201.66 -456.07,-202.19 -454.61,-202.71 -453.14,-203.20 -451.66,-203.66 -450.17,-204.10 -448.68,-204.52 -447.19,-204.91 -445.69,-205.28 -444.19,-205.63 -442.68,-205.96 -441.18,-206.26 -439.67,-206.55 -438.16,-206.81 -436.64,-207.06 -435.11,-207.29 -433.58,-207.50 -432.05,-207.69 -430.52,-207.86 -428.98,-208.02 -427.45,-208.16 -425.91,-208.28 -424.38,-208.38 -422.84,-208.47 -421.30,-208.55 -419.76,-208.60 -418.21,-208.64 -416.68,-208.67 -415.14,-208.68 -413.60,-208.67 -412.07,-208.65 -410.54,-208.61 -409.00,-208.56 -407.47,-208.49 -405.94,-208.40 -404.40,-208.30 -402.86,-208.19 -401.33,-208.06 -399.79,-207.91 -398.25,-207.75 -396.72,-207.57 -395.18,-207.38 -393.65,-207.18 -392.11,-206.96 -390.58,-206.73 -389.05,-206.48 -387.51,-206.22 -385.98,-205.95 -384.46,-205.66 -382.93,-205.36 -381.42,-205.04 -379.91,-204.71 -378.41,-204.37 -376.91,-204.01 -375.42,-203.64 -373.94,-203.26 -372.46,-202.86 -370.98,-202.44 -369.52,-202.01 -368.06,-201.56 -366.60,-201.10 -365.15,-200.62 -363.70,-200.13 -362.25,-199.62 -360.81,-199.09 -359.37,-198.55 -357.93,-197.99 -356.50,-197.42 -355.08,-196.84 -353.66,-196.24 -352.24,-195.63 -350.83,-195.01 -349.42,-194.37 -348.02,-193.73 -346.62,-193.07 -345.23,-192.40 -343.84,-191.72 -342.45,-191.04 -341.07,-190.34 -339.70,-189.64 -338.33,-188.92 -336.96,-188.20 -335.60,-187.47 -334.25,-186.74 -332.90,-186.00 -331.56,-185.24 -330.21,-184.48 -328.87,-183.71 -327.54,-182.93 -326.21,-182.15 -324.88,-181.36 -323.56,-180.56 -322.25,-179.75 -320.94,-178.93 -319.64,-178.10 -318.34,-177.27 -317.04,-176.42 -315.76,-175.56 -314.48,-174.70 -313.21,-173.82 -311.94,-172.93 -310.68,-172.03 -309.44,-171.11 -308.20,-170.19 -306.98,-169.25 -305.77,-168.29 -304.57,-167.31 -303.39,-166.32 -302.23,-165.31 -301.09,-164.28 -299.97,-163.23 -298.87,-162.16 -297.80,-161.06 -296.75,-159.94 -295.74,-158.80 -294.76,-157.63 -293.80,-156.44 -292.89,-155.23 -292.01,-153.99 -291.16,-152.72 -290.36,-151.43 -289.60,-150.11 -288.87,-148.77 -288.20,-147.41 -287.56,-146.03 -286.97,-144.63 -286.42,-143.22 -285.91,-141.79 -285.46,-140.34 -285.04,-138.88 -284.67,-137.41 -284.35,-135.92 -284.08,-134.43 -283.86,-132.93 -283.68,-131.43 -283.55,-129.92 -283.47,-128.41 -283.44,-126.90 -283.45,-125.39 -283.52,-123.88 -283.64,-122.38 -283.80,-120.88 -284.02,-119.39 -284.28,-117.90 -284.60,-116.43 -284.97,-114.96 -285.38,-113.51 -285.84,-112.07 -286.35,-110.65 -286.91,-109.24 -287.51,-107.85 -288.15,-106.48 -288.83,-105.13 -289.56,-103.79 -290.32,-102.48 -291.13,-101.19 -291.97,-99.93 -292.84,-98.69 -293.75,-97.47 -294.69,-96.27 -295.66,-95.10 -296.66,-93.95 -297.69,-92.83 -298.74,-91.74 -299.82,-90.67 -300.93,-89.63 -302.07,-88.61 -303.23,-87.62 -304.41,-86.67 -305.62,-85.74 -306.85,-84.84 -308.11,-83.98 -309.38,-83.14 -310.68,-82.33 -312.00,-81.55 -313.33,-80.81 -314.68,-80.09 -316.05,-79.41 -317.44,-78.75 -318.84,-78.13 -320.25,-77.53 -321.67,-76.95 -323.11,-76.41 -324.56,-75.88 -326.01,-75.38 -327.48,-74.91 -328.95,-74.45 -330.42,-74.01 -331.91,-73.58 -333.39,-73.18 -334.88,-72.79 -336.37,-72.42 -337.86,-72.06 -339.36,-71.71 -340.87,-71.38 -342.37,-71.06 -343.88,-70.75 -345.39,-70.45 -346.90,-70.16 -348.41,-69.89 -349.92,-69.62 -351.45,-69.37 -352.97,-69.12 -354.50,-68.88 -356.02,-68.65 -357.54,-68.43 -359.07,-68.22 -360.59,-68.01 -362.12,-67.81 -363.64,-67.61 -365.16,-67.42 -366.69,-67.23 -368.22,-67.04 -369.75,-66.85 -371.28,-66.67 -372.81,-66.48 -374.34,-66.30 -375.88,-66.11 -377.41,-65.92 -378.94,-65.73 -380.47,-65.54 -382.00,-65.35 -383.53,-65.15 -385.06,-64.96 -386.60,-64.76 -388.12,-64.55 -389.66,-64.35 -391.19,-64.13 -392.72,-63.92 -394.26,-63.70 -395.79,-63.47 -397.31,-63.24 -398.83,-63.01 -400.35,-62.76 -401.87,-62.52 -403.39,-62.26 -404.91,-62.00 -406.42,-61.72 -407.94,-61.44 -409.46,-61.15 -410.97,-60.84 -412.49,-60.53 -414.00,-60.20 -415.51,-59.87 -417.02,-59.52 -418.52,-59.15 -420.02,-58.78 -421.51,-58.39 -423.00,-57.98 -424.49,-57.56 -425.98,-57.13 -427.45,-56.68 -428.92,-56.21 -430.38,-55.72 -431.84,-55.22 -433.28,-54.69 -434.72,-54.14 -436.15,-53.57 -437.56,-52.97 -438.97,-52.35 -440.36,-51.70 -441.74,-51.02 -443.09,-50.32 -444.43,-49.58 -445.75,-48.80 -447.05,-47.99 -448.32,-47.14 -449.56,-46.26 -450.78,-45.35 -451.96,-44.39 -453.11,-43.40 -454.23,-42.38 -455.31,-41.31 -456.36,-40.22 -457.37,-39.09 -458.34,-37.92 -459.27,-36.73 -460.17,-35.51 -461.02,-34.25 -461.84,-32.97 -462.61,-31.66 -463.35,-30.34 -464.04,-28.99 -464.70,-27.62 -465.31,-26.23 -465.88,-24.82 -466.40,-23.40 -466.89,-21.97 -467.33,-20.52 -467.73,-19.06 -468.08,-17.59 -468.39,-16.11 -468.65,-14.62 -468.86,-13.12 -469.03,-11.61 -469.14,-10.10 -469.21,-8.59 -469.22,-7.07 -469.19,-5.56 -469.10,-4.04 -468.97,-2.53 -468.78,-1.03 -468.54,0.47 -468.26,1.95 -467.92,3.43 -467.53,4.90 -467.09,6.35 -466.60,7.78 -466.06,9.20 -465.47,10.60 -464.84,11.98 -464.15,13.33 -463.43,14.66 -462.66,15.97 -461.85,17.25 -461.00,18.50 -460.11,19.73 -459.18,20.93 -458.21,22.11 -457.21,23.26 -456.18,24.39 -455.12,25.49 -454.03,26.55 -452.91,27.59 -451.77,28.61 -450.60,29.59 -449.41,30.55 -448.20,31.49 -446.97,32.39 -445.72,33.27 -444.45,34.12 -443.16,34.95 -441.85,35.75 -440.53,36.53 -439.19,37.27 -437.84,38.00 -436.48,38.70 -435.11,39.37 -433.72,40.02 -432.32,40.64 -430.91,41.25 -429.48,41.82 -428.04,42.38 -426.60,42.91 -425.15,43.41 -423.68,43.90 -422.21,44.36 -420.74,44.80 -419.25,45.22 -417.76,45.62 -416.27,46.00 -414.76,46.35 -413.25,46.69 -411.73,47.01 -410.21,47.32 -408.69,47.60 -407.17,47.87 -405.65,48.12 -404.12,48.36 -402.60,48.58 -401.07,48.78 -399.53,48.98 -397.99,49.16 -396.45,49.33 -394.90,49.49 -393.35,49.63 -391.80,49.77 -390.25,49.89 -388.70,50.00 -387.16,50.11 -385.62,50.20 -384.07,50.29 -382.53,50.36 -380.98,50.43 -379.44,50.49 -377.89,50.54 -376.35,50.59 -374.81,50.63 -373.27,50.66 -371.73,50.68 -370.19,50.70 -368.65,50.71 -367.12,50.72 -365.58,50.72 -364.04,50.72 -362.50,50.72 -360.95,50.71 -359.40,50.70 -357.84,50.69 -356.28,50.67 -354.71,50.65 -353.15,50.63 -351.59,50.61 -350.02,50.59 -348.46,50.57 -346.90,50.54 -345.34,50.52 -343.79,50.49 -342.23,50.47 -340.68,50.44 -339.13,50.41 -337.58,50.38 -336.04,50.35 -334.49,50.32 -332.95,50.29 -331.41,50.26 -329.88,50.23 -328.34,50.19 -326.81,50.16 -325.26,50.12 -323.72,50.08 -322.17,50.04 -320.61,49.99 -319.05,49.95 -317.49,49.90 -315.92,49.85 -314.35,49.80 -312.78,49.74 -311.20,49.68 -309.62,49.62 -308.03,49.56 -306.44,49.50 -304.85,49.43 -303.26,49.36 -301.67,49.28 -300.09,49.21 -298.51,49.13 -296.94,49.05 -295.37,48.97 -293.80,48.88 -292.24,48.79 -290.68,48.70 -289.13,48.61 -287.58,48.52 -286.03,48.42 -284.49,48.32 -282.95,48.21 -281.42,48.11 -279.90,48.00 -278.37,47.89 -276.85,47.77 -275.32,47.65 -273.79,47.53 -272.26,47.41 -270.72,47.28 -269.18,47.15 -267.64,47.01 -266.10,46.87 -264.56,46.73 -263.01,46.58 -261.46,46.44 -259.91,46.28 -258.35,46.13 -256.80,45.97 -255.24,45.80 -253.68,45.63 -252.11,45.46 -250.55,45.28 -248.98,45.11 -247.41,44.92 -245.84,44.73 -244.27,44.54 -242.70,44.35 -241.12,44.15 -239.55,43.95 -237.97,43.74 -236.39,43.53 -234.82,43.32 -233.24,43.11 -231.66,42.89 -230.08,42.66 -228.49,42.44 -226.91,42.21 -225.33,41.98 -223.74,41.74 -222.15,41.51 -220.56,41.27 -218.97,41.03 -217.38,40.78 -215.79,40.53 -214.19,40.28 -212.60,40.03 -211.01,39.77 -209.42,39.51 -207.84,39.26 -206.27,39.00 -204.70,38.74 -203.14,38.48 -201.58,38.21 -200.03,37.95 -198.49,37.69 -196.96,37.42 -195.43,37.15 -193.90,36.88 -192.39,36.61 -190.87,36.34 -189.37,36.07 -187.87,35.80 -186.38,35.52 -184.89,35.24 -183.40,34.96 -181.90,34.68 -180.41,34.39 -178.91,34.10 -177.41,33.80 -175.91,33.50 -174.41,33.20 -172.91,32.89 -171.41,32.58 -169.91,32.27 -168.41,31.95 -166.90,31.63 -165.40,31.30 -163.89,30.97 -162.39,30.63 -160.88,30.29 -159.37,29.95 -157.87,29.60 -156.36,29.25 -154.85,28.89 -153.34,28.53 -151.83,28.16 -150.32,27.79 -148.81,27.41 -147.30,27.03 -145.79,26.64 -144.28,26.25 -142.77,25.85 -141.26,25.45 -139.75,25.04 -138.24,24.63 -136.72,24.21 -135.21,23.78 -133.70,23.35 -132.19,22.92 -130.68,22.48 -129.17,22.03 -127.66,21.58 -126.15,21.12 -124.64,20.66 -123.13,20.19 -121.62,19.71 -120.11,19.23 -118.60,18.74 -117.10,18.25 -115.59,17.75 -114.09,17.24 -112.59,16.73 -111.08,16.21 -109.58,15.68 -108.08,15.15 -106.59,14.62 -105.09,14.07 -103.60,13.53 -102.10,12.97 -100.61,12.42 -99.12,11.85 -97.63,11.28 -96.15,10.71 -94.66,10.13 -93.18,9.54 -91.70,8.96 -90.22,8.36 -88.74,7.77 -87.26,7.17 -85.78,6.57 -84.30,5.97 -82.82,5.36 -81.34,4.76 -79.87,4.15 -78.39,3.54 -76.91,2.93 -75.43,2.32 -73.96,1.71 -72.48,1.10 -71.00,0.49 -69.52,-0.12 -68.04,-0.73 -66.56,-1.33 -65.08,-1.94 -63.60,-2.55 -62.12,-3.16 -60.64,-3.78 -59.16,-4.39 -57.69,-5.00 -56.21,-5.62 -54.74,-6.23 -53.26,-6.85 -51.80,-7.46 -50.33,-8.08 -48.88,-8.70 -47.42,-9.32 -45.97,-9.94 -44.53,-10.56 -43.09,-11.18 -41.65,-11.81 -40.21,-12.43 -38.77,-13.07 -37.34,-13.70 -35.90,-14.34 -34.47,-14.98 -33.05,-15.62 -31.63,-16.26 -30.21,-16.91 -28.79,-17.55 -27.37,-18.20 -25.95,-18.86 -24.52,-19.51 -23.10,-20.17 -21.67,-20.83 -20.24,-21.50 -18.82,-22.16 -17.40,-22.82 -15.98,-23.48 -14.56,-24.15 -13.15,-24.81 -11.73,-25.47 -10.32,-26.14 -8.91,-26.80 -7.50,-27.46 -6.09,-28.13 -4.68,-28.80 -3.27,-29.46 -1.86,-30.13 -0.46,-30.80 0.94,-31.46 2.34,-32.13 3.75,-32.80 5.15,-33.47 6.55,-34.14 7.95,-34.80 9.35,-35.47 10.75,-36.13 12.16,-36.79 13.56,-37.44 14.97,-38.09 16.39,-38.73 17.81,-39.36 19.24,-39.97 20.66,-40.57 22.10,-41.15 23.53,-41.70 24.98,-42.24 26.43,-42.75 27.90,-43.24 29.36,-43.69 30.84,-44.12 32.32,-44.50 33.81,-44.86 35.30,-45.17 36.80,-45.44 38.31,-45.68 39.82,-45.87 41.34,-46.02 42.85,-46.12 44.37,-46.18 45.88,-46.18 47.40,-46.14 48.91,-46.05 50.42,-45.90 51.91,-45.70 53.40,-45.45 54.87,-45.14 56.34,-44.78 57.79,-44.36 59.23,-43.89 60.64,-43.37 62.04,-42.80 63.42,-42.18 64.78,-41.51 66.11,-40.80 67.42,-40.04 68.71,-39.24 69.98,-38.40 71.23,-37.53 72.45,-36.62 73.65,-35.69 74.84,-34.73 76.01,-33.75 77.16,-32.76 78.30,-31.74 79.44,-30.72 80.56,-29.69 81.69,-28.66 82.81,-27.62 83.94,-26.60 85.08,-25.59 86.23,-24.59 87.39,-23.61 88.57,-22.65 89.77,-21.73 91.00,-20.84 92.25,-19.99 93.52,-19.18 94.82,-18.43 96.15,-17.73 97.50,-17.08 98.87,-16.50 100.26,-15.98 101.68,-15.53 103.11,-15.15 104.56,-14.84 106.02,-14.62 107.49,-14.47 108.96,-14.40 110.42,-14.42 111.89,-14.52 113.34,-14.70 114.78,-14.96 116.20,-15.30 117.60,-15.72 118.98,-16.21 120.34,-16.78 121.66,-17.42 122.95,-18.13 124.21,-18.91 125.43,-19.75 126.62,-20.65 127.76,-21.61 128.86,-22.62 129.91,-23.68 130.93,-24.78 131.89,-25.93 132.82,-27.11 133.70,-28.33 134.53,-29.58 135.32,-30.87 136.06,-32.18 136.76,-33.53 137.41,-34.89 138.02,-36.28 138.58,-37.69 139.10,-39.12 139.58,-40.57 140.01,-42.03 140.41,-43.50 140.76,-44.99 141.08,-46.48 141.36,-47.99 141.60,-49.50 141.81,-51.02 141.98,-52.54 142.12,-54.07 142.23,-55.60 142.31,-57.13 142.35,-58.66 142.37,-60.20 142.37,-61.74 142.33,-63.27 142.28,-64.81 142.20,-66.35 142.10,-67.88 141.98,-69.42 141.84,-70.96 141.68,-72.50 141.51,-74.03 141.33,-75.57 141.13,-77.09 140.92,-78.62 140.69,-80.15 140.46,-81.68 140.22,-83.20 139.97,-84.73 139.71,-86.25 139.45,-87.77 139.17,-89.30 138.89,-90.83 138.60,-92.36 138.31,-93.89 138.01,-95.42 137.70,-96.95 137.39,-98.48 137.07,-100.01 136.76,-101.53 136.43,-103.06 136.10,-104.58 135.77,-106.11 135.44,-107.63 135.10,-109.16 134.76,-110.68 134.42,-112.20 134.08,-113.72 133.73,-115.24 133.38,-116.75 133.03,-118.27 132.68,-119.79 132.32,-121.31 131.97,-122.82 131.61,-124.34 131.25,-125.86 130.89,-127.37 130.53,-128.89 130.17,-130.40 129.81,-131.92 129.45,-133.43 129.09,-134.94 128.73,-136.45 128.37,-137.96 128.01,-139.47 127.65,-140.97 127.29,-142.48 126.93,-143.98 126.57,-145.48 126.22,-146.99 125.87,-148.49 125.52,-149.99 125.17,-151.50 124.82,-153.01 124.47,-154.53 124.12,-156.06 123.78,-157.59 123.44,-159.13 123.10,-160.67 122.76,-162.21 122.42,-163.76 122.09,-165.32 121.76,-166.87 121.44,-168.42 121.12,-169.97 120.80,-171.51 120.49,-173.05 120.18,-174.59 119.88,-176.13 119.58,-177.66 119.29,-179.19 119.00,-180.72 118.71,-182.24 118.43,-183.76 118.15,-185.28 117.88,-186.79 117.61,-188.30 117.35,-189.80 117.09,-191.30 116.83,-192.81 116.58,-194.31 116.33,-195.82 116.09,-197.33 115.85,-198.85 115.62,-200.36 115.39,-201.87 115.17,-203.39 114.95,-204.91 114.73,-206.43 114.52,-207.96 114.32,-209.50 114.11,-211.04 113.91,-212.58 113.72,-214.12 113.52,-215.67 113.33,-217.22 113.14,-218.77 112.95,-220.32 112.76,-221.87 112.56,-223.41 112.37,-224.96 112.18,-226.51 111.99,-228.06 111.79,-229.61 111.59,-231.17 111.39,-232.72 111.19,-234.27 110.99,-235.82 110.78,-237.37 110.58,-238.91 110.37,-240.46 110.16,-242.00 109.96,-243.54 109.75,-245.08 109.55,-246.62 109.35,-248.16 109.15,-249.69 108.96,-251.24 108.77,-252.79 108.59,-254.33 108.42,-255.88 108.25,-257.43 108.09,-258.98 107.95,-260.52 107.81,-262.07 107.69,-263.61 107.59,-265.15 107.49,-266.69 107.41,-268.23 107.35,-269.77 107.30,-271.32 107.26,-272.87 107.24,-274.42 107.24,-275.98 107.26,-277.53 107.29,-279.09 107.35,-280.64 107.41,-282.19 107.50,-283.73 107.61,-285.27 107.73,-286.81 107.88,-288.34 108.04,-289.87 108.23,-291.40 108.44,-292.94 108.67,-294.47 108.93,-295.99 109.21,-297.52 109.52,-299.03 109.86,-300.53 110.22,-302.03 110.62,-303.51 111.04,-304.98 111.49,-306.44 111.97,-307.89 112.48,-309.32 113.03,-310.75 113.60,-312.15 114.21,-313.55 114.84,-314.93 115.51,-316.29 116.21,-317.63 116.93,-318.95 117.69,-320.26 118.47,-321.54 119.29,-322.81 120.13,-324.06 121.00,-325.29 121.90,-326.51 122.83,-327.70 123.79,-328.88 124.77,-330.04 125.78,-331.18 126.82,-332.30 127.88,-333.40 128.97,-334.47 130.08,-335.52 131.21,-336.55 132.38,-337.55 133.56,-338.53 134.78,-339.48 136.01,-340.41 137.27,-341.31 138.54,-342.17 139.84,-343.01 141.15,-343.81 142.47,-344.58 143.81,-345.32 145.17,-346.02 146.55,-346.70 147.95,-347.35 149.36,-347.96 150.79,-348.55 152.23,-349.10 153.68,-349.63 155.15,-350.12 156.63,-350.59 158.11,-351.02 159.59,-351.43 161.08,-351.81 162.58,-352.16 164.09,-352.49 165.60,-352.79 167.12,-353.07 168.65,-353.33 170.18,-353.56 171.72,-353.78 173.26,-353.97 174.80,-354.14 176.35,-354.30 177.90,-354.44 179.45,-354.56 180.99,-354.67 182.54,-354.76 184.09,-354.83 185.63,-354.90 187.18,-354.95 188.73,-354.99 190.28,-355.01 191.84,-355.03 193.39,-355.03 194.94,-355.03 196.49,-355.01 198.05,-354.99 199.60,-354.96 201.15,-354.91 202.70,-354.86 204.25,-354.80 205.81,-354.73 207.37,-354.66 208.94,-354.57 210.51,-354.48 212.08,-354.39 213.64,-354.29 215.21,-354.18 216.77,-354.06 218.33,-353.94 219.89,-353.81 221.44,-353.68 222.99,-353.54 224.54,-353.39 226.09,-353.23 227.63,-353.07 229.17,-352.90 230.71,-352.72 232.24,-352.54 233.77,-352.34 235.30,-352.14 236.83,-351.92 238.36,-351.70 239.89,-351.46 241.42,-351.22 242.96,-350.96 244.50,-350.69 246.03,-350.42 247.57,-350.13 249.11,-349.82 250.65,-349.51 252.19,-349.19 253.72,-348.85 255.26,-348.50 256.79,-348.14 258.33,-347.77 259.86,-347.38 261.39,-346.98 262.92,-346.56 264.44,-346.13 265.97,-345.69 267.49,-345.24 269.00,-344.77 270.52,-344.28 272.03,-343.78 273.54,-343.27 275.04,-342.74 276.54,-342.20 278.04,-341.64 279.53,-341.06 281.01,-340.47 282.49,-339.86 283.97,-339.24 285.43,-338.59 286.89,-337.93 288.34,-337.26 289.78,-336.56 291.21,-335.84 292.63,-335.11 294.04,-334.35 295.44,-333.58 296.83,-332.78 298.21,-331.97 299.57,-331.13 300.92,-330.27 302.26,-329.39 303.58,-328.49 304.89,-327.57 306.19,-326.63 307.47,-325.67 308.74,-324.69 309.99,-323.69 311.23,-322.67 312.45,-321.63 313.67,-320.57 314.86,-319.50 316.05,-318.41 317.22,-317.30 318.37,-316.17 319.52,-315.03 320.64,-313.88 321.75,-312.72 322.84,-311.55 323.91,-310.37 324.96,-309.18 325.99,-307.99 327.01,-306.79 328.00,-305.58 328.98,-304.36 329.94,-303.14 330.88,-301.91 331.80,-300.67 332.71,-299.43 333.59,-298.18 334.45,-296.92 335.30,-295.66 336.12,-294.40 336.93,-293.12 337.72,-291.83 338.50,-290.53 339.26,-289.21 340.00,-287.89 340.73,-286.56 341.44,-285.21 342.13,-283.85 342.81,-282.49 343.46,-281.11 344.11,-279.73 344.73,-278.33 345.34,-276.93 345.94,-275.52 346.52,-274.09 347.08,-272.66 347.63,-271.23 348.16,-269.78 348.67,-268.33 349.18,-266.87 349.66,-265.40 350.14,-263.93 350.60,-262.45 351.04,-260.97 351.47,-259.48 351.89,-257.98 352.29,-256.48 352.68,-254.97 353.05,-253.45 353.41,-251.93 353.76,-250.41 354.09,-248.88 354.41,-247.35 354.71,-245.81 354.99,-244.27 355.27,-242.72 355.52,-241.17 355.77,-239.61 356.00,-238.05 356.21,-236.49 356.41,-234.92 356.60,-233.35 356.77,-231.77 356.93,-230.20 357.07,-228.62 357.21,-227.03 357.32,-225.45 357.43,-223.86 357.52,-222.27 357.60,-220.67 357.66,-219.08 357.71,-217.48 357.75,-215.88 357.78,-214.28 357.80,-212.68 357.80,-211.07 357.79,-209.46 357.76,-207.86 357.73,-206.25 357.68,-204.63 357.62,-203.02 357.54,-201.41 357.46,-199.80 357.35,-198.18 357.24,-196.57 357.11,-194.95 356.97,-193.34 356.81,-191.72 356.64,-190.11 356.45,-188.49 356.24,-186.88 356.02,-185.27 355.79,-183.65 355.54,-182.04 355.27,-180.43 354.98,-178.82 354.68,-177.22 354.37,-175.61 354.04,-174.02 353.69,-172.43 353.33,-170.86 352.96,-169.29 352.58,-167.74 352.19,-166.20 351.78,-164.67 351.37,-163.15 350.94,-161.64 350.51,-160.13 350.07,-158.64 349.62,-157.16 349.17,-155.69 348.71,-154.23 348.24,-152.78 347.77,-151.34 347.29,-149.90 346.81,-148.47 346.32,-147.04 345.82,-145.61 345.32,-144.18 344.82,-142.75 344.30,-141.32 343.78,-139.90 343.26,-138.47 342.73,-137.04 342.20,-135.62 341.66,-134.19 341.11,-132.77 340.57,-131.34 340.01,-129.92 339.45,-128.49 338.89,-127.07 338.32,-125.65 337.74,-124.23 337.17,-122.81 336.58,-121.39 336.00,-119.97 335.41,-118.55 334.81,-117.13 334.21,-115.71 333.61,-114.29 333.00,-112.87 332.39,-111.45 331.78,-110.04 331.16,-108.62 330.54,-107.20 329.92,-105.78 329.30,-104.36 328.67,-102.95 328.04,-101.53 327.41,-100.11 326.78,-98.69 326.14,-97.27 325.51,-95.85 324.87,-94.43 324.24,-93.00 323.60,-91.58 322.96,-90.16 322.32,-88.74 321.69,-87.31 321.05,-85.89 320.41,-84.47 319.77,-83.04 319.13,-81.62 318.49,-80.19 317.85,-78.77 317.21,-77.34 316.57,-75.92 315.93,-74.49 315.29,-73.06 314.65,-71.64 314.01,-70.21 313.37,-68.78 312.73,-67.36 312.09,-65.93 311.46,-64.50 310.82,-63.07 310.18,-61.64 309.55,-60.21 308.91,-58.78 308.28,-57.35 307.65,-55.91 307.02,-54.48 306.38,-53.05 305.76,-51.61 305.13,-50.18 304.50,-48.74 303.87,-47.30 303.25,-45.87 302.62,-44.43 301.99,-42.99 301.37,-41.55 300.74,-40.11 300.12,-38.67 299.49,-37.23 298.87,-35.79 298.24,-34.35 297.62,-32.91 297.00,-31.47 296.37,-30.03 295.75,-28.59 295.12,-27.15 294.50,-25.71 293.88,-24.26 293.25,-22.82 292.63,-21.38 292.01,-19.93 291.39,-18.49 290.77,-17.04 290.15,-15.60 289.53,-14.15 288.91,-12.70 288.29,-11.26 287.67,-9.81 287.05,-8.36 286.43,-6.92 285.81,-5.47 285.19,-4.02 284.57,-2.57 283.95,-1.13 283.32,0.32 282.70,1.77 282.08,3.22 281.46,4.66 280.83,6.11 280.21,7.56 279.59,9.01 278.97,10.46 278.34,11.91 277.72,13.36 277.10,14.81 276.48,16.26 275.87,17.71 275.25,19.16 274.63,20.62 274.02,22.07 273.41,23.53 272.79,24.98 272.18,26.44 271.57,27.89 270.97,29.35 270.36,30.81 269.75,32.27 269.15,33.72 268.54,35.18 267.93,36.64 267.33,38.10 266.72,39.56 266.12,41.02 265.51,42.48 264.91,43.94 264.30,45.40 263.69,46.86 263.09,48.32 262.48,49.77 261.87,51.22 261.27,52.67 260.66,54.11 260.06,55.55 259.46,56.98 258.86,58.42 258.26,59.85 257.66,61.27 257.06,62.69 256.46,64.11 255.87,65.53 255.27,66.94 254.68,68.35 254.09,69.76 253.50,71.16 252.91,72.56 252.33,73.96 251.74,75.37 251.15,76.78 250.55,78.19 249.96,79.60 249.36,81.03 248.76,82.46 248.16,83.89 247.55,85.33 246.94,86.78 246.33,88.23 245.72,89.69 245.11,91.14 244.49,92.60" fill="none" stroke="black" stroke-width="35" stroke-linecap="round" stroke-linejoin="round" />
<polyline points="243.88,94.06 243.26,95.53 242.65,96.99 242.03,98.46 241.41,99.92 240.80,101.39 240.18,102.85 239.57,104.32 238.95,105.77 238.34,107.23 237.74,108.68 237.13,110.12 236.53,111.56 235.93,113.00 235.33,114.43 234.73,115.87 234.13,117.30 233.46,118.90 232.79,120.50 232.12,122.10 231.45,123.71 230.78,125.31 230.11,126.91 229.44,128.52 228.77,130.12 228.10,131.72 227.43,133.32 226.76,134.92 226.09,136.52 225.43,138.12 224.76,139.72 224.09,141.32 223.42,142.91 222.75,144.51 222.16,145.93 221.56,147.35 220.97,148.77 220.38,150.19 219.78,151.60 219.19,153.01 218.59,154.43 217.99,155.86 217.39,157.29 216.79,158.72 216.18,160.16 215.58,161.60 214.97,163.05 214.35,164.50 213.74,165.95 213.12,167.41 212.51,168.87 211.89,170.34 211.26,171.81 210.64,173.29 210.01,174.77 209.39,176.26 208.76,177.74 208.14,179.21 207.51,180.69 206.89,182.16 206.27,183.62 205.65,185.08 205.04,186.54 204.42,188.00 203.81,189.45 203.19,190.89 202.58,192.34 201.97,193.77 201.37,195.21 200.76,196.64 200.16,198.07 199.55,199.49 198.95,200.91 198.35,202.33 197.75,203.74 197.15,205.16 196.55,206.58 195.95,208.00 195.34,209.43 194.73,210.86 194.12,212.30 193.51,213.74 192.90,215.18 192.29,216.63 191.67,218.08 191.05,219.53 190.43,220.98 189.81,222.44 189.19,223.91 188.57,225.37 187.94,226.84 187.31,228.32 186.69,229.79 186.06,231.25 185.44,232.71 184.82,234.17 184.20,235.62 183.58,237.07 182.97,238.52 182.35,239.96 181.74,241.39 181.13,242.83 180.52,244.26 179.91,245.68 179.30,247.11 178.69,248.52 178.09,249.94 177.48,251.35 176.88,252.76 176.27,254.18 175.67,255.60 175.06,257.02 174.45,258.44 173.83,259.87 173.22,261.30 172.61,262.73 171.99,264.17 171.37,265.61 170.76,267.05 170.14,268.50 169.52,269.94 168.89,271.40 168.27,272.85 167.65,274.30 167.02,275.76 166.40,277.22 165.78,278.67 165.16,280.11 164.54,281.56 163.92,283.00 163.31,284.43 162.69,285.87 162.08,287.30 161.47,288.72 160.86,290.15 160.25,291.57 159.64,292.98 159.04,294.40 158.43,295.81 157.83,297.22 157.22,298.64 156.61,300.06 156.00,301.48 155.39,302.91 154.78,304.34 154.17,305.77 153.56,307.20 152.94,308.64 152.33,310.07 151.71,311.51 151.10,312.96 150.48,314.40 149.87,315.85 149.25,317.30 148.63,318.75 148.02,320.20 147.40,321.64 146.79,323.09 146.18,324.52 145.58,325.96 144.97,327.39 144.37,328.82 143.77,330.26 143.18,331.69 142.58,333.13 141.99,334.56 141.40,336.00 140.82,337.43 140.23,338.87 139.66,340.30 139.08,341.74 138.51,343.17 137.93,344.61 137.37,346.04 136.80,347.48 136.23,348.92 135.66,350.37 135.09,351.82 134.53,353.27 133.96,354.71 133.40,356.15 132.83,357.59 132.27,359.03 131.71,360.47 131.14,361.91 130.58,363.34 130.01,364.77 129.44,366.21 128.87,367.65 128.30,369.09 127.72,370.54 127.14,371.98 126.56,373.42 125.99,374.86 125.41,376.29 124.83,377.72 124.25,379.14 123.67,380.57 123.08,382.00 122.50,383.43 121.91,384.86 121.32,386.29 120.72,387.73 120.13,389.16 119.54,390.58 118.95,392.01 118.35,393.43 117.76,394.85 117.16,396.27 116.57,397.69 115.97,399.11 115.37,400.53 114.77,401.96 114.17,403.38 113.56,404.80 112.96,406.21 112.36,407.63 111.75,409.04 111.14,410.46 110.53,411.87 109.92,413.29 109.30,414.71 108.68,416.13 108.05,417.55 107.42,418.96 106.79,420.37 106.16,421.77 105.52,423.18 104.87,424.58 104.21,425.97 103.54,427.36 102.86,428.74 102.17,430.12 101.47,431.49 100.75,432.85 100.02,434.20 99.26,435.53 98.49,436.85 97.70,438.15 96.89,439.44 96.05,440.71 95.18,441.97 94.29,443.20 93.37,444.41 92.42,445.60 91.44,446.76 90.43,447.89 89.39,449.00 88.32,450.08 87.23,451.13 86.10,452.14 84.95,453.12 83.76,454.06 82.55,454.97 81.31,455.83 80.05,456.66 78.76,457.45 77.44,458.19 76.10,458.89 74.74,459.54 73.36,460.14 71.96,460.70 70.55,461.20 69.12,461.66 67.67,462.06 66.21,462.41 64.74,462.71 63.26,462.95 61.77,463.14 60.28,463.26 58.78,463.34 57.28,463.35 55.79,463.30 54.29,463.20 52.81,463.03 51.33,462.81 49.87,462.52 48.42,462.18 46.99,461.78 45.57,461.32 44.16,460.80 42.78,460.23 41.43,459.60 40.10,458.91 38.80,458.17 37.52,457.38 36.28,456.53 35.07,455.64 33.90,454.71 32.76,453.73 31.66,452.70 30.60,451.63 29.58,450.52 28.60,449.38 27.66,448.19 26.77,446.97 25.93,445.72 25.12,444.45 24.37,443.14 23.66,441.81 22.99,440.45 22.37,439.07 21.80,437.68 21.27,436.26 20.78,434.83 20.34,433.37 19.94,431.91 19.58,430.43 19.26,428.94 18.98,427.45 18.74,425.94 18.54,424.44 18.38,422.93 18.25,421.41 18.16,419.89 18.10,418.36 18.08,416.84 18.09,415.31 18.13,413.79 18.21,412.26 18.31,410.74 18.45,409.22 18.61,407.70 18.80,406.18 19.02,404.67 19.27,403.15 19.55,401.65 19.84,400.15 20.17,398.65 20.52,397.16 20.89,395.67 21.29,394.19 21.71,392.72 22.15,391.25 22.62,389.79 23.11,388.33 23.61,386.88 24.14,385.44 24.68,384.00 25.24,382.57 25.82,381.14 26.41,379.71 27.01,378.30 27.62,376.88 28.24,375.47 28.87,374.07 29.51,372.66 30.15,371.26 30.79,369.86 31.44,368.46 32.10,367.06 32.75,365.66 33.41,364.25 34.07,362.84 34.73,361.44 35.39,360.03 36.04,358.63 36.69,357.23 37.33,355.82 37.98,354.42 38.62,353.01 39.26,351.60 39.89,350.19 40.52,348.78 41.14,347.36 41.76,345.94 42.37,344.52 42.98,343.10 43.57,341.68 44.17,340.25 44.75,338.83 45.33,337.40 45.91,335.96 46.48,334.51 47.04,333.06 47.60,331.60 48.15,330.14 48.70,328.67 49.25,327.20 49.79,325.72 50.34,324.24 50.88,322.76 51.42,321.28 51.96,319.81 52.50,318.34 53.03,316.87 53.57,315.40 54.10,313.94 54.64,312.48 55.17,311.03 55.70,309.58 56.24,308.13 56.77,306.69 57.30,305.25 57.82,303.81 58.34,302.38 58.86,300.94 59.37,299.52 59.87,298.08 60.37,296.65 60.87,295.21 61.35,293.77 61.83,292.32 62.30,290.87 62.77,289.41 63.22,287.96 63.67,286.49 64.11,285.03 64.54,283.56 64.97,282.09 65.38,280.61 65.79,279.13 66.18,277.65 66.57,276.16 66.94,274.67 67.31,273.18 67.67,271.68 68.01,270.18 68.34,268.68 68.66,267.17 68.97,265.66 69.26,264.15 69.55,262.63 69.82,261.11 70.07,259.58 70.32,258.06 70.55,256.53 70.77,254.99 70.97,253.46 71.17,251.92 71.35,250.38 71.52,248.84 71.67,247.29 71.82,245.74 71.96,244.20 72.08,242.65 72.20,241.10 72.31,239.55 72.40,238.00 72.50,236.45 72.58,234.91 72.66,233.37 72.73,231.83 72.79,230.28 72.85,228.74 72.91,227.19 72.97,225.64 73.02,224.09 73.08,222.54 73.14,220.99 73.20,219.44 73.27,217.90 73.35,216.35 73.44,214.81 73.54,213.27 73.66,211.73 73.79,210.19 73.95,208.65 74.12,207.10 74.32,205.56 74.54,204.02 74.79,202.50 75.07,200.98 75.38,199.47 75.72,197.97 76.09,196.48 76.49,194.99 76.92,193.51 77.39,192.04 77.89,190.58 78.42,189.13 78.98,187.68 79.56,186.25 80.18,184.84 80.83,183.45 81.50,182.07 82.20,180.70 82.93,179.35 83.69,178.01 84.48,176.69 85.30,175.38 86.14,174.08 87.01,172.80 87.90,171.54 88.82,170.30 89.76,169.08 90.72,167.88 91.71,166.71 92.73,165.54 93.77,164.40 94.83,163.28 95.91,162.18 97.02,161.10 98.15,160.03 99.29,158.99 100.46,157.98 101.64,156.98 102.85,156.00 104.07,155.04 105.31,154.11 106.57,153.19 107.84,152.29 109.13,151.42 110.43,150.56 111.75,149.72 113.08,148.91 114.42,148.11 115.78,147.33 117.14,146.58 118.51,145.84 119.89,145.12 121.27,144.42 122.67,143.75 124.07,143.09 125.48,142.44 126.89,141.82 128.32,141.21 129.74,140.63 131.17,140.05 132.61,139.50 134.05,138.96 135.49,138.43 136.93,137.92 138.38,137.42 139.83,136.93 141.29,136.46 142.76,135.99 144.23,135.53 145.70,135.08 147.18,134.64 148.65,134.20 150.12,133.78 151.60,133.35 153.08,132.93 154.56,132.52 156.03,132.10 157.51,131.69 158.99,131.27 160.47,130.86 161.95,130.44 163.43,130.01 164.91,129.58 166.38,129.15 167.85,128.71 169.31,128.26 170.77,127.80 172.23,127.33 173.68,126.84 175.13,126.33 176.56,125.81 177.98,125.26 179.40,124.69 180.80,124.10 182.18,123.47 183.54,122.82 184.89,122.13 186.22,121.40 187.52,120.64 188.79,119.84 190.04,118.99 191.25,118.11 192.42,117.18 193.56,116.20 194.66,115.19 195.72,114.13 196.74,113.04 197.71,111.90 198.64,110.72 199.51,109.51 200.34,108.26 201.11,106.98 201.83,105.66 202.49,104.32 203.10,102.95 203.65,101.56 204.13,100.14 204.56,98.71 204.92,97.26 205.22,95.79 205.46,94.31 205.62,92.83 205.72,91.34 205.74,89.84 205.70,88.35 205.58,86.86 205.38,85.38 205.12,83.91 204.78,82.45 204.36,81.02 203.88,79.61 203.33,78.23 202.71,76.87 202.02,75.55 201.27,74.26 200.46,73.01 199.58,71.81 198.65,70.64 197.67,69.52 196.63,68.45 195.55,67.42 194.42,66.44 193.25,65.52 192.04,64.64 190.80,63.82 189.52,63.04 188.22,62.31 186.88,61.63 185.52,61.00 184.14,60.41 182.73,59.88 181.31,59.38 179.87,58.94 178.41,58.53 176.94,58.18 175.46,57.86 173.96,57.58 172.46,57.35 170.95,57.15 169.44,56.98 167.92,56.86 166.39,56.77 164.87,56.72 163.34,56.70 161.81,56.72 160.28,56.77 158.75,56.85 157.22,56.97 155.69,57.12 154.17,57.30 152.64,57.51 151.12,57.74 149.60,58.01 148.09,58.30 146.58,58.61 145.07,58.95 143.57,59.30 142.07,59.68 140.57,60.07 139.07,60.48 137.58,60.91 136.10,61.35 134.62,61.79 133.14,62.25 131.66,62.72 130.18,63.19 128.71,63.67 127.23,64.16 125.76,64.65 124.28,65.14 122.80,65.64 121.32,66.14 119.83,66.65 118.35,67.15 116.88,67.66 115.41,68.16 113.93,68.67 112.46,69.17 110.98,69.68 109.51,70.18 108.03,70.69 106.56,71.20 105.08,71.70 103.60,72.21 102.13,72.72 100.65,73.22 99.17,73.73 97.70,74.23 96.22,74.74 94.74,75.25 93.26,75.75 91.77,76.26 90.29,76.77 88.81,77.27 87.33,77.78 85.85,78.28 84.37,78.78 82.89,79.28 81.42,79.79 79.94,80.28 78.47,80.78 76.99,81.28 75.52,81.77 74.06,82.27 72.59,82.76 71.12,83.25 69.66,83.74 68.19,84.23 66.73,84.72 65.25,85.20 63.78,85.69 62.29,86.18 60.80,86.66 59.31,87.15 57.81,87.63 56.30,88.10 54.79,88.58 53.28,89.04 51.77,89.50 50.25,89.95 48.74,90.39 47.23,90.82 45.72,91.23 44.21,91.64 42.70,92.03 41.19,92.42 39.68,92.78 38.17,93.14 36.66,93.47 35.15,93.80 33.63,94.11 32.12,94.41 30.61,94.69 29.11,94.96 27.59,95.22 26.07,95.46 24.54,95.70 23.01,95.93 21.47,96.14 19.93,96.35 18.38,96.54 16.83,96.73 15.27,96.91 13.71,97.07 12.14,97.23 10.58,97.38 9.00,97.52 7.43,97.66 5.85,97.78 4.26,97.89 2.68,98.00 1.09,98.10 -0.51,98.19 -2.10,98.27 -3.70,98.34 -5.30,98.41 -6.90,98.47 -8.50,98.51 -10.08,98.55 -11.67,98.58 -13.25,98.61 -14.83,98.62 -16.40,98.63 -17.96,98.62 -19.53,98.61 -21.08,98.59 -22.64,98.56 -24.19,98.52 -25.73,98.46 -27.27,98.40 -28.80,98.33 -30.33,98.25 -31.86,98.16 -33.38,98.07 -34.91,97.96 -36.44,97.84 -37.98,97.71 -39.51,97.58 -41.05,97.43 -42.60,97.28 -44.14,97.11 -45.69,96.94 -47.24,96.76 -48.79,96.57 -50.34,96.36 -51.89,96.15 -53.45,95.93 -55.01,95.71 -56.57,95.47 -58.13,95.22 -59.70,94.97 -61.27,94.70 -62.83,94.43 -64.40,94.15 -65.98,93.86 -67.55,93.57 -69.13,93.26 -70.70,92.95 -72.28,92.63 -73.86,92.31 -75.45,91.98 -77.03,91.64 -78.62,91.29 -80.20,90.95 -81.77,90.60 -83.34,90.24 -84.90,89.89 -86.46,89.53 -88.00,89.17 -89.55,88.81 -91.08,88.45 -92.61,88.08 -94.13,87.72 -95.64,87.35 -97.15,86.98 -98.65,86.62 -100.15,86.25 -101.64,85.89 -103.12,85.53 -104.60,85.17 -106.08,84.81 -107.56,84.45 -109.05,84.10 -110.53,83.75 -112.02,83.40 -113.52,83.05 -115.01,82.71 -116.51,82.38 -118.02,82.05 -119.52,81.72 -121.03,81.41 -122.54,81.10 -124.06,80.79 -125.57,80.50 -127.09,80.21 -128.62,79.93 -130.14,79.66 -131.67,79.40 -133.20,79.15 -134.73,78.91 -136.26,78.67 -137.79,78.45 -139.33,78.23 -140.86,78.03 -142.40,77.83 -143.94,77.64 -145.47,77.46 -147.01,77.30 -148.54,77.14 -150.07,76.99 -151.61,76.85 -153.14,76.73 -154.66,76.61 -156.20,76.51 -157.73,76.41 -159.28,76.33 -160.83,76.26 -162.38,76.20 -163.94,76.16 -165.50,76.12 -167.07,76.10 -168.64,76.09 -170.21,76.10 -171.79,76.12 -173.37,76.15 -174.95,76.19 -176.54,76.25 -178.13,76.32 -179.72,76.40 -181.32,76.50 -182.91,76.61 -184.49,76.74 -186.07,76.88 -187.64,77.03 -189.21,77.20 -190.77,77.39 -192.32,77.59 -193.87,77.80 -195.41,78.03 -196.95,78.27 -198.48,78.53 -200.01,78.81 -201.53,79.10 -203.04,79.40 -204.55,79.72 -206.06,80.05 -207.56,80.40 -209.05,80.77 -210.54,81.14 -212.03,81.53 -213.51,81.94 -214.98,82.35 -216.46,82.78 -217.93,83.22 -219.39,83.67 -220.85,84.13 -222.31,84.60 -223.76,85.08 -225.21,85.57 -226.66,86.07 -228.11,86.58 -229.55,87.10 -230.99,87.62 -232.43,88.16 -233.86,88.70 -235.29,89.25 -236.72,89.81 -238.15,90.38 -239.57,90.95 -240.99,91.54 -242.41,92.13 -243.83,92.73 -245.24,93.34 -246.65,93.96 -248.06,94.59 -249.46,95.22 -250.86,95.87 -252.26,96.52 -253.65,97.18 -255.04,97.84 -256.43,98.52 -257.82,99.20 -259.20,99.89 -260.58,100.59 -261.95,101.30 -263.32,102.01 -264.69,102.73 -266.06,103.46 -267.42,104.20 -268.79,104.94 -270.14,105.68 -271.50,106.43 -272.85,107.19 -274.20,107.96 -275.55,108.72 -276.89,109.50 -278.24,110.28 -279.58,111.06 -280.92,111.84 -282.26,112.63 -283.59,113.42 -284.93,114.21 -286.27,115.01 -287.61,115.80 -288.95,116.59 -290.29,117.37 -291.63,118.15 -292.97,118.93 -294.32,119.70 -295.68,120.47 -297.03,121.22 -298.39,121.97 -299.76,122.70 -301.13,123.43 -302.51,124.14 -303.90,124.84 -305.28,125.53 -306.68,126.21 -308.08,126.87 -309.49,127.51 -310.90,128.15 -312.32,128.77 -313.75,129.38 -315.18,129.98 -316.61,130.56 -318.05,131.13 -319.49,131.70 -320.94,132.25 -322.39,132.79 -323.85,133.32 -325.31,133.84 -326.77,134.35 -328.23,134.86 -329.70,135.35 -331.17,135.84 -332.65,136.32 -334.12,136.79 -335.60,137.25 -337.08,137.70 -338.57,138.15 -340.06,138.59 -341.54,139.02 -343.04,139.44 -344.53,139.85 -346.03,140.25 -347.53,140.65 -349.03,141.03 -350.53,141.41 -352.04,141.78 -353.54,142.13 -355.05,142.48 -356.57,142.81 -358.08,143.14 -359.60,143.46 -361.11,143.76 -362.63,144.06 -364.16,144.34 -365.68,144.61 -367.21,144.88 -368.73,145.13 -370.26,145.37 -371.79,145.60 -373.32,145.82 -374.86,146.03 -376.39,146.24 -377.93,146.43 -379.47,146.61 -381.00,146.78 -382.54,146.94 -384.08,147.09 -385.63,147.24 -387.17,147.38 -388.71,147.50 -390.26,147.62 -391.80,147.74 -393.35,147.84 -394.89,147.94 -396.44,148.03 -397.99,148.12 -399.53,148.19 -401.08,148.26 -402.62,148.33 -404.17,148.38 -405.71,148.43 -407.25,148.48 -408.79,148.52 -410.32,148.56 -411.86,148.59 -413.40,148.61 -414.95,148.64 -416.51,148.65 -418.06,148.67 -419.62,148.68 -421.18,148.69 -422.75,148.70 -424.32,148.70 -425.89,148.70 -427.46,148.70 -429.04,148.70 -430.62,148.69 -432.20,148.68 -433.78,148.67 -435.37,148.66 -436.95,148.64 -438.54,148.63 -440.11,148.60 -441.68,148.58 -443.25,148.55 -444.80,148.51 -446.36,148.47 -447.92,148.43 -449.48,148.38 -451.04,148.33 -452.60,148.27 -454.15,148.21 -455.71,148.14 -457.27,148.07 -458.83,148.00 -460.39,147.92 -461.95,147.83 -463.51,147.75 -465.06,147.66 -466.62,147.57 -468.17,147.48 -469.73,147.38 -471.30,147.28 -472.86,147.18 -474.42,147.08 -475.98,146.97 -477.54,146.86 -479.09,146.75 -480.64,146.64 -482.19,146.52 -483.73,146.40 -485.27,146.28 -486.81,146.16 -488.36,146.02 -489.91,145.89 -491.46,145.74 -493.01,145.60 -494.57,145.44 -496.12,145.27 -497.67,145.10 -499.22,144.92 -500.76,144.73 -502.30,144.53 -503.84,144.31 -505.37,144.09 -506.90,143.85 -508.43,143.60 -509.96,143.33 -511.49,143.05 -513.02,142.75 -514.54,142.44 -516.06,142.11 -517.57,141.77 -519.08,141.41 -520.58,141.03 -522.07,140.63 -523.57,140.22 -525.05,139.80 -526.53,139.35 -528.00,138.90 -529.47,138.42 -530.94,137.93 -532.39,137.42 -533.84,136.90 -535.28,136.35 -536.71,135.80 -538.12,135.22 -539.53,134.63 -540.93,134.02 -542.31,133.40 -543.68,132.75 -545.05,132.09 -546.41,131.41 -547.75,130.71 -549.09,129.99 -550.42,129.25 -551.74,128.50 -553.05,127.72 -554.35,126.92 -555.65,126.10 -556.93,125.26 -558.21,124.39 -559.47,123.51 -560.73,122.60 -561.97,121.67 -563.21,120.73 -564.43,119.75 -565.64,118.76 -566.83,117.75 -568.01,116.72 -569.17,115.67 -570.31,114.61 -571.43,113.53 -572.53,112.43 -573.61,111.32 -574.68,110.20 -575.72,109.06 -576.74,107.90 -577.74,106.73 -578.73,105.55 -579.69,104.36 -580.63,103.16 -581.55,101.94 -582.45,100.71 -583.32,99.47 -584.18,98.22 -585.02,96.96 -585.84,95.68 -586.65,94.39 -587.44,93.08 -588.20,91.76 -588.95,90.42 -589.68,89.07 -590.39,87.71 -591.08,86.34 -591.75,84.95 -592.40,83.54 -593.03,82.13 -593.64,80.70 -594.22,79.26 -594.78,77.81 -595.31,76.34 -595.83,74.86 -596.32,73.37 -596.78,71.87 -597.23,70.37 -597.64,68.86 -598.04,67.35 -598.41,65.83 -598.75,64.31 -599.08,62.79 -599.38,61.26 -599.66,59.74 -599.92,58.21 -600.16,56.68 -600.37,55.15 -600.57,53.63 -600.75,52.10 -600.90,50.57 -601.04,49.05 -601.16,47.52 -601.26,46.00 -601.34,44.47 -601.40,42.94 -601.44,41.41 -601.47,39.87 -601.47,38.33 -601.45,36.79 -601.41,35.25 -601.35,33.71 -601.26,32.16 -601.16,30.61 -601.03,29.07 -600.88,27.52 -600.71,25.97 -600.51,24.43 -600.30,22.88 -600.05,21.34 -599.79,19.80 -599.50,18.26 -599.20,16.72 -598.87,15.18 -598.52,13.65 -598.14,12.12 -597.75,10.59 -597.34,9.07 -596.91,7.55 -596.45,6.03 -595.98,4.52 -595.49,3.01 -594.98,1.51 -594.45,0.01 -593.90,-1.49 -593.34,-2.98 -592.76,-4.46 -592.16,-5.94 -591.54,-7.42 -590.91,-8.89 -590.26,-10.34 -589.60,-11.79 -588.92,-13.22 -588.24,-14.65 -587.54,-16.06 -586.83,-17.46 -586.11,-18.85 -585.38,-20.22 -584.64,-21.59 -583.90,-22.95 -583.14,-24.30 -582.38,-25.63 -581.61,-26.96 -580.83,-28.28 -580.05,-29.58 -579.26,-30.88 -578.46,-32.17 -577.66,-33.46 -576.85,-34.74 -576.03,-36.02 -575.20,-37.30 -574.37,-38.58 -573.53,-39.85 -572.68,-41.12 -571.83,-42.39 -570.97,-43.66 -570.10,-44.93 -569.23,-46.19 -568.35,-47.45 -567.46,-48.71 -566.57,-49.97 -565.67,-51.23 -564.77,-52.48 -563.86,-53.74 -562.95,-54.99 -562.03,-56.24 -561.12,-57.49 -560.19,-58.75 -559.27,-60.00 -558.34,-61.25 -557.41,-62.51 -556.47,-63.76 -555.54,-65.01 -554.60,-66.27 -553.66,-67.52 -552.73,-68.78 -551.79,-70.04 -550.86,-71.30 -549.92,-72.56 -548.99,-73.83 -548.06,-75.09 -547.14,-76.36 -546.22,-77.63 -545.30,-78.91 -544.40,-80.19 -543.49,-81.47 -542.60,-82.75 -541.71,-84.04 -540.83,-85.33 -539.96,-86.63 -539.10,-87.93 -538.25,-89.24 -537.41,-90.55 -536.58,-91.86 -535.76,-93.18 -534.95,-94.50 -534.15,-95.83 -533.36,-97.16 -532.59,-98.50 -531.82,-99.84 -531.06,-101.18 -530.32,-102.53 -529.59,-103.88 -528.86,-105.23 -528.15,-106.59 -527.44,-107.95 -526.75,-109.32 -526.07,-110.68 -525.39,-112.05 -524.72,-113.43 -524.05,-114.82 -523.39,-116.22 -522.74,-117.62 -522.10,-119.02 -521.46,-120.43 -520.83,-121.84 -520.20,-123.25 -519.58,-124.67 -518.96,-126.09 -518.35,-127.52 -517.73,-128.95 -517.12,-130.38 -516.51,-131.82 -515.90,-133.26 -515.29,-134.70 -514.68,-136.14 -514.07,-137.57 -513.47,-139.01 -512.86,-140.44 -512.25,-141.87 -511.63,-143.30 -511.02,-144.72 -510.40,-146.14 -509.77,-147.56 -509.14,-148.99 -508.50,-150.40 -507.85,-151.81 -507.19,-153.22 -506.52,-154.61 -505.84,-156.00 -505.15,-157.39 -504.45,-158.76 -503.73,-160.13 -502.99,-161.48 -502.24,-162.81 -501.48,-164.13 -500.69,-165.44 -499.89,-166.74 -499.06,-168.03 -498.21,-169.30 -497.34,-170.56 -496.45,-171.80 -495.53,-173.02 -494.59,-174.23 -493.62,-175.43 -492.64,-176.61 -491.63,-177.77 -490.60,-178.92 -489.55,-180.05 -488.48,-181.17 -487.38,-182.27 -486.27,-183.36 -485.13,-184.43 -483.98,-185.48 -482.80,-186.52 -481.61,-187.53 -480.40,-188.52 -479.17,-189.49 -477.93,-190.44 -476.67,-191.37 -475.40,-192.27 -474.11,-193.14 -472.81,-194.00 -471.49,-194.82 -470.15,-195.62 -468.80,-196.40 -467.43,-197.15 -466.05,-197.87 -464.66,-198.57 -463.25,-199.24 -461.83,-199.89 -460.41,-200.50 -458.97,-201.09 -457.53,-201.66 -456.07,-202.19 -454.61,-202.71 -453.14,-203.20 -451.66,-203.66 -450.17,-204.10 -448.68,-204.52 -447.19,-204.91 -445.69,-205.28 -444.19,-205.63 -442.68,-205.96 -441.18,-206.26 -439.67,-206.55 -438.16,-206.81 -436.64,-207.06 -435.11,-207.29 -433.58,-207.50 -432.05,-207.69 -430.52,-207.86 -428.98,-208.02 -427.45,-208.16 -425.91,-208.28 -424.38,-208.38 -422.84,-208.47 -421.30,-208.55 -419.76,-208.60 -418.21,-208.64 -416.68,-208.67 -415.14,-208.68 -413.60,-208.67 -412.07,-208.65 -410.54,-208.61 -409.00,-208.56 -407.47,-208.49 -405.94,-208.40 -404.40,-208.30 -402.86,-208.19 -401.33,-208.06 -399.79,-207.91 -398.25,-207.75 -396.72,-207.57 -395.18,-207.38 -393.65,-207.18 -392.11,-206.96 -390.58,-206.73 -389.05,-206.48 -387.51,-206.22 -385.98,-205.95 -384.46,-205.66 -382.93,-205.36 -381.42,-205.04 -379.91,-204.71 -378.41,-204.37 -376.91,-204.01 -375.42,-203.64 -373.94,-203.26 -372.46,-202.86 -370.98,-202.44 -369.52,-202.01 -368.06,-201.56 -366.60,-201.10 -365.15,-200.62 -363.70,-200.13 -362.25,-199.62 -360.81,-199.09 -359.37,-198.55 -357.93,-197.99 -356.50,-197.42 -355.08,-196.84 -353.66,-196.24 -352.24,-195.63 -350.83,-195.01 -349.42,-194.37 -348.02,-193.73 -346.62,-193.07 -345.23,-192.40 -343.84,-191.72 -342.45,-191.04 -341.07,-190.34 -339.70,-189.64 -338.33,-188.92 -336.96,-188.20 -335.60,-187.47 -334.25,-186.74 -332.90,-186.00 -331.56,-185.24 -330.21,-184.48 -328.87,-183.71 -327.54,-182.93 -326.21,-182.15 -324.88,-181.36 -323.56,-180.56 -322.25,-179.75 -320.94,-178.93 -319.64,-178.10 -318.34,-177.27 -317.04,-176.42 -315.76,-175.56 -314.48,-174.70 -313.21,-173.82 -311.94,-172.93 -310.68,-172.03 -309.44,-171.11 -308.20,-170.19 -306.98,-169.25 -305.77,-168.29 -304.57,-167.31 -303.39,-166.32 -302.23,-165.31 -301.09,-164.28 -299.97,-163.23 -298.87,-162.16 -297.80,-161.06 -296.75,-159.94 -295.74,-158.80 -294.76,-157.63 -293.80,-156.44 -292.89,-155.23 -292.01,-153.99 -291.16,-152.72 -290.36,-151.43 -289.60,-150.11 -288.87,-148.77 -288.20,-147.41 -287.56,-146.03 -286.97,-144.63 -286.42,-143.22 -285.91,-141.79 -285.46,-140.34 -285.04,-138.88 -284.67,-137.41 -284.35,-135.92 -284.08,-134.43 -283.86,-132.93 -283.68,-131.43 -283.55,-129.92 -283.47,-128.41 -283.44,-126.90 -283.45,-125.39 -283.52,-123.88 -283.64,-122.38 -283.80,-120.88 -284.02,-119.39 -284.28,-117.90 -284.60,-116.43 -284.97,-114.96 -285.38,-113.51 -285.84,-112.07 -286.35,-110.65 -286.91,-109.24 -287.51,-107.85 -288.15,-106.48 -288.83,-105.13 -289.56,-103.79 -290.32,-102.48 -291.13,-101.19 -291.97,-99.93 -292.84,-98.69 -293.75,-97.47 -294.69,-96.27 -295.66,-95.10 -296.66,-93.95 -297.69,-92.83 -298.74,-91.74 -299.82,-90.67 -300.93,-89.63 -302.07,-88.61 -303.23,-87.62 -304.41,-86.67 -305.62,-85.74 -306.85,-84.84 -308.11,-83.98 -309.38,-83.14 -310.68,-82.33 -312.00,-81.55 -313.33,-80.81 -314.68,-80.09 -316.05,-79.41 -317.44,-78.75 -318.84,-78.13 -320.25,-77.53 -321.67,-76.95 -323.11,-76.41 -324.56,-75.88 -326.01,-75.38 -327.48,-74.91 -328.95,-74.45 -330.42,-74.01 -331.91,-73.58 -333.39,-73.18 -334.88,-72.79 -336.37,-72.42 -337.86,-72.06 -339.36,-71.71 -340.87,-71.38 -342.37,-71.06 -343.88,-70.75 -345.39,-70.45 -346.90,-70.16 -348.41,-69.89 -349.92,-69.62 -351.45,-69.37 -352.97,-69.12 -354.50,-68.88 -356.02,-68.65 -357.54,-68.43 -359.07,-68.22 -360.59,-68.01 -362.12,-67.81 -363.64,-67.61 -365.16,-67.42 -366.69,-67.23 -368.22,-67.04 -369.75,-66.85 -371.28,-66.67 -372.81,-66.48 -374.34,-66.30 -375.88,-66.11 -377.41,-65.92 -378.94,-65.73 -380.47,-65.54 -382.00,-65.35 -383.53,-65.15 -385.06,-64.96 -386.60,-64.76 -388.12,-64.55 -389.66,-64.35 -391.19,-64.13 -392.72,-63.92 -394.26,-63.70 -395.79,-63.47 -397.31,-63.24 -398.83,-63.01 -400.35,-62.76 -401.87,-62.52 -403.39,-62.26 -404.91,-62.00 -406.42,-61.72 -407.94,-61.44 -409.46,-61.15 -410.97,-60.84 -412.49,-60.53 -414.00,-60.20 -415.51,-59.87 -417.02,-59.52 -418.52,-59.15 -420.02,-58.78 -421.51,-58.39 -423.00,-57.98 -424.49,-57.56 -425.98,-57.13 -427.45,-56.68 -428.92,-56.21 -430.38,-55.72 -431.84,-55.22 -433.28,-54.69 -434.72,-54.14 -436.15,-53.57 -437.56,-52.97 -438.97,-52.35 -440.36,-51.70 -441.74,-51.02 -443.09,-50.32 -444.43,-49.58 -445.75,-48.80 -447.05,-47.99 -448.32,-47.14 -449.56,-46.26 -450.78,-45.35 -451.96,-44.39 -453.11,-43.40 -454.23,-42.38 -455.31,-41.31 -456.36,-40.22 -457.37,-39.09 -458.34,-37.92 -459.27,-36.73 -460.17,-35.51 -461.02,-34.25 -461.84,-32.97 -462.61,-31.66 -463.35,-30.34 -464.04,-28.99 -464.70,-27.62 -465.31,-26.23 -465.88,-24.82 -466.40,-23.40 -466.89,-21.97 -467.33,-20.52 -467.73,-19.06 -468.08,-17.59 -468.39,-16.11 -468.65,-14.62 -468.86,-13.12 -469.03,-11.61 -469.14,-10.10 -469.21,-8.59 -469.22,-7.07 -469.19,-5.56 -469.10,-4.04 -468.97,-2.53 -468.78,-1.03 -468.54,0.47 -468.26,1.95 -467.92,3.43 -467.53,4.90 -467.09,6.35 -466.60,7.78 -466.06,9.20 -465.47,10.60 -464.84,11.98 -464.15,13.33 -463.43,14.66 -462.66,15.97 -461.85,17.25 -461.00,18.50 -460.11,19.73 -459.18,20.93 -458.21,22.11 -457.21,23.26 -456.18,24.39 -455.12,25.49 -454.03,26.55 -452.91,27.59 -451.77,28.61 -450.60,29.59 -449.41,30.55 -448.20,31.49 -446.97,32.39 -445.72,33.27 -444.45,34.12 -443.16,34.95 -441.85,35.75 -440.53,36.53 -439.19,37.27 -437.84,38.00 -436.48,38.70 -435.11,39.37 -433.72,40.02 -432.32,40.64 -430.91,41.25 -429.48,41.82 -428.04,42.38 -426.60,42.91 -425.15,43.41 -423.68,43.90 -422.21,44.36 -420.74,44.80 -419.25,45.22 -417.76,45.62 -416.27,46.00 -414.76,46.35 -413.25,46.69 -411.73,47.01 -410.21,47.32 -408.69,47.60 -407.17,47.87 -405.65,48.12 -404.12,48.36 -402.60,48.58 -401.07,48.78 -399.53,48.98 -397.99,49.16 -396.45,49.33 -394.90,49.49 -393.35,49.63 -391.80,49.77 -390.25,49.89 -388.70,50.00 -387.16,50.11 -385.62,50.20 -384.07,50.29 -382.53,50.36 -380.98,50.43 -379.44,50.49 -377.89,50.54 -376.35,50.59 -374.81,50.63 -373.27,50.66 -371.73,50.68 -370.19,50.70 -368.65,50.71 -367.12,50.72 -365.58,50.72 -364.04,50.72 -362.50,50.72 -360.95,50.71 -359.40,50.70 -357.84,50.69 -356.28,50.67 -354.71,50.65 -353.15,50.63 -351.59,50.61 -350.02,50.59 -348.46,50.57 -346.90,50.54 -345.34,50.52 -343.79,50.49 -342.23,50.47 -340.68,50.44 -339.13,50.41 -337.58,50.38 -336.04,50.35 -334.49,50.32 -332.95,50.29 -331.41,50.26 -329.88,50.23 -328.34,50.19 -326.81,50.16 -325.26,50.12 -323.72,50.08 -322.17,50.04 -320.61,49.99 -319.05,49.95 -317.49,49.90 -315.92,49.85 -314.35,49.80 -312.78,49.74 -311.20,49.68 -309.62,49.62 -308.03,49.56 -306.44,49.50 -304.85,49.43 -303.26,49.36 -301.67,49.28 -300.09,49.21 -298.51,49.13 -296.94,49.05 -295.37,48.97 -293.80,48.88 -292.24,48.79 -290.68,48.70 -289.13,48.61 -287.58,48.52 -286.03,48.42 -284.49,48.32 -282.95,48.21 -281.42,48.11 -279.90,48.00 -278.37,47.89 -276.85,47.77 -275.32,47.65 -273.79,47.53 -272.26,47.41 -270.72,47.28 -269.18,47.15 -267.64,47.01 -266.10,46.87 -264.56,46.73 -263.01,46.58 -261.46,46.44 -259.91,46.28 -258.35,46.13 -256.80,45.97 -255.24,45.80 -253.68,45.63 -252.11,45.46 -250.55,45.28 -248.98,45.11 -247.41,44.92 -245.84,44.73 -244.27,44.54 -242.70,44.35 -241.12,44.15 -239.55,43.95 -237.97,43.74 -236.39,43.53 -234.82,43.32 -233.24,43.11 -231.66,42.89 -230.08,42.66 -228.49,42.44 -226.91,42.21 -225.33,41.98 -223.74,41.74 -222.15,41.51 -220.56,41.27 -218.97,41.03 -217.38,40.78 -215.79,40.53 -214.19,40.28 -212.60,40.03 -211.01,39.77 -209.42,39.51 -207.84,39.26 -206.27,39.00 -204.70,38.74 -203.14,38.48 -201.58,38.21 -200.03,37.95 -198.49,37.69 -196.96,37.42 -195.43,37.15 -193.90,36.88 -192.39,36.61 -190.87,36.34 -189.37,36.07 -187.87,35.80 -186.38,35.52 -184.89,35.24 -183.40,34.96 -181.90,34.68 -180.41,34.39 -178.91,34.10 -177.41,33.80 -175.91,33.50 -174.41,33.20 -172.91,32.89 -171.41,32.58 -169.91,32.27 -168.41,31.95 -166.90,31.63 -165.40,31.30 -163.89,30.97 -162.39,30.63 -160.88,30.29 -159.37,29.95 -157.87,29.60 -156.36,29.25 -154.85,28.89 -153.34,28.53 -151.83,28.16 -150.32,27.79 -148.81,27.41 -147.30,27.03 -145.79,26.64 -144.28,26.25 -142.77,25.85 -141.26,25.45 -139.75,25.04 -138.24,24.63 -136.72,24.21 -135.21,23.78 -133.70,23.35 -132.19,22.92 -130.68,22.48 -129.17,22.03 -127.66,21.58 -126.15,21.12 -124.64,20.66 -123.13,20.19 -121.62,19.71 -120.11,19.23 -118.60,18.74 -117.10,18.25 -115.59,17.75 -114.09,17.24 -112.59,16.73 -111.08,16.21 -109.58,15.68 -108.08,15.15 -106.59,14.62 -105.09,14.07 -103.60,13.53 -102.10,12.97 -100.61,12.42 -99.12,11.85 -97.63,11.28 -96.15,10.71 -94.66,10.13 -93.18,9.54 -91.70,8.96 -90.22,8.36 -88.74,7.77 -87.26,7.17 -85.78,6.57 -84.30,5.97 -82.82,5.36 -81.34,4.76 -79.87,4.15 -78.39,3.54 -76.91,2.93 -75.43,2.32 -73.96,1.71 -72.48,1.10 -71.00,0.49 -69.52,-0.12 -68.04,-0.73 -66.56,-1.33 -65.08,-1.94 -63.60,-2.55 -62.12,-3.16 -60.64,-3.78 -59.16,-4.39 -57.69,-5.00 -56.21,-5.62 -54.74,-6.23 -53.26,-6.85 -51.80,-7.46 -50.33,-8.08 -48.88,-8.70 -47.42,-9.32 -45.97,-9.94 -44.53,-10.56 -43.09,-11.18 -41.65,-11.81 -40.21,-12.43 -38.77,-13.07 -37.34,-13.70 -35.90,-14.34 -34.47,-14.98 -33.05,-15.62 -31.63,-16.26 -30.21,-16.91 -28.79,-17.55 -27.37,-18.20 -25.95,-18.86 -24.52,-19.51 -23.10,-20.17 -21.67,-20.83 -20.24,-21.50 -18.82,-22.16 -17.40,-22.82 -15.98,-23.48 -14.56,-24.15 -13.15,-24.81 -11.73,-25.47 -10.32,-26.14 -8.91,-26.80 -7.50,-27.46 -6.09,-28.13 -4.68,-28.80 -3.27,-29.46 -1.86,-30.13 -0.46,-30.80 0.94,-31.46 2.34,-32.13 3.75,-32.80 5.15,-33.47 6.55,-34.14 7.95,-34.80 9.35,-35.47 10.75,-36.13 12.16,-36.79 13.56,-37.44 14.97,-38.09 16.39,-38.73 17.81,-39.36 19.24,-39.97 20.66,-40.57 22.10,-41.15 23.53,-41.70 24.98,-42.24 26.43,-42.75 27.90,-43.24 29.36,-43.69 30.84,-44.12 32.32,-44.50 33.81,-44.86 35.30,-45.17 36.80,-45.44 38.31,-45.68 39.82,-45.87 41.34,-46.02 42.85,-46.12 44.37,-46.18 45.88,-46.18 47.40,-46.14 48.91,-46.05 50.42,-45.90 51.91,-45.70 53.40,-45.45 54.87,-45.14 56.34,-44.78 57.79,-44.36 59.23,-43.89 60.64,-43.37 62.04,-42.80 63.42,-42.18 64.78,-41.51 66.11,-40.80 67.42,-40.04 68.71,-39.24 69.98,-38.40 71.23,-37.53 72.45,-36.62 73.65,-35.69 74.84,-34.73 76.01,-33.75 77.16,-32.76 78.30,-31.74 79.44,-30.72 80.56,-29.69 81.69,-28.66 82.81,-27.62 83.94,-26.60 85.08,-25.59 86.23,-24.59 87.39,-23.61 88.57,-22.65 89.77,-21.73 91.00,-20.84 92.25,-19.99 93.52,-19.18 94.82,-18.43 96.15,-17.73 97.50,-17.08 98.87,-16.50 100.26,-15.98 101.68,-15.53 103.11,-15.15 104.56,-14.84 106.02,-14.62 107.49,-14.47 108.96,-14.40 110.42,-14.42 111.89,-14.52 113.34,-14.70 114.78,-14.96 116.20,-15.30 117.60,-15.72 118.98,-16.21 120.34,-16.78 121.66,-17.42 122.95,-18.13 124.21,-18.91 125.43,-19.75 126.62,-20.65 127.76,-21.61 128.86,-22.62 129.91,-23.68 130.93,-24.78 131.89,-25.93 132.82,-27.11 133.70,-28.33 134.53,-29.58 135.32,-30.87 136.06,-32.18 136.76,-33.53 137.41,-34.89 138.02,-36.28 138.58,-37.69 139.10,-39.12 139.58,-40.57 140.01,-42.03 140.41,-43.50 140.76,-44.99 141.08,-46.48 141.36,-47.99 141.60,-49.50 141.81,-51.02 141.98,-52.54 142.12,-54.07 142.23,-55.60 142.31,-57.13 142.35,-58.66 142.37,-60.20 142.37,-61.74 142.33,-63.27 142.28,-64.81 142.20,-66.35 142.10,-67.88 141.98,-69.42 141.84,-70.96 141.68,-72.50 141.51,-74.03 141.33,-75.57 141.13,-77.09 140.92,-78.62 140.69,-80.15 140.46,-81.68 140.22,-83.20 139.97,-84.73 139.71,-86.25 139.45,-87.77 139.17,-89.30 138.89,-90.83 138.60,-92.36 138.31,-93.89 138.01,-95.42 137.70,-96.95 137.39,-98.48 137.07,-100.01 136.76,-101.53 136.43,-103.06 136.10,-104.58 135.77,-106.11 135.44,-107.63 135.10,-109.16 134.76,-110.68 134.42,-112.20 134.08,-113.72 133.73,-115.24 133.38,-116.75 133.03,-118.27 132.68,-119.79 132.32,-121.31 131.97,-122.82 131.61,-124.34 131.25,-125.86 130.89,-127.37 130.53,-128.89 130.17,-130.40 129.81,-131.92 129.45,-133.43 129.09,-134.94 128.73,-136.45 128.37,-137.96 128.01,-139.47 127.65,-140.97 127.29,-142.48 126.93,-143.98 126.57,-145.48 126.22,-146.99 125.87,-148.49 125.52,-149.99 125.17,-151.50 124.82,-153.01 124.47,-154.53 124.12,-156.06 123.78,-157.59 123.44,-159.13 123.10,-160.67 122.76,-162.21 122.42,-163.76 122.09,-165.32 121.76,-166.87 121.44,-168.42 121.12,-169.97 120.80,-171.51 120.49,-173.05 120.18,-174.59 119.88,-176.13 119.58,-177.66 119.29,-179.19 119.00,-180.72 118.71,-182.24 118.43,-183.76 118.15,-185.28 117.88,-186.79 117.61,-188.30 117.35,-189.80 117.09,-191.30 116.83,-192.81 116.58,-194.31 116.33,-195.82 116.09,-197.33 115.85,-198.85 115.62,-200.36 115.39,-201.87 115.17,-203.39 114.95,-204.91 114.73,-206.43 114.52,-207.96 114.32,-209.50 114.11,-211.04 113.91,-212.58 113.72,-214.12 113.52,-215.67 113.33,-217.22 113.14,-218.77 112.95,-220.32 112.76,-221.87 112.56,-223.41 112.37,-224.96 112.18,-226.51 111.99,-228.06 111.79,-229.61 111.59,-231.17 111.39,-232.72 111.19,-234.27 110.99,-235.82 110.78,-237.37 110.58,-238.91 110.37,-240.46 110.16,-242.00 109.96,-243.54 109.75,-245.08 109.55,-246.62 109.35,-248.16 109.15,-249.69 108.96,-251.24 108.77,-252.79 108.59,-254.33 108.42,-255.88 108.25,-257.43 108.09,-258.98 107.95,-260.52 107.81,-262.07 107.69,-263.61 107.59,-265.15 107.49,-266.69 107.41,-268.23 107.35,-269.77 107.30,-271.32 107.26,-272.87 107.24,-274.42 107.24,-275.98 107.26,-277.53 107.29,-279.09 107.35,-280.64 107.41,-282.19 107.50,-283.73 107.61,-285.27 107.73,-286.81 107.88,-288.34 108.04,-289.87 108.23,-291.40 108.44,-292.94 108.67,-294.47 108.93,-295.99 109.21,-297.52 109.52,-299.03 109.86,-300.53 110.22,-302.03 110.62,-303.51 111.04,-304.98 111.49,-306.44 111.97,-307.89 112.48,-309.32 113.03,-310.75 113.60,-312.15 114.21,-313.55 114.84,-314.93 115.51,-316.29 116.21,-317.63 116.93,-318.95 117.69,-320.26 118.47,-321.54 119.29,-322.81 120.13,-324.06 121.00,-325.29 121.90,-326.51 122.83,-327.70 123.79,-328.88 124.77,-330.04 125.78,-331.18 126.82,-332.30 127.88,-333.40 128.97,-334.47 130.08,-335.52 131.21,-336.55 132.38,-337.55 133.56,-338.53 134.78,-339.48 136.01,-340.41 137.27,-341.31 138.54,-342.17 139.84,-343.01 141.15,-343.81 142.47,-344.58 143.81,-345.32 145.17,-346.02 146.55,-346.70 147.95,-347.35 149.36,-347.96 150.79,-348.55 152.23,-349.10 153.68,-349.63 155.15,-350.12 156.63,-350.59 158.11,-351.02 159.59,-351.43 161.08,-351.81 162.58,-352.16 164.09,-352.49 165.60,-352.79 167.12,-353.07 168.65,-353.33 170.18,-353.56 171.72,-353.78 173.26,-353.97 174.80,-354.14 176.35,-354.30 177.90,-354.44 179.45,-354.56 180.99,-354.67 182.54,-354.76 184.09,-354.83 185.63,-354.90 187.18,-354.95 188.73,-354.99 190.28,-355.01 191.84,-355.03 193.39,-355.03 194.94,-355.03 196.49,-355.01 198.05,-354.99 199.60,-354.96 201.15,-354.91 202.70,-354.86 204.25,-354.80 205.81,-354.73 207.37,-354.66 208.94,-354.57 210.51,-354.48 212.08,-354.39 213.64,-354.29 215.21,-354.18 216.77,-354.06 218.33,-353.94 219.89,-353.81 221.44,-353.68 222.99,-353.54 224.54,-353.39 226.09,-353.23 227.63,-353.07 229.17,-352.90 230.71,-352.72 232.24,-352.54 233.77,-352.34 235.30,-352.14 236.83,-351.92 238.36,-351.70 239.89,-351.46 241.42,-351.22 242.96,-350.96 244.50,-350.69 246.03,-350.42 247.57,-350.13 249.11,-349.82 250.65,-349.51 252.19,-349.19 253.72,-348.85 255.26,-348.50 256.79,-348.14 258.33,-347.77 259.86,-347.38 261.39,-346.98 262.92,-346.56 264.44,-346.13 265.97,-345.69 267.49,-345.24 269.00,-344.77 270.52,-344.28 272.03,-343.78 273.54,-343.27 275.04,-342.74 276.54,-342.20 278.04,-341.64 279.53,-341.06 281.01,-340.47 282.49,-339.86 283.97,-339.24 285.43,-338.59 286.89,-337.93 288.34,-337.26 289.78,-336.56 291.21,-335.84 292.63,-335.11 294.04,-334.35 295.44,-333.58 296.83,-332.78 298.21,-331.97 299.57,-331.13 300.92,-330.27 302.26,-329.39 303.58,-328.49 304.89,-327.57 306.19,-326.63 307.47,-325.67 308.74,-324.69 309.99,-323.69 311.23,-322.67 312.45,-321.63 313.67,-320.57 314.86,-319.50 316.05,-318.41 317.22,-317.30 318.37,-316.17 319.52,-315.03 320.64,-313.88 321.75,-312.72 322.84,-311.55 323.91,-310.37 324.96,-309.18 325.99,-307.99 327.01,-306.79 328.00,-305.58 328.98,-304.36 329.94,-303.14 330.88,-301.91 331.80,-300.67 332.71,-299.43 333.59,-298.18 334.45,-296.92 335.30,-295.66 336.12,-294.40 336.93,-293.12 337.72,-291.83 338.50,-290.53 339.26,-289.21 340.00,-287.89 340.73,-286.56 341.44,-285.21 342.13,-283.85 342.81,-282.49 343.46,-281.11 344.11,-279.73 344.73,-278.33 345.34,-276.93 345.94,-275.52 346.52,-274.09 347.08,-272.66 347.63,-271.23 348.16,-269.78 348.67,-268.33 349.18,-266.87 349.66,-265.40 350.14,-263.93 350.60,-262.45 351.04,-260.97 351.47,-259.48 351.89,-257.98 352.29,-256.48 352.68,-254.97 353.05,-253.45 353.41,-251.93 353.76,-250.41 354.09,-248.88 354.41,-247.35 354.71,-245.81 354.99,-244.27 355.27,-242.72 355.52,-241.17 355.77,-239.61 356.00,-238.05 356.21,-236.49 356.41,-234.92 356.60,-233.35 356.77,-231.77 356.93,-230.20 357.07,-228.62 357.21,-227.03 357.32,-225.45 357.43,-223.86 357.52,-222.27 357.60,-220.67 357.66,-219.08 357.71,-217.48 357.75,-215.88 357.78,-214.28 357.80,-212.68 357.80,-211.07 357.79,-209.46 357.76,-207.86 357.73,-206.25 357.68,-204.63 357.62,-203.02 357.54,-201.41 357.46,-199.80 357.35,-198.18 357.24,-196.57 357.11,-194.95 356.97,-193.34 356.81,-191.72 356.64,-190.11 356.45,-188.49 356.24,-186.88 356.02,-185.27 355.79,-183.65 355.54,-182.04 355.27,-180.43 354.98,-178.82 354.68,-177.22 354.37,-175.61 354.04,-174.02 353.69,-172.43 353.33,-170.86 352.96,-169.29 352.58,-167.74 352.19,-166.20 351.78,-164.67 351.37,-163.15 350.94,-161.64 350.51,-160.13 350.07,-158.64 349.62,-157.16 349.17,-155.69 348.71,-154.23 348.24,-152.78 347.77,-151.34 347.29,-149.90 346.81,-148.47 346.32,-147.04 345.82,-145.61 345.32,-144.18 344.82,-142.75 344.30,-141.32 343.78,-139.90 343.26,-138.47 342.73,-137.04 342.20,-135.62 341.66,-134.19 341.11,-132.77 340.57,-131.34 340.01,-129.92 339.45,-128.49 338.89,-127.07 338.32,-125.65 337.74,-124.23 337.17,-122.81 336.58,-121.39 336.00,-119.97 335.41,-118.55 334.81,-117.13 334.21,-115.71 333.61,-114.29 333.00,-112.87 332.39,-111.45 331.78,-110.04 331.16,-108.62 330.54,-107.20 329.92,-105.78 329.30,-104.36 328.67,-102.95 328.04,-101.53 327.41,-100.11 326.78,-98.69 326.14,-97.27 325.51,-95.85 324.87,-94.43 324.24,-93.00 323.60,-91.58 322.96,-90.16 322.32,-88.74 321.69,-87.31 321.05,-85.89 320.41,-84.47 319.77,-83.04 319.13,-81.62 318.49,-80.19 317.85,-78.77 317.21,-77.34 316.57,-75.92 315.93,-74.49 315.29,-73.06 314.65,-71.64 314.01,-70.21 313.37,-68.78 312.73,-67.36 312.09,-65.93 311.46,-64.50 310.82,-63.07 310.18,-61.64 309.55,-60.21 308.91,-58.78 308.28,-57.35 307.65,-55.91 307.02,-54.48 306.38,-53.05 305.76,-51.61 305.13,-50.18 304.50,-48.74 303.87,-47.30 303.25,-45.87 302.62,-44.43 301.99,-42.99 301.37,-41.55 300.74,-40.11 300.12,-38.67 299.49,-37.23 298.87,-35.79 298.24,-34.35 297.62,-32.91 297.00,-31.47 296.37,-30.03 295.75,-28.59 295.12,-27.15 294.50,-25.71 293.88,-24.26 293.25,-22.82 292.63,-21.38 292.01,-19.93 291.39,-18.49 290.77,-17.04 290.15,-15.60 289.53,-14.15 288.91,-12.70 288.29,-11.26 287.67,-9.81 287.05,-8.36 286.43,-6.92 285.81,-5.47 285.19,-4.02 284.57,-2.57 283.95,-1.13 283.32,0.32 282.70,1.77 282.08,3.22 281.46,4.66 280.83,6.11 280.21,7.56 279.59,9.01 278.97,10.46 278.34,11.91 277.72,13.36 277.10,14.81 276.48,16.26 275.87,17.71 275.25,19.16 274.63,20.62 274.02,22.07 273.41,23.53 272.79,24.98 272.18,26.44 271.57,27.89 270.97,29.35 270.36,30.81 269.75,32.27 269.15,33.72 268.54,35.18 267.93,36.64 267.33,38.10 266.72,39.56 266.12,41.02 265.51,42.48 264.91,43.94 264.30,45.40 263.69,46.86 263.09,48.32 262.48,49.77 261.87,51.22 261.27,52.67 260.66,54.11 260.06,55.55 259.46,56.98 258.86,58.42 258.26,59.85 257.66,61.27 257.06,62.69 256.46,64.11 255.87,65.53 255.27,66.94 254.68,68.35 254.09,69.76 253.50,71.16 252.91,72.56 252.33,73.96 251.74,75.37 251.15,76.78 250.55,78.19 249.96,79.60 249.36,81.03 248.76,82.46 248.16,83.89 247.55,85.33 246.94,86.78 246.33,88.23 245.72,89.69 245.11,91.14 244.49,92.60" fill="none" stroke="white" stroke-width="27" stroke-linecap="round" stroke-linejoin="round" />
<line x1="227.29" y1="87.08" x2="260.47" y2="101.05" stroke="black" stroke-width="8" />
<g transform="translate(243.88,94.06) rotate(112.82144547738076)">
<polygon points="15,-3.0 21,0 15,3.0" fill="black" />
<polygon points="23,-3.0 29,0 23,3.0" fill="black" />
<polygon points="31,-3.0 37,0 31,3.0" fill="black" />
</g>
</svg>